{
.formatVersion = 3;
axes = (
{
name = Weight;
tag = wght;
}
);
classes = (
{
code = "parenleft parenright hyphen at A J O bracketleft backslash bracketright i o braceleft braceright guillemotleft guillemotright Jcircumflex Scedilla scedilla Tcedilla tcedilla gravecomb acutecomb circumflexcomb tildecomb macroncomb brevecomb dotaccentcomb dieresiscomb hookabovecomb ringcomb hungarumlautcomb caroncomb dblgravecomb breveinvertedcomb horncomb commaaccentcomb cedillacomb ogonekcomb endash emdash bullet guilsinglleft guilsinglright zero.numr one.numr two.numr three.numr four.numr five.numr six.numr seven.numr eight.numr nine.numr periodcentered.loclCAT acutecomb_dotaccentcomb circumflexcomb_acutecomb circumflexcomb_gravecomb circumflexcomb_hookabovecomb circumflexcomb_tildecomb tildecomb_acutecomb tildecomb_dieresiscomb tildecomb_macroncomb macroncomb_acutecomb macroncomb_dieresiscomb macroncomb_gravecomb brevecomb_acutecomb brevecomb_gravecomb brevecomb_hookabovecomb brevecomb_tildecomb dotaccentcomb_macroncomb dieresiscomb_acutecomb dieresiscomb_macroncomb";
name = aalt;
},
{

glyphs = (
{
glyphname = .notdef;
layers = (
{
layerId = "DCD6D63C-8715-4521-BEFF-523A5C998C9C";
shapes = (
{
closed = 1;
nodes = (
(555,0,ls),
(578,0,o),
(590,12,o),
(590,35,cs),
(590,665,ls),
(590,688,o),
(578,700,o),
(555,700,cs),
(121,700,ls),
(98,700,o),
(86,688,o),
(86,665,cs),
(86,35,ls),
(86,12,o),
(98,0,o),
(121,0,cs)
);
},
{
closed = 1;
nodes = (
(121,30,ls),
(118,30,o),
(116,32,o),
(116,35,cs),
(116,633,ls),
(116,638,o),
(119,639,o),
(122,635,cs),
(537,36,l),
(540,33,o),
(538,30,o),
(534,30,cs)
);
},
{
closed = 1;
nodes = (
(138,664,l),
(135,667,o),
(137,670,o),
(141,670,cs),
(555,670,ls),
(558,670,o),
(560,668,o),
(560,665,cs),
(560,67,ls),
(560,62,o),
(557,61,o),
(554,65,cs)
);
}
);
width = 655;
},
{
layerId = "222DC4F3-8650-441F-8C70-2115B1B3D57E";
shapes = (
{
closed = 1;
nodes = (
(556,0,ls),
(579,0,o),
(591,12,o),
(591,35,cs),
(591,665,ls),
(591,688,o),
(579,700,o),
(556,700,cs),
(122,700,ls),
(99,700,o),
(87,688,o),
(87,665,cs),
(87,35,ls),
(87,12,o),
(99,0,o),
(122,0,cs)
);
},
{
closed = 1;
nodes = (
(122,30,ls),
(119,30,o),
(117,32,o),
(117,35,cs),
(117,633,ls),
(117,638,o),
(120,639,o),
(123,635,cs),
(538,36,l),
(541,33,o),
(539,30,o),
(535,30,cs)
);
},
{
closed = 1;
nodes = (
(139,664,l),
(136,667,o),
(138,670,o),
(142,670,cs),
(556,670,ls),
(559,670,o),
(561,668,o),
(561,665,cs),
(561,67,ls),
(561,62,o),
(558,61,o),
(555,65,cs)
);
}
);
width = 656;
},
{
layerId = "731B92CD-F71D-43F6-9B71-33E028774484";
shapes = (
{
closed = 1;
nodes = (
(561,0,ls),
(584,0,o),
(596,12,o),
(596,35,cs),
(596,665,ls),
(596,688,o),
(584,700,o),
(561,700,cs),
(127,700,ls),
(104,700,o),
(92,688,o),
(92,665,cs),
(92,35,ls),
(92,12,o),
(104,0,o),
(127,0,cs)
);
},
{
closed = 1;
nodes = (
(119,22,ls),
(116,22,o),
(114,24,o),
(114,27,cs),
(114,650,ls),
(114,655,o),
(117,656,o),
(120,652,cs),
(554,28,l),
(557,25,o),
(555,22,o),
(551,22,cs)
);
},
{
closed = 1;
nodes = (
(133,672,l),
(130,675,o),
(132,678,o),
(136,678,cs),
(569,678,ls),
(572,678,o),
(574,676,o),
(574,673,cs),
(574,49,ls),
(574,44,o),
(571,43,o),
(568,47,cs)
);
}
);
width = 666;
}
);
},
{
glyphname = exclam;
layers = (
{
layerId = "DCD6D63C-8715-4521-BEFF-523A5C998C9C";
shapes = (
{
closed = 1;
nodes = (
(244,246,l),
(261,305,o),
(280,367,o),
(296,431,cs),
(312,494,o),
(325,556,o),
(333,615,cs),
(344,700,l),
(110,700,l),
(99,615,ls),
(92,555,o),
(89,494,o),
(90,431,cs),
(91,368,o),
(92,306,o),
(94,246,c)
);
},
{
closed = 1;
nodes = (
(180,-11,o),
(205,0,o),
(223,21,cs),
(240,42,o),
(249,67,o),
(249,95,cs),
(249,152,o),
(211,189,o),
(154,189,cs),
(121,189,o),
(95,176,o),
(78,156,cs),
(61,136,o),
(52,109,o),
(52,82,cs),
(52,22,o),
(92,-11,o),
(147,-11,cs)
);
}
);
width = 344;
},
{
layerId = "222DC4F3-8650-441F-8C70-2115B1B3D57E";
shapes = (
{
closed = 1;
nodes = (
(172,241,l),
(187,300,o),
(201,365,o),
(214,433,cs),
(226,500,o),
(237,569,o),
(245,630,cs),
(254,700,l),
(146,700,l),
(137,630,ls),
(130,571,o),
(124,508,o),
(120,439,cs),
(115,370,o),
(113,304,o),
(112,241,c)
);
},
{
closed = 1;
nodes = (
(137,-11,o),
(156,-3,o),
(169,15,cs),
(182,32,o),
(188,49,o),
(188,68,cs),
(188,113,o),
(161,138,o),
(122,138,cs),
(97,138,o),
(77,129,o),
(64,114,cs),
(51,98,o),
(43,78,o),
(43,58,cs),
(43,14,o),
(72,-11,o),
(112,-11,cs)
);
}
);
width = 284;
},
{
layerId = "731B92CD-F71D-43F6-9B71-33E028774484";
shapes = (
{
closed = 1;
nodes = (
(136,241,l),
(141,273,o),
(147,305,o),
(152,337,cs),
(156,369,o),
(160,403,o),
(164,436,cs),
(197,700,l),
(175,700,l),
(141,436,ls),
(136,402,o),
(133,369,o),
(130,337,cs),
(127,305,o),
(123,273,o),
(120,241,c)
);
},
{
closed = 1;
nodes = (
(108,-5,o),
(117,-2,o),
(122,5,cs),
(127,11,o),
(130,18,o),
(130,26,cs),
(130,45,o),
(120,57,o),
(101,57,cs),
(90,57,o),
(82,54,o),
(77,48,cs),
(72,42,o),
(69,33,o),
(69,25,cs),
(69,6,o),
(78,-5,o),
(97,-5,cs)
);
}
);
width = 258;
}
);
unicode = 33;
},
{
glyphname = numbersign;
layers = (
{
layerId = "DCD6D63C-8715-4521-BEFF-523A5C998C9C";
shapes = (
{
closed = 1;
nodes = (
(507,0,l),
(716,700,l),
(535,700,l),
(326,0,l)
);
},
{
closed = 1;
nodes = (
(652,133,l),
(673,296,l),
(54,296,l),
(33,133,l)
);
},
{
closed = 1;
nodes = (
(245,0,l),
(454,700,l),
(273,700,l),
(63,0,l)
);
},
{
closed = 1;
nodes = (
(725,413,l),
(746,576,l),
(127,576,l),
(107,413,l)
);
}
);
width = 756;
},
{
layerId = "222DC4F3-8650-441F-8C70-2115B1B3D57E";
shapes = (
{
closed = 1;
nodes = (
(456,0,l),
(665,700,l),
(572,700,l),
(362,0,l)
);
},
{
closed = 1;
nodes = (
(632,173,l),
(643,256,l),
(29,256,l),
(18,173,l)
);
},
{
closed = 1;
nodes = (
(158,0,l),
(368,700,l),
(275,700,l),
(66,0,l)
);
},
{
closed = 1;
nodes = (
(705,453,l),
(715,536,l),
(102,536,l),
(92,453,l)
);
}
);
width = 711;
},
{
layerId = "731B92CD-F71D-43F6-9B71-33E028774484";
shapes = (
{
closed = 1;
nodes = (
(401,0,l),
(609,700,l),
(586,700,l),
(378,0,l)
);
},
{
closed = 1;
nodes = (
(603,216,l),
(606,237,l),
(38,237,l),
(35,216,l)
);
},
{
closed = 1;
nodes = (
(123,0,l),
(330,700,l),
(307,700,l),
(99,0,l)
);
},
{
closed = 1;
nodes = (
(673,476,l),
(676,497,l),
(109,497,l),
(106,476,l)
);
}
);
width = 687;
}
);
unicode = 35;
},
{
glyphname = dollar;
layers = (
{
layerId = "DCD6D63C-8715-4521-BEFF-523A5C998C9C";
shapes = (
{
closed = 1;
nodes = (
(425,-15,o),
(501,8,o),
(556,50,cs),
(611,92,o),
(643,154,o),
(643,231,cs),
(643,280,o),
(627,322,o),
(592,355,cs),
(556,388,o),
(503,414,o),
(430,430,cs),
(366,445,o),
(327,456,o),
(304,468,cs),
(281,479,o),
(275,490,o),
(275,503,cs),
(275,520,o),
(287,531,o),
(307,539,cs),
(326,546,o),
(353,548,o),
(384,548,cs),
(452,548,o),
(522,524,o),
(571,493,c),
(687,620,l),
(651,649,o),
(609,673,o),
(561,689,cs),
(513,705,o),
(459,714,o),
(399,714,cs),
(303,714,o),
(221,691,o),
(164,650,cs),
(107,609,o),
(74,551,o),
(74,480,cs),
(74,428,o),
(91,387,o),
(128,355,cs),
(164,323,o),
(221,298,o),
(298,278,cs),
(351,265,o),
(387,252,o),
(408,239,cs),
(429,226,o),
(437,212,o),
(437,196,cs),
(437,179,o),
(430,167,o),
(415,160,cs),
(400,152,o),
(379,149,o),
(350,149,cs),
(270,149,o),
(186,173,o),
(121,245,c),
(-1,123,l),
(71,35,o),
(173,-15,o),
(337,-15,cs)
);
},
{
closed = 1;
nodes = (
(360,-111,l),
(378,30,l),
(346,71,l),
(381,340,l),
(294,373,l),
(255,67,l),
(240,25,l),
(223,-111,l)
);
},
{
closed = 1;
nodes = (
(470,633,l),
(480,663,l),
(498,802,l),
(361,802,l),
(344,668,l),
(380,641,l),
(345,371,l),
(432,338,l)
);
}
);
width = 670;
},
{
layerId = "222DC4F3-8650-441F-8C70-2115B1B3D57E";
shapes = (
{
closed = 1;
nodes = (
(371,-12,o),
(440,8,o),
(489,47,cs),
(538,86,o),
(568,143,o),
(568,215,cs),
(568,259,o),
(553,294,o),
(519,325,cs),
(485,356,o),
(432,380,o),
(359,403,cs),
(303,420,o),
(264,434,o),
(240,451,cs),
(216,468,o),
(206,488,o),
(206,516,cs),
(206,548,o),
(221,573,o),
(247,590,cs),
(273,607,o),
(309,617,o),
(352,617,cs),
(419,617,o),
(485,588,o),
(536,532,c),
(609,600,l),
(581,636,o),
(540,664,o),
(496,683,cs),
(451,702,o),
(400,712,o),
(352,712,cs),
(281,712,o),
(218,693,o),
(172,658,cs),
(126,622,o),
(98,570,o),
(98,503,cs),
(98,448,o),
(116,411,o),
(150,381,cs),
(184,351,o),
(234,328,o),
(301,308,cs),
(364,288,o),
(403,272,o),
(427,254,cs),
(450,236,o),
(458,216,o),
(458,192,cs),
(458,160,o),
(441,133,o),
(413,114,cs),
(385,95,o),
(347,85,o),
(304,85,cs),
(219,85,o),
(151,115,o),
(99,195,c),
(13,130,l),
(72,35,o),
(171,-12,o),
(292,-12,cs)
);
},
{
closed = 1;
nodes = (
(304,-111,l),
(320,15,l),
(317,53,l),
(353,337,l),
(278,370,l),
(237,55,l),
(225,23,l),
(207,-111,l)
);
},
{
closed = 1;
nodes = (
(415,649,l),
(427,678,l),
(442,802,l),
(345,802,l),
(330,677,l),
(335,649,l),
(299,369,l),
(375,336,l)
);
}
);
width = 623;
},
{
layerId = "731B92CD-F71D-43F6-9B71-33E028774484";
shapes = (
{
closed = 1;
nodes = (
(356,-10,o),
(414,11,o),
(455,46,cs),
(495,81,o),
(518,129,o),
(518,182,cs),
(518,231,o),
(502,268,o),
(468,298,cs),
(434,328,o),
(380,351,o),
(307,374,cs),
(250,393,o),
(203,409,o),
(172,431,cs),
(140,453,o),
(123,482,o),
(123,523,cs),
(123,574,o),
(144,615,o),
(180,644,cs),
(216,673,o),
(267,689,o),
(327,689,cs),
(408,689,o),
(479,656,o),
(530,596,c),
(546,611,l),
(518,643,o),
(486,669,o),
(449,686,cs),
(412,702,o),
(371,711,o),
(327,711,cs),
(255,711,o),
(198,690,o),
(159,656,cs),
(120,622,o),
(100,574,o),
(100,523,cs),
(100,476,o),
(118,445,o),
(151,419,cs),
(184,393,o),
(235,373,o),
(299,353,c),
(368,330,o),
(417,310,o),
(449,283,cs),
(481,256,o),
(495,225,o),
(495,181,cs),
(495,138,o),
(477,96,o),
(442,65,cs),
(407,33,o),
(354,12,o),
(286,12,cs),
(182,12,o),
(101,50,o),
(46,133,c),
(27,119,l),
(80,36,o),
(170,-10,o),
(285,-10,cs)
);
},
{
closed = 1;
nodes = (
(256,-111,l),
(270,-1,l),
(271,7,l),
(316,358,l),
(295,363,l),
(249,8,l),
(248,1,l),
(234,-111,l)
);
},
{
closed = 1;
nodes = (
(359,696,l),
(360,704,l),
(372,802,l),
(350,802,l),
(338,705,l),
(337,696,l),
(295,367,l),
(317,363,l)
);
}
);
width = 590;
}
);
unicode = 36;
},
{
glyphname = ampersand;
layers = (
{
layerId = "DCD6D63C-8715-4521-BEFF-523A5C998C9C";
shapes = (
{
closed = 1;
nodes = (
(540,0,l),
(503,48,l),
(419,138,l),
(308,274,ls),
(212,392,o),
(193,457,o),
(193,512,cs),
(193,639,o),
(279,719,o),
(416,719,cs),
(550,719,o),
(639,642,o),
(639,526,cs),
(639,373,o),
(501,357,o),
(394,338,cs),
(325,326,ls),
(272,317,o),
(234,286,o),
(234,234,cs),
(234,167,o),
(298,150,o),
(343,150,cs),
(443,150,o),
(531,236,o),
(554,359,c),
(746,359,l),
(687,143,o),
(513,-17,o),
(301,-4,cs),
(151,6,o),
(43,98,o),
(43,230,cs),
(43,339,o),
(116,437,o),
(240,447,cs),
(324,454,ls),
(356,457,o),
(460,461,o),
(460,514,cs),
(460,537,o),
(447,549,o),
(423,549,cs),
(402,549,o),
(390,533,o),
(390,505,cs),
(390,452,o),
(485,341,o),
(535,283,cs),
(559,255,l),
(647,164,l),
(776,0,l)
);
}
);
width = 804;
},
{
layerId = "222DC4F3-8650-441F-8C70-2115B1B3D57E";
shapes = (
{
closed = 1;
nodes = (
(511,0,l),
(481,45,l),
(438,92,l),
(279,296,ls),
(194,406,o),
(172,457,o),
(172,514,cs),
(172,639,o),
(239,709,o),
(357,709,cs),
(460,709,o),
(515,655,o),
(515,553,cs),
(515,468,o),
(464,409,o),
(369,387,cs),
(264,363,ls),
(188,345,o),
(138,304,o),
(138,225,cs),
(138,118,o),
(229,69,o),
(317,69,cs),
(453,69,o),
(558,185,o),
(595,342,c),
(690,342,l),
(639,144,o),
(499,-10,o),
(310,-10,cs),
(180,-10,o),
(43,62,o),
(43,219,cs),
(43,327,o),
(107,404,o),
(220,426,cs),
(332,448,ls),
(394,460,o),
(427,498,o),
(427,552,cs),
(427,599,o),
(405,624,o),
(362,624,cs),
(304,624,o),
(271,586,o),
(271,519,cs),
(271,459,o),
(320,397,o),
(380,319,cs),
(511,149,l),
(552,104,l),
(633,0,l)
);
}
);
width = 719;
},
{
layerId = "731B92CD-F71D-43F6-9B71-33E028774484";
shapes = (
{
closed = 1;
nodes = (
(496,0,l),
(461,48,l),
(454,56,l),
(257,316,ls),
(180,418,o),
(157,456,o),
(157,527,cs),
(157,635,o),
(195,703,o),
(299,703,cs),
(381,703,o),
(413,660,o),
(413,579,cs),
(413,501,o),
(366,447,o),
(294,421,cs),
(216,393,ls),
(125,360,o),
(66,321,o),
(66,224,cs),
(66,87,o),
(179,11,o),
(299,11,cs),
(458,11,o),
(575,146,o),
(621,329,c),
(643,329,l),
(597,139,o),
(475,-10,o),
(294,-10,cs),
(167,-10,o),
(42,63,o),
(42,216,cs),
(42,319,o),
(102,376,o),
(204,413,cs),
(282,441,ls),
(350,465,o),
(393,511,o),
(393,578,cs),
(393,646,o),
(366,682,o),
(300,682,cs),
(211,682,o),
(180,618,o),
(180,526,cs),
(180,465,o),
(200,433,o),
(263,349,cs),
(471,72,l),
(477,64,l),
(525,0,l)
);
}
);
width = 656;
}
);
unicode = 38;
},
{
glyphname = quotesingle;
layers = (
{
layerId = "DCD6D63C-8715-4521-BEFF-523A5C998C9C";
shapes = (
{
closed = 1;
nodes = (
(171,433,l),
(296,740,l),
(92,740,l),
(41,433,l)
);
}
);
width = 256;
},
{
layerId = "222DC4F3-8650-441F-8C70-2115B1B3D57E";
shapes = (
{
closed = 1;
nodes = (
(122,467,l),
(236,740,l),
(117,740,l),
(61,467,l)
);
}
);
width = 211;
},
{
layerId = "731B92CD-F71D-43F6-9B71-33E028774484";
shapes = (
{
closed = 1;
nodes = (
(108,482,l),
(187,740,l),
(159,740,l),
(89,482,l)
);
}
);
width = 187;
}
);
unicode = 39;
},
{
glyphname = parenleft;
layers = (
{
layerId = "DCD6D63C-8715-4521-BEFF-523A5C998C9C";
shapes = (
{
closed = 1;
nodes = (
(350,-86,l),
(266,-19,o),
(224,85,o),
(224,206,cs),
(224,277,o),
(244,353,o),
(281,423,cs),
(317,493,o),
(372,557,o),
(440,601,c),
(334,702,l),
(238,654,o),
(160,580,o),
(107,493,cs),
(54,406,o),
(24,306,o),
(24,206,cs),
(24,55,o),
(94,-83,o),
(227,-186,c)
);
}
);
width = 387;
},
{
layerId = "222DC4F3-8650-441F-8C70-2115B1B3D57E";
shapes = (
{
closed = 1;
nodes = (
(290,-126,l),
(183,-39,o),
(127,74,o),
(127,207,cs),
(127,288,o),
(151,370,o),
(196,444,cs),
(241,518,o),
(309,584,o),
(394,639,c),
(349,702,l),
(248,643,o),
(169,569,o),
(115,485,cs),
(61,400,o),
(33,306,o),
(33,206,cs),
(33,45,o),
(107,-94,o),
(236,-186,c)
);
}
);
width = 356;
},
{
layerId = "731B92CD-F71D-43F6-9B71-33E028774484";
shapes = (
{
closed = 1;
nodes = (
(268,-170,l),
(135,-75,o),
(75,48,o),
(75,200,cs),
(75,299,o),
(100,391,o),
(151,473,cs),
(202,555,o),
(278,626,o),
(379,686,c),
(368,702,l),
(265,645,o),
(187,571,o),
(134,486,cs),
(81,401,o),
(54,304,o),
(54,200,cs),
(54,40,o),
(122,-95,o),
(254,-186,c)
);
}
);
width = 335;
}
);
unicode = 40;
},
{
glyphname = parenright;
layers = (
{
layerId = "DCD6D63C-8715-4521-BEFF-523A5C998C9C";
shapes = (
{
closed = 1;
nodes = (
(35,602,l),
(119,535,o),
(161,431,o),
(161,310,cs),
(161,241,o),
(141,164,o),
(105,94,cs),
(68,24,o),
(13,-41,o),
(-55,-85,c),
(51,-186,l),
(147,-138,o),
(225,-64,o),
(278,23,cs),
(331,110,o),
(361,210,o),
(361,310,cs),
(361,461,o),
(291,599,o),
(158,702,c)
);
}
);
width = 387;
},
{
layerId = "222DC4F3-8650-441F-8C70-2115B1B3D57E";
shapes = (
{
closed = 1;
nodes = (
(64,642,l),
(171,555,o),
(227,442,o),
(227,309,cs),
(227,228,o),
(203,147,o),
(158,73,cs),
(113,-2,o),
(47,-68,o),
(-40,-123,c),
(5,-186,l),
(108,-127,o),
(186,-53,o),
(240,32,cs),
(294,116,o),
(321,210,o),
(321,310,cs),
(321,471,o),
(247,610,o),
(118,702,c)
);
}
);
width = 356;
},
{
layerId = "731B92CD-F71D-43F6-9B71-33E028774484";
shapes = (
{
closed = 1;
nodes = (
(66,685,l),
(199,590,o),
(259,467,o),
(259,315,cs),
(259,216,o),
(234,125,o),
(183,43,cs),
(132,-40,o),
(56,-111,o),
(-45,-171,c),
(-34,-187,l),
(69,-130,o),
(147,-56,o),
(200,29,cs),
(253,114,o),
(280,211,o),
(280,315,cs),
(280,475,o),
(212,610,o),
(80,701,c)
);
}
);
width = 335;
}
);
unicode = 41;
},
{
glyphname = asterisk;
layers = (
{
layerId = "DCD6D63C-8715-4521-BEFF-523A5C998C9C";
shapes = (
{
closed = 1;
nodes = (
(315,292,l),
(313,443,l),
(295,444,l),
(412,345,l),
(486,452,l),
(342,507,l),
(342,496,l),
(507,562,l),
(451,679,l),
(304,563,l),
(327,561,l),
(366,718,l),
(222,718,l),
(224,560,l),
(255,564,l),
(124,677,l),
(48,565,l),
(190,499,l),
(187,508,l),
(30,458,l),
(86,342,l),
(234,438,l),
(209,443,l),
(171,292,l)
);
}
);
width = 474;
},
{
layerId = "222DC4F3-8650-441F-8C70-2115B1B3D57E";
shapes = (
{
closed = 1;
nodes = (
(268,356,l),
(271,491,l),
(262,492,l),
(370,412,l),
(416,479,l),
(298,540,l),
(297,530,l),
(433,587,l),
(400,663,l),
(271,576,l),
(282,572,l),
(313,715,l),
(229,715,l),
(225,580,l),
(230,580,l),
(121,662,l),
(75,595,l),
(195,532,l),
(195,538,l),
(59,482,l),
(93,405,l),
(221,490,l),
(217,494,l),
(183,356,l)
);
}
);
width = 423;
},
{
layerId = "731B92CD-F71D-43F6-9B71-33E028774484";
shapes = (
{
closed = 1;
nodes = (
(227,376,l),
(243,534,l),
(234,532,l),
(362,455,l),
(376,475,l),
(244,544,l),
(244,534,l),
(392,603,l),
(380,625,l),
(230,543,l),
(244,539,l),
(268,700,l),
(244,700,l),
(227,528,l),
(240,544,l),
(112,625,l),
(99,603,l),
(232,532,l),
(233,545,l),
(82,475,l),
(93,454,l),
(237,531,l),
(228,536,l),
(203,376,l)
);
}
);
width = 404;
}
);
unicode = 42;
},
{
glyphname = plus;
layers = (
{
layerId = "DCD6D63C-8715-4521-BEFF-523A5C998C9C";
shapes = (
{
closed = 1;
nodes = (
(548,206,l),
(569,366,l),
(58,366,l),
(37,206,l)
);
},
{
closed = 1;
nodes = (
(356,32,l),
(419,535,l),
(250,535,l),
(187,32,l)
);
}
);
width = 601;
},
{
layerId = "222DC4F3-8650-441F-8C70-2115B1B3D57E";
shapes = (
{
closed = 1;
nodes = (
(547,234,l),
(561,335,l),
(60,335,l),
(46,234,l)
);
},
{
closed = 1;
nodes = (
(324,43,l),
(386,526,l),
(281,526,l),
(219,43,l)
);
}
);
width = 601;
},
{
layerId = "731B92CD-F71D-43F6-9B71-33E028774484";
shapes = (
{
closed = 1;
nodes = (
(532,278,l),
(535,299,l),
(65,299,l),
(62,278,l)
);
},
{
closed = 1;
nodes = (
(340,525,l),
(318,525,l),
(256,42,l),
(278,42,l)
);
}
);
width = 590;
}
);
unicode = 43;
},
{
glyphname = comma;
layers = (
{
layerId = "DCD6D63C-8715-4521-BEFF-523A5C998C9C";
shapes = (
{
closed = 1;
nodes = (
(7,-180,l),
(56,-160,o),
(108,-124,o),
(147,-80,cs),
(186,-36,o),
(213,18,o),
(213,75,cs),
(213,144,o),
(175,190,o),
(112,190,cs),
(81,190,o),
(57,177,o),
(39,158,cs),
(21,139,o),
(10,113,o),
(10,88,cs),
(10,52,o),
(24,35,o),
(39,20,cs),
(54,5,o),
(67,-7,o),
(67,-24,cs),
(67,-67,o),
(23,-96,o),
(-30,-125,c)
);
}
);
width = 258;
},
{
layerId = "222DC4F3-8650-441F-8C70-2115B1B3D57E";
shapes = (
{
closed = 1;
nodes = (
(21,-153,l),
(72,-132,o),
(108,-103,o),
(132,-68,cs),
(155,-33,o),
(166,7,o),
(166,50,cs),
(166,101,o),
(138,139,o),
(87,139,cs),
(66,139,o),
(48,130,o),
(36,118,cs),
(23,105,o),
(16,88,o),
(16,72,cs),
(16,39,o),
(34,25,o),
(51,12,cs),
(66,0,o),
(81,-14,o),
(81,-30,cs),
(81,-66,o),
(48,-87,o),
(-5,-114,c)
);
}
);
width = 238;
},
{
layerId = "731B92CD-F71D-43F6-9B71-33E028774484";
shapes = (
{
closed = 1;
nodes = (
(40,-119,l),
(65,-99,o),
(85,-82,o),
(98,-63,cs),
(111,-43,o),
(118,-22,o),
(118,2,cs),
(118,34,o),
(102,57,o),
(78,57,cs),
(67,57,o),
(59,53,o),
(54,48,cs),
(49,43,o),
(46,36,o),
(46,28,cs),
(46,12,o),
(55,4,o),
(66,-3,cs),
(79,-11,o),
(87,-19,o),
(87,-32,cs),
(87,-48,o),
(73,-73,o),
(30,-108,c)
);
}
);
width = 228;
}
);
leftKerningGroup = comma2;
rightKerningGroup = comma;
unicode = 44;
},
{
glyphname = hyphen;
layers = (
{
layerId = "DCD6D63C-8715-4521-BEFF-523A5C998C9C";
shapes = (
{
closed = 1;
nodes = (
(418,185,l),
(441,371,l),
(53,371,l),
(30,185,l)
);
}
);
width = 468;
},
{
layerId = "222DC4F3-8650-441F-8C70-2115B1B3D57E";
shapes = (
{
closed = 1;
nodes = (
(360,219,l),
(374,330,l),
(58,330,l),
(44,219,l)
);
}
);
width = 416;
},
{
layerId = "731B92CD-F71D-43F6-9B71-33E028774484";
shapes = (
{
closed = 1;
nodes = (
(333,262,l),
(337,286,l),
(64,286,l),
(60,262,l)
);
}
);
width = 394;
}
);
leftKerningGroup = hyphen2;
rightKerningGroup = hyphen;
unicode = 45;
},
{
glyphname = period;
layers = (
{
layerId = "DCD6D63C-8715-4521-BEFF-523A5C998C9C";
shapes = (
{
closed = 1;
nodes = (
(135,-11,o),
(161,2,o),
(178,22,cs),
(195,42,o),
(205,68,o),
(205,95,cs),
(205,154,o),
(169,189,o),
(110,189,cs),
(77,189,o),
(50,175,o),
(33,155,cs),
(16,134,o),
(7,107,o),
(7,80,cs),
(7,20,o),
(47,-11,o),
(103,-11,cs)
);
}
);
width = 258;
},
{
layerId = "222DC4F3-8650-441F-8C70-2115B1B3D57E";
shapes = (
{
closed = 1;
nodes = (
(113,-11,o),
(132,-2,o),
(145,14,cs),
(158,29,o),
(165,49,o),
(165,69,cs),
(165,110,o),
(142,139,o),
(99,139,cs),
(75,139,o),
(57,130,o),
(43,115,cs),
(29,99,o),
(21,79,o),
(21,58,cs),
(21,18,o),
(45,-11,o),
(90,-11,cs)
);
}
);
width = 238;
},
{
layerId = "731B92CD-F71D-43F6-9B71-33E028774484";
shapes = (
{
closed = 1;
nodes = (
(92,-5,o),
(100,-1,o),
(105,4,cs),
(110,9,o),
(114,17,o),
(114,26,cs),
(114,46,o),
(102,57,o),
(85,57,cs),
(76,57,o),
(68,55,o),
(63,49,cs),
(58,43,o),
(54,36,o),
(54,25,cs),
(54,6,o),
(66,-5,o),
(83,-5,cs)
);
}
);
width = 228;
}
);
leftKerningGroup = period;
rightKerningGroup = comma;
unicode = 46;
},
{
glyphname = slash;
layers = (
{
layerId = "DCD6D63C-8715-4521-BEFF-523A5C998C9C";
shapes = (
{
closed = 1;
nodes = (
(162,-95,l),
(669,700,l),
(455,700,l),
(-56,-95,l)
);
}
);
width = 604;
},
{
layerId = "222DC4F3-8650-441F-8C70-2115B1B3D57E";
shapes = (
{
closed = 1;
nodes = (
(89,-95,l),
(616,700,l),
(512,700,l),
(-16,-95,l)
);
}
);
width = 591;
},
{
layerId = "731B92CD-F71D-43F6-9B71-33E028774484";
shapes = (
{
closed = 1;
nodes = (
(55,-95,l),
(549,700,l),
(523,700,l),
(29,-95,l)
);
}
);
width = 568;
}
);
unicode = 47;
},
{
color = 0;
glyphname = zero;
leftMetricsKey = "=35";
rightMetricsKey = "=36";
layers = (
{
layerId = "DCD6D63C-8715-4521-BEFF-523A5C998C9C";
shapes = (
{
closed = 1;
nodes = (
(538,-10,o),
(669,116,o),
(697,339,cs),
(724,559,o),
(639,710,o),
(414,710,cs),
(205,710,o),
(74,583,o),
(46,357,cs),
(19,137,o),
(108,-10,o),
(331,-10,cs)
);
},
{
closed = 1;
nodes = (
(243,168,o),
(224,246,o),
(249,355,cs),
(276,476,o),
(333,542,o),
(411,542,cs),
(504,542,o),
(518,461,o),
(492,341,cs),
(466,230,o),
(410,168,o),
(334,168,cs)
);
}
);
width = 725;
},
{
layerId = "222DC4F3-8650-441F-8C70-2115B1B3D57E";
shapes = (
{
closed = 1;
nodes = (
(428,-10,o),
(540,126,o),
(568,339,cs),
(595,549,o),
(529,710,o),
(355,710,cs),
(197,710,o),
(85,573,o),
(57,357,cs),
(30,147,o),
(100,-10,o),
(272,-10,cs)
);
},
{
closed = 1;
nodes = (
(166,88,o),
(135,196,o),
(160,355,cs),
(187,519,o),
(256,612,o),
(352,612,cs),
(463,612,o),
(489,504,o),
(463,341,cs),
(437,180,o),
(369,88,o),
(275,88,cs)
);
}
);
width = 607;
},
{
layerId = "731B92CD-F71D-43F6-9B71-33E028774484";
shapes = (
{
closed = 1;
nodes = (
(443,-10,o),
(547,112,o),
(575,339,cs),
(602,563,o),
(544,710,o),
(362,710,cs),
(196,710,o),
(91,587,o),
(63,357,cs),
(36,133,o),
(99,-10,o),
(279,-10,cs)
);
},
{
closed = 1;
nodes = (
(119,12,o),
(60,146,o),
(85,355,cs),
(112,569,o),
(209,688,o),
(359,688,cs),
(525,688,o),
(578,554,o),
(552,341,cs),
(526,130,o),
(431,12,o),
(282,12,cs)
);
}
);
width = 620;
}
);
leftKerningGroup = zero2;
rightKerningGroup = zero;
unicode = 48;
},
{
color = 6;
glyphname = one;
layers = (
{
layerId = "DCD6D63C-8715-4521-BEFF-523A5C998C9C";
shapes = (
{
closed = 1;
nodes = (
(366,0,l),
(461,710,l),
(308,710,l),
(88,615,l),
(114,421,l),
(285,489,l),
(248,617,l),
(166,0,l)
);
}
);
width = 497;
},
{
layerId = "222DC4F3-8650-441F-8C70-2115B1B3D57E";
shapes = (
{
closed = 1;
nodes = (
(256,0,l),
(349,710,l),
(296,710,l),
(97,610,l),
(123,516,l),
(273,589,l),
(236,617,l),
(155,0,l)
);
}
);
width = 403;
},
{
layerId = "731B92CD-F71D-43F6-9B71-33E028774484";
shapes = (
{
closed = 1;
nodes = (
(188,0,l),
(277,710,l),
(266,710,l),
(102,605,l),
(105,585,l),
(256,678,l),
(251,678,l),
(166,0,l)
);
}
);
width = 343;
}
);
unicode = 49;
},
{
color = 6;
glyphname = two;
layers = (
{
layerId = "DCD6D63C-8715-4521-BEFF-523A5C998C9C";
shapes = (
{
closed = 1;
nodes = (
(501,0,l),
(524,184,l),
(170,184,l),
(190,74,l),
(378,230,l),
(510,360,o),
(539,439,o),
(547,495,c),
(562,629,o),
(463,719,o),
(335,720,cs),
(211,721,o),
(80,618,o),
(39,517,c),
(197,435,l),
(232,484,o),
(266,520,o),
(315,520,cs),
(354,520,o),
(365,498,o),
(351,467,c),
(343,430,o),
(278,348,o),
(198,278,cs),
(-33,82,l),
(-1,0,l)
);
}
);
width = 548;
},
{
layerId = "222DC4F3-8650-441F-8C70-2115B1B3D57E";
shapes = (
{
closed = 1;
nodes = (
(481,0,l),
(484,104,l),
(140,104,l),
(160,74,l),
(348,230,l),
(477,355,o),
(515,437,o),
(523,503,cs),
(538,627,o),
(461,710,o),
(342,710,cs),
(223,710,o),
(111,629,o),
(82,526,c),
(164,473,l),
(184,535,o),
(261,610,o),
(329,610,cs),
(391,610,o),
(426,573,o),
(412,498,cs),
(404,451,o),
(352,377,o),
(275,309,c),
(27,82,l),
(58,0,l)
);
}
);
width = 548;
},
{
layerId = "731B92CD-F71D-43F6-9B71-33E028774484";
shapes = (
{
closed = 1;
nodes = (
(471,0,l),
(474,22,l),
(62,22,l),
(62,4,l),
(382,297,l),
(462,368,o),
(515,445,o),
(523,522,c),
(538,632,o),
(454,710,o),
(336,710,cs),
(227,710,o),
(122,644,o),
(86,524,c),
(106,515,l),
(139,633,o),
(243,688,o),
(334,688,cs),
(439,688,o),
(514,622,o),
(500,524,c),
(492,448,o),
(437,372,o),
(363,309,c),
(39,13,l),
(43,0,l)
);
}
);
width = 548;
}
);
unicode = 50;
},
{
color = 6;
glyphname = three;
layers = (
{
layerId = "DCD6D63C-8715-4521-BEFF-523A5C998C9C";
shapes = (
{
closed = 1;
nodes = (
(446,-10,o),
(573,90,o),
(589,232,c),
(606,358,o),
(508,463,o),
(374,463,cs),
(346,463,o),
(318,457,o),
(303,452,c),
(356,389,l),
(624,632,l),
(588,710,l),
(156,710,l),
(133,525,l),
(419,525,l),
(355,546,l),
(182,400,l),
(224,289,l),
(263,304,o),
(301,314,o),
(326,314,cs),
(393,314,o),
(411,287,o),
(395,236,cs),
(380,189,o),
(337,165,o),
(284,165,cs),
(223,165,o),
(165,204,o),
(154,250,c),
(7,156,l),
(51,43,o),
(150,-10,o),
(280,-10,cs)
);
}
);
width = 637;
},
{
layerId = "222DC4F3-8650-441F-8C70-2115B1B3D57E";
shapes = (
{
closed = 1;
nodes = (
(360,-10,o),
(470,85,o),
(486,222,c),
(503,342,o),
(425,443,o),
(302,443,cs),
(286,443,o),
(255,437,o),
(240,432,c),
(268,406,l),
(531,660,l),
(514,700,l),
(123,700,l),
(110,600,l),
(407,600,l),
(387,631,l),
(134,393,l),
(163,316,l),
(218,334,o),
(257,344,o),
(290,344,cs),
(372,344,o),
(399,299,o),
(383,218,cs),
(368,137,o),
(304,85,o),
(225,85,cs),
(160,85,o),
(106,135,o),
(84,189,c),
(1,137,l),
(38,44,o),
(113,-10,o),
(217,-10,cs)
);
}
);
width = 529;
},
{
layerId = "731B92CD-F71D-43F6-9B71-33E028774484";
shapes = (
{
closed = 1;
nodes = (
(368,-10,o),
(469,88,o),
(485,217,cs),
(502,347,o),
(429,445,o),
(299,445,cs),
(248,445,o),
(218,431,o),
(179,406,c),
(192,400,l),
(516,676,l),
(506,700,l),
(143,700,l),
(140,678,l),
(494,678,l),
(495,687,l),
(141,383,l),
(154,363,l),
(211,418,o),
(256,423,o),
(299,423,cs),
(411,423,o),
(479,336,o),
(463,219,cs),
(448,102,o),
(357,12,o),
(232,12,cs),
(138,12,o),
(58,55,o),
(21,149,c),
(1,137,l),
(36,42,o),
(126,-10,o),
(230,-10,cs)
);
}
);
width = 529;
}
);
unicode = 51;
},
{
color = 6;
glyphname = four;
layers = (
{
layerId = "DCD6D63C-8715-4521-BEFF-523A5C998C9C";
shapes = (
{
closed = 1;
nodes = (
(85,110,l),
(634,110,l),
(655,280,l),
(170,280,l),
(189,237,l),
(600,710,l),
(371,710,l),
(2,272,l)
);
},
{
closed = 1;
nodes = (
(346,0,l),
(541,0,l),
(596,443,l),
(437,403,l),
(372,203,l)
);
}
);
width = 693;
},
{
layerId = "222DC4F3-8650-441F-8C70-2115B1B3D57E";
shapes = (
{
closed = 1;
nodes = (
(51,160,l),
(544,160,l),
(556,259,l),
(115,259,l),
(119,247,l),
(520,700,l),
(386,700,l),
(8,250,l)
);
},
{
closed = 1;
nodes = (
(336,0,l),
(441,0,l),
(496,432,l),
(388,412,l),
(362,208,l)
);
}
);
width = 620;
},
{
layerId = "731B92CD-F71D-43F6-9B71-33E028774484";
shapes = (
{
closed = 1;
nodes = (
(35,190,l),
(567,190,l),
(570,212,l),
(46,212,l),
(49,204,l),
(519,700,l),
(489,700,l),
(27,212,l)
);
},
{
closed = 1;
nodes = (
(399,0,l),
(421,0,l),
(475,424,l),
(453,424,l),
(425,199,l)
);
}
);
width = 620;
}
);
unicode = 52;
},
{
color = 6;
glyphname = five;
layers = (
{
layerId = "DCD6D63C-8715-4521-BEFF-523A5C998C9C";
shapes = (
{
closed = 1;
nodes = (
(434,-7,o),
(548,96,o),
(564,227,cs),
(582,372,o),
(498,483,o),
(351,483,cs),
(280,483,o),
(214,453,o),
(158,412,c),
(242,397,l),
(315,619,l),
(252,535,l),
(563,535,l),
(585,710,l),
(165,710,l),
(79,392,l),
(162,283,l),
(218,315,o),
(249,329,o),
(303,329,cs),
(361,329,o),
(387,296,o),
(370,240,c),
(357,207,o),
(327,173,o),
(266,173,cs),
(196,173,o),
(152,192,o),
(121,237,c),
(4,118,l),
(46,41,o),
(154,-7,o),
(276,-7,cs)
);
}
);
width = 617;
},
{
layerId = "222DC4F3-8650-441F-8C70-2115B1B3D57E";
shapes = (
{
closed = 1;
nodes = (
(380,-7,o),
(484,96,o),
(500,227,cs),
(518,363,o),
(441,468,o),
(303,468,cs),
(248,468,o),
(179,447,o),
(154,427,c),
(178,397,l),
(251,619,l),
(228,600,l),
(538,600,l),
(541,700,l),
(163,700,l),
(81,403,l),
(137,327,l),
(219,365,o),
(242,368,o),
(281,368,cs),
(363,368,o),
(413,309,o),
(396,218,cs),
(383,153,o),
(324,92,o),
(232,92,cs),
(168,92,o),
(127,116,o),
(79,178,c),
(17,115,l),
(47,43,o),
(134,-7,o),
(232,-7,cs)
);
}
);
width = 568;
},
{
layerId = "731B92CD-F71D-43F6-9B71-33E028774484";
shapes = (
{
closed = 1;
nodes = (
(380,-10,o),
(484,94,o),
(500,226,cs),
(518,361,o),
(439,464,o),
(301,464,cs),
(221,464,o),
(154,435,o),
(91,388,c),
(100,379,l),
(184,690,l),
(167,678,l),
(538,678,l),
(541,700,l),
(165,700,l),
(78,377,l),
(90,362,l),
(146,408,o),
(223,442,o),
(297,442,cs),
(421,442,o),
(495,351,o),
(478,229,c),
(465,113,o),
(370,12,o),
(233,12,cs),
(148,12,o),
(63,60,o),
(36,129,c),
(18,114,l),
(49,42,o),
(135,-10,o),
(232,-10,cs)
);
}
);
width = 568;
}
);
unicode = 53;
},
{
color = 6;
glyphname = six;
layers = (
{
layerId = "DCD6D63C-8715-4521-BEFF-523A5C998C9C";
shapes = (
{
closed = 1;
nodes = (
(423,0,o),
(548,95,o),
(566,248,c),
(588,390,o),
(490,489,o),
(375,489,cs),
(287,489,o),
(154,404,o),
(142,303,c),
(183,260,l),
(229,351,o),
(255,393,o),
(306,459,cs),
(490,700,l),
(487,710,l),
(289,710,l),
(163,538,ls),
(91,440,o),
(39,383,o),
(29,273,c),
(6,112,o),
(131,0,o),
(278,0,cs)
);
},
{
closed = 1;
nodes = (
(230,170,o),
(194,200,o),
(215,273,c),
(226,307,o),
(268,339,o),
(321,339,cs),
(366,339,o),
(406,309,o),
(386,245,c),
(370,190,o),
(324,170,o),
(280,170,cs)
);
}
);
width = 596;
},
{
layerId = "222DC4F3-8650-441F-8C70-2115B1B3D57E";
shapes = (
{
closed = 1;
nodes = (
(388,0,o),
(494,94,o),
(512,248,c),
(534,390,o),
(439,489,o),
(328,489,cs),
(242,489,o),
(163,442,o),
(109,363,c),
(136,260,l),
(157,325,o),
(208,416,o),
(273,512,c),
(412,702,l),
(409,712,l),
(302,712,l),
(188,558,l),
(98,429,o),
(49,329,o),
(39,262,cs),
(16,99,o),
(122,0,o),
(259,0,cs)
);
},
{
closed = 1;
nodes = (
(178,100,o),
(121,158,o),
(142,266,c),
(153,332,o),
(216,389,o),
(300,389,cs),
(369,389,o),
(429,332,o),
(409,237,c),
(393,146,o),
(326,100,o),
(257,100,cs)
);
}
);
width = 557;
},
{
layerId = "731B92CD-F71D-43F6-9B71-33E028774484";
shapes = (
{
closed = 1;
nodes = (
(388,-10,o),
(495,76,o),
(513,210,cs),
(535,360,o),
(438,455,o),
(315,455,cs),
(224,455,o),
(138,403,o),
(88,306,c),
(97,303,l),
(102,339,o),
(147,419,o),
(207,496,cs),
(365,695,l),
(364,700,l),
(340,700,l),
(185,501,l),
(108,401,o),
(74,319,o),
(67,248,c),
(44,85,o),
(148,-10,o),
(271,-10,cs)
);
},
{
closed = 1;
nodes = (
(158,12,o),
(69,98,o),
(90,239,c),
(101,345,o),
(196,433,o),
(313,433,cs),
(421,433,o),
(511,350,o),
(491,213,c),
(475,90,o),
(376,12,o),
(272,12,cs)
);
}
);
width = 605;
}
);
unicode = 54;
},
{
color = 6;
glyphname = seven;
layers = (
{
layerId = "DCD6D63C-8715-4521-BEFF-523A5C998C9C";
shapes = (
{
closed = 1;
nodes = (
(240,0,l),
(577,620,l),
(563,710,l),
(109,710,l),
(86,526,l),
(461,526,l),
(388,642,l),
(29,0,l)
);
}
);
width = 561;
},
{
layerId = "222DC4F3-8650-441F-8C70-2115B1B3D57E";
shapes = (
{
closed = 1;
nodes = (
(194,0,l),
(558,631,l),
(547,700,l),
(124,700,l),
(111,600,l),
(465,600,l),
(454,632,l),
(77,0,l)
);
}
);
width = 542;
},
{
layerId = "731B92CD-F71D-43F6-9B71-33E028774484";
shapes = (
{
closed = 1;
nodes = (
(89,0,l),
(475,680,l),
(462,700,l),
(54,700,l),
(51,678,l),
(465,678,l),
(458,693,l),
(63,0,l)
);
}
);
width = 466;
}
);
unicode = 55;
},
{
color = 0;
glyphname = eight;
layers = (
{
layerId = "DCD6D63C-8715-4521-BEFF-523A5C998C9C";
shapes = (
{
closed = 1;
nodes = (
(436,-3,o),
(560,75,o),
(573,196,cs),
(586,323,o),
(521,396,o),
(420,408,c),
(435,360,l),
(526,393,o),
(578,449,o),
(587,525,cs),
(602,644,o),
(491,720,o),
(360,720,cs),
(223,720,o),
(104,649,o),
(91,540,cs),
(80,452,o),
(126,393,o),
(210,360,c),
(224,415,l),
(109,395,o),
(36,336,o),
(26,224,c),
(8,85,o),
(133,-3,o),
(285,-3,cs)
);
},
{
closed = 1;
nodes = (
(246,156,o),
(211,180,o),
(227,238,c),
(237,265,o),
(277,294,o),
(312,294,cs),
(360,294,o),
(387,263,o),
(371,216,c),
(359,175,o),
(327,156,o),
(285,156,cs)
);
},
{
closed = 1;
nodes = (
(283,457,o),
(263,483,o),
(274,523,c),
(286,561,o),
(321,581,o),
(357,581,cs),
(394,581,o),
(416,554,o),
(403,512,cs),
(393,481,o),
(362,457,o),
(320,457,cs)
);
}
);
width = 613;
},
{
layerId = "222DC4F3-8650-441F-8C70-2115B1B3D57E";
shapes = (
{
closed = 1;
nodes = (
(396,-3,o),
(503,77,o),
(516,187,c),
(529,267,o),
(482,351,o),
(403,378,c),
(408,364,l),
(485,391,o),
(531,441,o),
(540,505,cs),
(555,616,o),
(458,700,o),
(343,700,cs),
(222,700,o),
(117,621,o),
(104,520,cs),
(93,444,o),
(130,392,o),
(203,364,c),
(207,385,l),
(117,350,o),
(59,289,o),
(49,215,cs),
(31,87,o),
(138,-3,o),
(268,-3,cs)
);
},
{
closed = 1;
nodes = (
(197,97,o),
(140,139,o),
(156,217,cs),
(166,269,o),
(228,318,o),
(295,318,cs),
(374,318,o),
(425,267,o),
(409,195,c),
(397,134,o),
(342,97,o),
(268,97,cs)
);
},
{
closed = 1;
nodes = (
(241,414,o),
(200,454,o),
(211,511,cs),
(223,566,o),
(279,600,o),
(340,600,cs),
(402,600,o),
(445,559,o),
(432,500,cs),
(422,452,o),
(370,414,o),
(303,414,cs)
);
}
);
width = 579;
},
{
layerId = "731B92CD-F71D-43F6-9B71-33E028774484";
shapes = (
{
closed = 1;
nodes = (
(397,-3,o),
(503,71,o),
(516,180,cs),
(529,282,o),
(464,363,o),
(362,383,c),
(360,374,l),
(456,388,o),
(518,457,o),
(527,526,cs),
(542,639,o),
(453,710,o),
(344,710,cs),
(231,710,o),
(133,644,o),
(120,541,c),
(109,460,o),
(159,387,o),
(254,374,c),
(248,386,l),
(137,365,o),
(61,296,o),
(51,208,c),
(33,81,o),
(140,-3,o),
(269,-3,cs)
);
},
{
closed = 1;
nodes = (
(155,19,o),
(58,97,o),
(74,204,c),
(84,295,o),
(181,368,o),
(296,368,cs),
(423,368,o),
(509,293,o),
(493,182,c),
(481,91,o),
(385,19,o),
(269,19,cs)
);
},
{
closed = 1;
nodes = (
(202,388,o),
(132,453,o),
(143,542,cs),
(155,628,o),
(240,688,o),
(341,688,c),
(444,688,o),
(516,621,o),
(503,531,c),
(493,448,o),
(412,388,o),
(304,388,cs)
);
}
);
width = 580;
}
);
unicode = 56;
},
{
color = 6;
glyphname = nine;
leftMetricsKey = "|six";
rightMetricsKey = "|six";
layers = (
{
layerId = "DCD6D63C-8715-4521-BEFF-523A5C998C9C";
shapes = (
{
closed = 1;
nodes = (
(197,705,o),
(70,610,o),
(50,457,c),
(26,315,o),
(122,216,o),
(237,216,cs),
(325,216,o),
(459,301,o),
(473,402,c),
(433,445,l),
(385,354,o),
(358,312,o),
(306,246,cs),
(118,5,l),
(121,-5,l),
(319,-5,l),
(448,167,ls),
(522,265,o),
(575,322,o),
(586,432,c),
(612,593,o),
(489,705,o),
(342,705,cs)
);
},
{
closed = 1;
nodes = (
(387,535,o),
(423,505,o),
(400,432,c),
(389,398,o),
(346,366,o),
(293,366,cs),
(248,366,o),
(209,396,o),
(230,460,c),
(247,515,o),
(293,535,o),
(337,535,cs)
);
}
);
width = 595;
},
{
layerId = "222DC4F3-8650-441F-8C70-2115B1B3D57E";
shapes = (
{
closed = 1;
nodes = (
(193,705,o),
(85,611,o),
(65,457,c),
(41,315,o),
(134,216,o),
(245,216,cs),
(331,216,o),
(411,263,o),
(466,342,c),
(441,445,l),
(419,380,o),
(366,289,o),
(300,193,c),
(157,3,l),
(160,-7,l),
(267,-7,l),
(384,147,l),
(476,276,o),
(527,376,o),
(538,443,cs),
(563,606,o),
(459,705,o),
(322,705,cs)
);
},
{
closed = 1;
nodes = (
(401,605,o),
(457,547,o),
(435,439,c),
(422,373,o),
(359,316,o),
(275,316,cs),
(206,316,o),
(146,373,o),
(168,468,c),
(186,559,o),
(253,605,o),
(322,605,cs)
);
}
);
width = 557;
},
{
layerId = "731B92CD-F71D-43F6-9B71-33E028774484";
shapes = (
{
closed = 1;
nodes = (
(240,706,o),
(132,620,o),
(112,486,cs),
(87,336,o),
(182,241,o),
(305,241,cs),
(396,241,o),
(483,293,o),
(535,390,c),
(526,393,l),
(520,357,o),
(474,277,o),
(413,200,cs),
(251,1,l),
(252,-4,l),
(276,-4,l),
(435,195,ls),
(513,295,o),
(549,377,o),
(557,448,c),
(583,611,o),
(480,706,o),
(357,706,cs)
);
},
{
closed = 1;
nodes = (
(470,684,o),
(557,598,o),
(534,457,c),
(521,351,o),
(425,263,o),
(308,263,cs),
(200,263,o),
(111,346,o),
(133,483,cs),
(152,606,o),
(252,684,o),
(356,684,cs)
);
}
);
width = 605;
}
);
unicode = 57;
},
{
glyphname = less;
layers = (
{
layerId = "DCD6D63C-8715-4521-BEFF-523A5C998C9C";
shapes = (
{
closed = 1;
nodes = (
(31,353,l),
(15,220,l),
(385,8,l),
(483,154,l),
(177,320,l),
(171,253,l),
(521,419,l),
(457,565,l)
);
}
);
width = 545;
},
{
layerId = "222DC4F3-8650-441F-8C70-2115B1B3D57E";
shapes = (
{
closed = 1;
nodes = (
(41,317,l),
(33,256,l),
(381,40,l),
(436,120,l),
(98,335,l),
(96,240,l),
(484,453,l),
(444,533,l)
);
}
);
width = 515;
},
{
layerId = "731B92CD-F71D-43F6-9B71-33E028774484";
shapes = (
{
closed = 1;
nodes = (
(50,299,l),
(48,281,l),
(397,73,l),
(408,90,l),
(69,294,l),
(69,285,l),
(458,489,l),
(447,507,l)
);
}
);
width = 497;
}
);
unicode = 60;
},
{
glyphname = greater;
layers = (
{
layerId = "DCD6D63C-8715-4521-BEFF-523A5C998C9C";
shapes = (
{
closed = 1;
nodes = (
(514,220,l),
(530,353,l),
(160,565,l),
(62,419,l),
(368,253,l),
(374,320,l),
(24,154,l),
(88,8,l)
);
}
);
width = 545;
},
{
layerId = "222DC4F3-8650-441F-8C70-2115B1B3D57E";
shapes = (
{
closed = 1;
nodes = (
(474,256,l),
(482,317,l),
(134,533,l),
(79,453,l),
(417,238,l),
(419,333,l),
(31,120,l),
(71,40,l)
);
}
);
width = 515;
},
{
layerId = "731B92CD-F71D-43F6-9B71-33E028774484";
shapes = (
{
closed = 1;
nodes = (
(447,281,l),
(449,299,l),
(100,507,l),
(89,490,l),
(428,286,l),
(428,295,l),
(39,91,l),
(50,73,l)
);
}
);
width = 497;
}
);
unicode = 62;
},
{
glyphname = question;
layers = (
{
layerId = "DCD6D63C-8715-4521-BEFF-523A5C998C9C";
shapes = (
{
closed = 1;
nodes = (
(269,-11,o),
(295,3,o),
(312,23,cs),
(329,43,o),
(338,70,o),
(338,97,cs),
(338,152,o),
(302,189,o),
(246,189,cs),
(211,189,o),
(185,175,o),
(167,154,cs),
(151,135,o),
(141,109,o),
(141,80,cs),
(141,22,o),
(181,-11,o),
(234,-11,cs)
);
},
{
closed = 1;
nodes = (
(314,218,l),
(392,286,l),
(350,306,ls),
(328,316,o),
(319,327,o),
(319,335,cs),
(319,345,o),
(333,353,o),
(361,364,cs),
(392,376,ls),
(478,409,o),
(527,454,o),
(527,542,cs),
(527,671,o),
(420,720,o),
(315,720,cs),
(201,720,o),
(120,663,o),
(82,610,c),
(175,513,l),
(199,552,o),
(249,565,o),
(279,565,cs),
(316,565,o),
(320,545,o),
(320,531,cs),
(320,498,o),
(296,473,o),
(264,460,cs),
(236,449,ls),
(188,430,o),
(134,399,o),
(134,343,cs),
(134,296,o),
(173,263,o),
(254,237,cs)
);
}
);
width = 560;
},
{
layerId = "222DC4F3-8650-441F-8C70-2115B1B3D57E";
shapes = (
{
closed = 1;
nodes = (
(237,-8,o),
(254,1,o),
(265,14,cs),
(277,27,o),
(283,45,o),
(283,63,cs),
(284,101,o),
(260,128,o),
(221,128,cs),
(198,128,o),
(180,119,o),
(168,105,cs),
(157,93,o),
(150,76,o),
(150,57,c),
(148,16,o),
(175,-8,o),
(213,-8,cs)
);
},
{
closed = 1;
nodes = (
(276,193,l),
(324,237,l),
(280,258,ls),
(257,269,o),
(251,294,o),
(251,308,cs),
(251,334,o),
(272,346,o),
(311,365,cs),
(351,384,ls),
(430,422,o),
(481,468,o),
(481,554,cs),
(481,669,o),
(391,715,o),
(296,715,cs),
(204,715,o),
(135,671,o),
(98,628,c),
(162,562,l),
(193,596,o),
(235,622,o),
(277,622,cs),
(331,622,o),
(359,591,o),
(359,548,cs),
(359,496,o),
(319,467,o),
(270,446,cs),
(249,437,ls),
(197,415,o),
(140,378,o),
(140,316,cs),
(140,277,o),
(163,235,o),
(220,214,cs)
);
}
);
width = 513;
},
{
layerId = "731B92CD-F71D-43F6-9B71-33E028774484";
shapes = (
{
closed = 1;
nodes = (
(199,-5,o),
(206,-2,o),
(211,3,cs),
(216,8,o),
(219,16,o),
(220,25,cs),
(221,43,o),
(211,57,o),
(192,57,cs),
(183,57,o),
(174,54,o),
(169,50,cs),
(164,45,o),
(161,37,o),
(160,29,cs),
(157,9,o),
(168,-5,o),
(189,-5,cs)
);
},
{
closed = 1;
nodes = (
(232,165,l),
(246,181,l),
(199,224,ls),
(178,243,o),
(172,255,o),
(172,276,cs),
(172,322,o),
(201,353,o),
(253,381,cs),
(303,408,ls),
(377,448,o),
(428,485,o),
(428,569,cs),
(428,667,o),
(358,709,o),
(276,709,cs),
(207,709,o),
(153,680,o),
(117,649,c),
(131,633,l),
(172,662,o),
(219,688,o),
(275,688,cs),
(348,688,o),
(404,645,o),
(404,571,cs),
(404,493,o),
(343,452,o),
(277,419,cs),
(265,413,ls),
(208,384,o),
(147,353,o),
(147,282,cs),
(147,256,o),
(155,230,o),
(180,209,cs)
);
}
);
width = 458;
}
);
unicode = 63;
},
{
glyphname = at;
layers = (
{
layerId = "DCD6D63C-8715-4521-BEFF-523A5C998C9C";
shapes = (
{
closed = 1;
nodes = (
(484,-175,o),
(535,-168,o),
(584,-156,cs),
(632,-143,o),
(678,-123,o),
(718,-99,c),
(680,-24,l),
(643,-48,o),
(604,-65,o),
(564,-76,cs),
(524,-87,o),
(482,-92,o),
(438,-92,cs),
(338,-92,o),
(259,-65,o),
(207,-14,cs),
(154,37,o),
(125,111,o),
(125,204,cs),
(125,340,o),
(178,448,o),
(262,521,cs),
(345,593,o),
(459,633,o),
(582,633,cs),
(678,633,o),
(758,610,o),
(815,565,cs),
(872,520,o),
(905,453,o),
(905,366,cs),
(905,307,o),
(889,252,o),
(862,212,cs),
(834,172,o),
(797,146,o),
(754,146,cs),
(731,146,o),
(718,152,o),
(711,164,c),
(703,175,o),
(704,190,o),
(709,209,cs),
(779,506,l),
(623,506,l),
(587,380,l),
(646,421,l),
(641,448,o),
(621,473,o),
(594,492,cs),
(566,511,o),
(533,523,o),
(497,523,cs),
(421,523,o),
(358,485,o),
(314,428,cs),
(269,371,o),
(244,294,o),
(244,215,cs),
(244,159,o),
(259,114,o),
(287,83,c),
(314,51,o),
(352,34,o),
(400,34,cs),
(479,34,o),
(550,88,o),
(586,180,c),
(546,211,l),
(545,184,o),
(542,162,o),
(542,135,cs),
(542,75,o),
(599,34,o),
(686,34,cs),
(778,34,o),
(855,77,o),
(909,141,cs),
(963,205,o),
(993,290,o),
(993,375,cs),
(993,474,o),
(958,560,o),
(890,621,cs),
(822,681,o),
(720,718,o),
(584,718,cs),
(431,718,o),
(294,665,o),
(195,574,cs),
(95,482,o),
(34,352,o),
(34,199,cs),
(34,91,o),
(69,-4,o),
(136,-70,cs),
(203,-136,o),
(304,-175,o),
(433,-175,cs)
);
},
{
closed = 1;
nodes = (
(442,181,o),
(420,207,o),
(421,250,cs),
(422,287,o),
(433,319,o),
(450,342,cs),
(466,365,o),
(489,378,o),
(516,378,cs),
(535,378,o),
(548,372,o),
(557,363,cs),
(565,354,o),
(569,339,o),
(569,323,cs),
(569,308,o),
(567,291,o),
(563,274,cs),
(544,202,o),
(509,181,o),
(478,181,cs)
);
}
);
width = 1020;
},
{
layerId = "222DC4F3-8650-441F-8C70-2115B1B3D57E";
shapes = (
{
closed = 1;
nodes = (
(495,-172,o),
(537,-166,o),
(578,-154,cs),
(619,-142,o),
(658,-124,o),
(705,-99,c),
(670,-33,l),
(633,-54,o),
(595,-70,o),
(558,-79,cs),
(521,-88,o),
(485,-92,o),
(449,-92,cs),
(340,-92,o),
(259,-61,o),
(207,-9,cs),
(154,43,o),
(128,117,o),
(128,204,cs),
(128,331,o),
(173,439,o),
(251,515,cs),
(329,591,o),
(439,635,o),
(568,635,cs),
(672,635,o),
(754,611,o),
(810,567,cs),
(866,522,o),
(897,458,o),
(897,375,cs),
(897,314,o),
(879,251,o),
(848,205,cs),
(817,159,o),
(774,127,o),
(723,127,cs),
(711,127,o),
(698,133,o),
(689,143,cs),
(680,153,o),
(675,166,o),
(679,183,cs),
(747,506,l),
(646,506,l),
(616,365,l),
(681,400,l),
(677,429,o),
(658,458,o),
(630,479,c),
(601,499,o),
(564,513,o),
(524,513,cs),
(447,513,o),
(384,473,o),
(341,417,cs),
(298,361,o),
(275,288,o),
(275,221,cs),
(275,169,o),
(291,126,o),
(319,96,cs),
(346,66,o),
(385,49,o),
(430,49,cs),
(514,49,o),
(580,94,o),
(616,183,c),
(583,212,l),
(579,187,o),
(572,163,o),
(572,142,cs),
(572,85,o),
(618,45,o),
(689,45,cs),
(772,45,o),
(844,86,o),
(896,149,cs),
(948,212,o),
(980,295,o),
(980,380,cs),
(980,487,o),
(941,570,o),
(872,627,cs),
(803,684,o),
(702,715,o),
(578,715,cs),
(431,715,o),
(298,666,o),
(201,576,cs),
(104,486,o),
(44,355,o),
(44,192,cs),
(44,80,o),
(80,-10,o),
(148,-74,cs),
(216,-137,o),
(315,-172,o),
(443,-172,cs)
);
},
{
closed = 1;
nodes = (
(406,128,o),
(375,168,o),
(378,229,c),
(379,288,o),
(398,337,o),
(424,372,cs),
(450,407,o),
(484,427,o),
(517,427,cs),
(545,427,o),
(568,418,o),
(583,400,cs),
(598,382,o),
(606,355,o),
(605,319,c),
(605,308,o),
(603,297,o),
(599,278,cs),
(579,189,o),
(522,128,o),
(454,128,cs)
);
}
);
width = 1015;
},
{
layerId = "731B92CD-F71D-43F6-9B71-33E028774484";
shapes = (
{
closed = 1;
nodes = (
(475,-162,o),
(524,-155,o),
(570,-143,cs),
(616,-130,o),
(659,-112,o),
(694,-91,c),
(683,-73,l),
(655,-90,o),
(612,-108,o),
(566,-121,cs),
(520,-133,o),
(471,-141,o),
(432,-141,cs),
(328,-141,o),
(242,-107,o),
(182,-47,cs),
(122,14,o),
(88,103,o),
(88,214,cs),
(88,337,o),
(140,455,o),
(226,543,cs),
(312,631,o),
(434,689,o),
(574,689,cs),
(678,689,o),
(766,662,o),
(829,611,cs),
(892,559,o),
(928,485,o),
(928,392,cs),
(928,303,o),
(902,224,o),
(862,168,cs),
(822,111,o),
(768,76,o),
(709,76,cs),
(677,76,o),
(663,86,o),
(657,102,cs),
(651,117,o),
(654,138,o),
(659,161,cs),
(737,501,l),
(715,501,l),
(685,362,l),
(694,368,l),
(685,421,o),
(659,458,o),
(628,480,cs),
(596,502,o),
(558,510,o),
(522,510,cs),
(457,510,o),
(399,478,o),
(357,427,cs),
(315,376,o),
(289,306,o),
(286,231,c),
(285,179,o),
(301,135,o),
(330,104,cs),
(359,72,o),
(401,55,o),
(449,55,cs),
(545,55,o),
(630,118,o),
(667,218,c),
(658,229,l),
(639,182,o),
(630,152,o),
(630,124,cs),
(630,88,o),
(646,55,o),
(705,55,cs),
(766,55,o),
(828,89,o),
(874,149,cs),
(920,208,o),
(950,293,o),
(950,394,cs),
(950,487,o),
(914,566,o),
(848,622,cs),
(782,678,o),
(689,710,o),
(574,710,cs),
(427,710,o),
(300,652,o),
(209,561,cs),
(118,469,o),
(65,343,o),
(65,207,cs),
(65,95,o),
(102,3,o),
(166,-62,cs),
(230,-126,o),
(322,-162,o),
(431,-162,cs)
);
},
{
closed = 1;
nodes = (
(364,76,o),
(306,136,o),
(309,232,cs),
(312,308,o),
(338,373,o),
(378,418,cs),
(417,463,o),
(469,489,o),
(521,489,cs),
(569,489,o),
(607,471,o),
(635,444,c),
(662,416,o),
(677,379,o),
(677,342,cs),
(677,330,o),
(675,314,o),
(672,302,c),
(644,157,o),
(564,76,o),
(452,76,cs)
);
}
);
width = 1005;
}
);
unicode = 64;
},
{
glyphname = A;
layers = (
{
layerId = "DCD6D63C-8715-4521-BEFF-523A5C998C9C";
shapes = (
{
closed = 1;
nodes = (
(196,0,l),
(353,373,ls),
(365,401,o),
(374,422,o),
(383,446,cs),
(392,469,o),
(400,493,o),
(409,522,c),
(401,522,l),
(405,486,o),
(408,462,o),
(412,440,cs),
(415,418,o),
(419,397,o),
(424,372,cs),
(500,0,l),
(709,0,l),
(525,700,l),
(323,700,l),
(-29,0,l)
);
},
{
closed = 1;
nodes = (
(574,104,l),
(536,251,l),
(211,251,l),
(129,104,l)
);
}
);
width = 748;
},
{
layerId = "222DC4F3-8650-441F-8C70-2115B1B3D57E";
shapes = (
{
closed = 1;
nodes = (
(108,0,l),
(316,418,ls),
(327,441,o),
(344,478,o),
(361,515,cs),
(378,552,o),
(395,590,o),
(406,613,c),
(382,612,l),
(385,601,o),
(394,559,o),
(403,516,cs),
(412,473,o),
(422,431,o),
(423,422,c),
(530,0,l),
(641,0,l),
(460,700,l),
(352,700,l),
(-9,0,l)
);
},
{
closed = 1;
nodes = (
(539,174,l),
(505,278,l),
(187,278,l),
(135,174,l)
);
}
);
width = 700;
},
{
layerId = "731B92CD-F71D-43F6-9B71-33E028774484";
shapes = (
{
closed = 1;
nodes = (
(34,0,l),
(287,503,ls),
(294,516,o),
(313,553,o),
(333,591,cs),
(353,629,o),
(373,670,o),
(385,694,c),
(372,695,l),
(383,658,o),
(394,614,o),
(403,578,cs),
(412,542,o),
(419,513,o),
(422,504,c),
(554,0,l),
(578,0,l),
(393,700,l),
(367,700,l),
(7,0,l)
);
},
{
closed = 1;
nodes = (
(509,230,l),
(504,251,l),
(147,251,l),
(136,230,l)
);
}
);
width = 651;
}
);
leftKerningGroup = A2;
rightKerningGroup = A;
unicode = 65;
},
{
glyphname = B;
layers = (
{
layerId = "DCD6D63C-8715-4521-BEFF-523A5C998C9C";
shapes = (
{
closed = 1;
nodes = (
(384,0,ls),
(467,0,o),
(540,20,o),
(592,60,cs),
(644,99,o),
(676,158,o),
(676,234,cs),
(676,314,o),
(627,371,o),
(532,394,c),
(523,369,l),
(570,376,o),
(607,394,o),
(634,422,cs),
(661,450,o),
(676,489,o),
(676,537,cs),
(676,636,o),
(597,700,o),
(462,700,cs),
(125,700,l),
(37,0,l)
);
},
{
closed = 1;
nodes = (
(287,282,l),
(404,282,ls),
(443,282,o),
(462,262,o),
(462,233,cs),
(462,214,o),
(457,199,o),
(445,188,cs),
(433,176,o),
(415,170,o),
(391,170,cs),
(273,170,l)
);
},
{
closed = 1;
nodes = (
(319,530,l),
(402,530,ls),
(445,530,o),
(463,510,o),
(463,483,cs),
(463,464,o),
(456,451,o),
(444,441,cs),
(432,431,o),
(414,426,o),
(391,426,cs),
(306,426,l)
);
}
);
width = 707;
},
{
layerId = "222DC4F3-8650-441F-8C70-2115B1B3D57E";
shapes = (
{
closed = 1;
nodes = (
(352,0,ls),
(431,0,o),
(496,20,o),
(542,59,cs),
(588,98,o),
(613,153,o),
(613,224,cs),
(613,312,o),
(558,373,o),
(462,392,c),
(489,365,l),
(532,380,o),
(564,404,o),
(585,433,cs),
(605,462,o),
(615,497,o),
(615,534,cs),
(615,639,o),
(547,700,o),
(426,700,cs),
(140,700,l),
(52,0,l)
);
},
{
closed = 1;
nodes = (
(198,306,l),
(384,306,ls),
(457,306,o),
(503,273,o),
(503,218,cs),
(503,182,o),
(489,153,o),
(463,134,cs),
(437,114,o),
(402,104,o),
(359,104,cs),
(173,104,l)
);
},
{
closed = 1;
nodes = (
(235,596,l),
(400,596,ls),
(467,596,o),
(505,566,o),
(505,513,cs),
(505,484,o),
(491,458,o),
(468,440,cs),
(444,422,o),
(412,410,o),
(377,410,cs),
(212,410,l)
);
}
);
width = 660;
},
{
layerId = "731B92CD-F71D-43F6-9B71-33E028774484";
shapes = (
{
closed = 1;
nodes = (
(332,0,ls),
(408,0,o),
(471,20,o),
(515,57,cs),
(559,93,o),
(584,147,o),
(584,212,cs),
(584,307,o),
(519,366,o),
(402,374,c),
(406,361,l),
(459,369,o),
(506,393,o),
(539,427,cs),
(571,461,o),
(591,505,o),
(591,553,cs),
(591,645,o),
(528,700,o),
(424,700,cs),
(161,700,l),
(72,0,l)
);
},
{
closed = 1;
nodes = (
(139,356,l),
(382,356,ls),
(497,356,o),
(561,301,o),
(561,209,cs),
(561,150,o),
(538,103,o),
(498,71,cs),
(458,39,o),
(401,21,o),
(333,21,cs),
(97,21,l)
);
},
{
closed = 1;
nodes = (
(180,679,l),
(422,679,ls),
(514,679,o),
(569,634,o),
(569,551,cs),
(569,504,o),
(549,461,o),
(515,429,cs),
(481,397,o),
(431,377,o),
(374,377,cs),
(142,377,l)
);
}
);
width = 647;
}
);
leftKerningGroup = B;
unicode = 66;
},
{
glyphname = C;
layers = (
{
layerId = "DCD6D63C-8715-4521-BEFF-523A5C998C9C";
shapes = (
{
closed = 1;
nodes = (
(519,-18,o),
(617,16,o),
(681,75,c),
(583,241,l),
(543,206,o),
(492,184,o),
(440,184,cs),
(393,184,o),
(352,198,o),
(324,226,c),
(295,253,o),
(278,292,o),
(278,341,cs),
(278,393,o),
(296,438,o),
(328,470,cs),
(360,502,o),
(407,521,o),
(463,521,cs),
(520,521,o),
(565,500,o),
(600,463,c),
(733,617,l),
(664,686,o),
(573,718,o),
(473,718,cs),
(345,718,o),
(241,674,o),
(169,603,cs),
(96,532,o),
(56,433,o),
(56,325,cs),
(56,216,o),
(99,130,o),
(165,72,cs),
(231,14,o),
(319,-18,o),
(414,-18,cs)
);
}
);
width = 719;
},
{
layerId = "222DC4F3-8650-441F-8C70-2115B1B3D57E";
shapes = (
{
closed = 1;
nodes = (
(507,-15,o),
(603,22,o),
(662,77,c),
(604,162,l),
(553,117,o),
(485,90,o),
(414,90,cs),
(347,90,o),
(288,112,o),
(245,153,cs),
(201,193,o),
(175,252,o),
(175,324,cs),
(175,412,o),
(208,484,o),
(260,534,cs),
(311,584,o),
(380,611,o),
(453,611,cs),
(528,611,o),
(592,581,o),
(636,528,c),
(716,602,l),
(652,677,o),
(560,715,o),
(457,715,cs),
(353,715,o),
(256,677,o),
(184,609,cs),
(112,541,o),
(66,443,o),
(66,320,cs),
(66,211,o),
(105,127,o),
(166,71,cs),
(226,14,o),
(311,-15,o),
(403,-15,cs)
);
}
);
width = 717;
},
{
layerId = "731B92CD-F71D-43F6-9B71-33E028774484";
shapes = (
{
closed = 1;
nodes = (
(485,-10,o),
(574,23,o),
(645,83,c),
(632,99,l),
(565,42,o),
(480,11,o),
(395,11,cs),
(314,11,o),
(240,40,o),
(188,93,cs),
(135,145,o),
(102,221,o),
(102,314,cs),
(102,429,o),
(143,523,o),
(208,588,cs),
(272,652,o),
(362,689,o),
(458,689,cs),
(553,689,o),
(635,654,o),
(690,583,c),
(706,597,l),
(646,672,o),
(558,710,o),
(458,710,cs),
(354,710,o),
(260,671,o),
(192,602,cs),
(123,533,o),
(80,435,o),
(80,315,cs),
(80,215,o),
(114,133,o),
(171,77,cs),
(227,21,o),
(306,-10,o),
(394,-10,cs)
);
}
);
width = 721;
}
);
leftKerningGroup = C2;
rightKerningGroup = C;
unicode = 67;
},
{
glyphname = D;
layers = (
{
layerId = "DCD6D63C-8715-4521-BEFF-523A5C998C9C";
shapes = (
{
closed = 1;
nodes = (
(344,0,ls),
(479,0,o),
(581,46,o),
(649,117,cs),
(717,188,o),
(752,284,o),
(752,381,cs),
(752,474,o),
(719,554,o),
(660,611,cs),
(601,667,o),
(517,700,o),
(417,700,cs),
(125,700,l),
(37,0,l)
);
},
{
closed = 1;
nodes = (
(325,565,l),
(278,512,l),
(398,512,ls),
(438,512,o),
(471,496,o),
(495,471,cs),
(518,446,o),
(532,409,o),
(532,368,cs),
(532,319,o),
(515,274,o),
(485,242,cs),
(455,209,o),
(413,188,o),
(364,188,cs),
(239,188,l),
(269,133,l)
);
}
);
width = 785;
},
{
layerId = "222DC4F3-8650-441F-8C70-2115B1B3D57E";
shapes = (
{
closed = 1;
nodes = (
(339,0,ls),
(459,0,o),
(554,45,o),
(619,117,cs),
(683,188,o),
(717,284,o),
(717,387,cs),
(717,478,o),
(689,556,o),
(637,612,cs),
(585,667,o),
(509,700,o),
(410,700,cs),
(140,700,l),
(52,0,l)
);
},
{
closed = 1;
nodes = (
(236,605,l),
(229,596,l),
(399,596,ls),
(466,596,o),
(517,575,o),
(553,539,c),
(588,502,o),
(607,449,o),
(607,382,cs),
(607,309,o),
(585,240,o),
(541,189,cs),
(497,137,o),
(431,104,o),
(343,104,cs),
(170,104,l),
(172,93,l)
);
}
);
width = 759;
},
{
layerId = "731B92CD-F71D-43F6-9B71-33E028774484";
shapes = (
{
closed = 1;
nodes = (
(318,0,ls),
(435,0,o),
(529,50,o),
(593,123,cs),
(657,195,o),
(691,292,o),
(691,385,cs),
(691,477,o),
(658,555,o),
(603,611,cs),
(548,667,o),
(472,700,o),
(387,700,cs),
(161,700,l),
(72,0,l)
);
},
{
closed = 1;
nodes = (
(181,689,l),
(169,679,l),
(383,679,ls),
(468,679,o),
(540,647,o),
(590,595,cs),
(640,542,o),
(668,469,o),
(668,386,cs),
(668,301,o),
(638,208,o),
(580,139,cs),
(522,70,o),
(435,21,o),
(322,21,cs),
(87,21,l),
(96,13,l)
);
}
);
width = 747;
}
);
leftKerningGroup = B;
rightKerningGroup = D;
unicode = 68;
},
{
glyphname = E;
layers = (
{
layerId = "DCD6D63C-8715-4521-BEFF-523A5C998C9C";
shapes = (
{
closed = 1;
nodes = (
(578,0,l),
(600,175,l),
(276,175,l),
(319,525,l),
(638,525,l),
(661,700,l),
(125,700,l),
(37,0,l)
);
},
{
closed = 1;
nodes = (
(554,272,l),
(575,436,l),
(195,436,l),
(174,272,l)
);
}
);
width = 652;
},
{
layerId = "222DC4F3-8650-441F-8C70-2115B1B3D57E";
shapes = (
{
closed = 1;
nodes = (
(504,0,l),
(518,104,l),
(173,104,l),
(235,596,l),
(574,596,l),
(587,700,l),
(140,700,l),
(52,0,l)
);
},
{
closed = 1;
nodes = (
(486,307,l),
(499,411,l),
(153,411,l),
(139,307,l)
);
}
);
width = 583;
},
{
layerId = "731B92CD-F71D-43F6-9B71-33E028774484";
shapes = (
{
closed = 1;
nodes = (
(467,0,l),
(470,21,l),
(97,21,l),
(180,679,l),
(548,679,l),
(551,700,l),
(161,700,l),
(72,0,l)
);
},
{
closed = 1;
nodes = (
(454,352,l),
(457,373,l),
(133,373,l),
(130,352,l)
);
}
);
width = 566;
}
);
leftKerningGroup = B;
rightKerningGroup = E;
unicode = 69;
},
{
glyphname = F;
layers = (
{
layerId = "DCD6D63C-8715-4521-BEFF-523A5C998C9C";
shapes = (
{
closed = 1;
nodes = (
(253,0,l),
(341,700,l),
(125,700,l),
(37,0,l)
);
},
{
closed = 1;
nodes = (
(512,238,l),
(534,408,l),
(192,408,l),
(171,238,l)
);
},
{
closed = 1;
nodes = (
(603,508,l),
(627,700,l),
(228,700,l),
(204,508,l)
);
}
);
width = 598;
},
{
layerId = "222DC4F3-8650-441F-8C70-2115B1B3D57E";
shapes = (
{
closed = 1;
nodes = (
(159,0,l),
(249,700,l),
(141,700,l),
(51,0,l)
);
},
{
closed = 1;
nodes = (
(474,298,l),
(488,402,l),
(151,402,l),
(137,298,l)
);
},
{
closed = 1;
nodes = (
(569,596,l),
(583,700,l),
(189,700,l),
(175,596,l)
);
}
);
width = 562;
},
{
layerId = "731B92CD-F71D-43F6-9B71-33E028774484";
shapes = (
{
closed = 1;
nodes = (
(94,0,l),
(183,700,l),
(161,700,l),
(72,0,l)
);
},
{
closed = 1;
nodes = (
(449,342,l),
(452,363,l),
(130,363,l),
(127,342,l)
);
},
{
closed = 1;
nodes = (
(549,679,l),
(552,700,l),
(174,700,l),
(171,679,l)
);
}
);
width = 546;
}
);
leftKerningGroup = B;
rightKerningGroup = F;
unicode = 70;
},
{
glyphname = G;
layers = (
{
layerId = "DCD6D63C-8715-4521-BEFF-523A5C998C9C";
shapes = (
{
closed = 1;
nodes = (
(505,-18,o),
(587,12,o),
(650,66,cs),
(713,120,o),
(755,197,o),
(767,290,cs),
(770,309,o),
(772,332,o),
(775,356,cs),
(778,379,o),
(780,400,o),
(780,415,c),
(431,415,l),
(412,265,l),
(594,265,l),
(578,312,l),
(574,271,l),
(570,240,o),
(552,216,o),
(526,200,cs),
(500,183,o),
(466,174,o),
(431,174,cs),
(383,174,o),
(344,190,o),
(317,218,cs),
(290,246,o),
(275,286,o),
(275,334,cs),
(275,385,o),
(291,432,o),
(324,468,cs),
(356,503,o),
(406,526,o),
(471,526,cs),
(536,526,o),
(587,504,o),
(624,465,c),
(766,601,l),
(698,673,o),
(604,718,o),
(475,718,cs),
(346,718,o),
(241,676,o),
(169,606,cs),
(97,536,o),
(57,439,o),
(57,328,cs),
(57,227,o),
(92,139,o),
(154,79,cs),
(216,18,o),
(305,-18,o),
(413,-18,cs)
);
}
);
width = 800;
},
{
layerId = "222DC4F3-8650-441F-8C70-2115B1B3D57E";
shapes = (
{
closed = 1;
nodes = (
(503,-15,o),
(585,14,o),
(648,70,cs),
(711,125,o),
(756,205,o),
(769,306,c),
(772,318,o),
(772,332,o),
(773,346,c),
(773,360,o),
(773,372,o),
(773,384,c),
(437,384,l),
(423,280,l),
(658,280,l),
(649,301,l),
(646,269,l),
(638,212,o),
(608,167,o),
(567,136,cs),
(526,104,o),
(473,88,o),
(417,88,cs),
(342,88,o),
(281,113,o),
(239,154,cs),
(197,195,o),
(173,252,o),
(173,317,cs),
(173,393,o),
(201,466,o),
(253,521,cs),
(304,576,o),
(380,612,o),
(473,612,cs),
(556,612,o),
(619,584,o),
(675,525,c),
(752,596,l),
(697,667,o),
(604,715,o),
(480,715,cs),
(356,715,o),
(252,668,o),
(179,595,cs),
(106,522,o),
(63,421,o),
(63,313,cs),
(63,222,o),
(96,140,o),
(157,81,cs),
(217,21,o),
(305,-15,o),
(414,-15,cs)
);
}
);
width = 803;
},
{
layerId = "731B92CD-F71D-43F6-9B71-33E028774484";
shapes = (
{
closed = 1;
nodes = (
(486,-10,o),
(567,18,o),
(630,74,cs),
(693,130,o),
(735,215,o),
(746,328,c),
(746,332,o),
(747,336,o),
(748,341,cs),
(749,346,o),
(750,351,o),
(750,358,c),
(437,358,l),
(435,337,l),
(733,337,l),
(727,341,l),
(725,321,ls),
(716,222,o),
(677,145,o),
(618,93,cs),
(559,40,o),
(481,12,o),
(396,12,cs),
(308,12,o),
(229,46,o),
(175,107,cs),
(121,167,o),
(92,257,o),
(108,366,c),
(119,457,o),
(157,538,o),
(217,596,cs),
(277,654,o),
(360,688,o),
(459,688,cs),
(563,688,o),
(643,645,o),
(694,574,c),
(712,588,l),
(656,663,o),
(574,710,o),
(461,710,cs),
(354,710,o),
(267,674,o),
(203,614,cs),
(139,553,o),
(99,468,o),
(87,369,c),
(70,252,o),
(100,156,o),
(158,91,cs),
(216,26,o),
(300,-10,o),
(395,-10,cs)
);
}
);
width = 795;
}
);
leftKerningGroup = C2;
rightKerningGroup = G;
unicode = 71;
},
{
glyphname = H;
layers = (
{
layerId = "DCD6D63C-8715-4521-BEFF-523A5C998C9C";
shapes = (
{
closed = 1;
nodes = (
(669,0,l),
(757,700,l),
(541,700,l),
(453,0,l)
);
},
{
closed = 1;
nodes = (
(253,0,l),
(341,700,l),
(125,700,l),
(37,0,l)
);
},
{
closed = 1;
nodes = (
(610,265,l),
(634,453,l),
(177,453,l),
(152,265,l)
);
}
);
width = 773;
},
{
layerId = "222DC4F3-8650-441F-8C70-2115B1B3D57E";
shapes = (
{
closed = 1;
nodes = (
(616,0,l),
(706,700,l),
(598,700,l),
(508,0,l)
);
},
{
closed = 1;
nodes = (
(159,0,l),
(249,700,l),
(141,700,l),
(51,0,l)
);
},
{
closed = 1;
nodes = (
(595,307,l),
(609,411,l),
(151,411,l),
(137,307,l)
);
}
);
width = 735;
},
{
layerId = "731B92CD-F71D-43F6-9B71-33E028774484";
shapes = (
{
closed = 1;
nodes = (
(583,0,l),
(672,700,l),
(650,700,l),
(561,0,l)
);
},
{
closed = 1;
nodes = (
(94,0,l),
(183,700,l),
(161,700,l),
(72,0,l)
);
},
{
closed = 1;
nodes = (
(617,349,l),
(620,370,l),
(131,370,l),
(128,349,l)
);
}
);
width = 721;
}
);
leftKerningGroup = B;
unicode = 72;
},
{
glyphname = K;
layers = (
{
layerId = "DCD6D63C-8715-4521-BEFF-523A5C998C9C";
shapes = (
{
closed = 1;
nodes = (
(784,700,l),
(529,700,l),
(163,314,l),
(232,130,l)
);
},
{
closed = 1;
nodes = (
(253,0,l),
(341,700,l),
(125,700,l),
(37,0,l)
);
},
{
closed = 1;
nodes = (
(720,0,l),
(455,458,l),
(286,331,l),
(474,0,l)
);
}
);
width = 739;
},
{
layerId = "222DC4F3-8650-441F-8C70-2115B1B3D57E";
shapes = (
{
closed = 1;
nodes = (
(733,700,l),
(584,700,l),
(178,342,l),
(168,203,l)
);
},
{
closed = 1;
nodes = (
(160,0,l),
(248,700,l),
(140,700,l),
(52,0,l)
);
},
{
closed = 1;
nodes = (
(651,0,l),
(376,426,l),
(292,358,l),
(523,0,l)
);
}
);
width = 699;
},
{
layerId = "731B92CD-F71D-43F6-9B71-33E028774484";
shapes = (
{
closed = 1;
nodes = (
(649,700,l),
(618,700,l),
(118,268,l),
(112,235,l)
);
},
{
closed = 1;
nodes = (
(94,0,l),
(183,700,l),
(161,700,l),
(72,0,l)
);
},
{
closed = 1;
nodes = (
(578,0,l),
(313,419,l),
(295,404,l),
(551,0,l)
);
}
);
width = 646;
}
);
leftKerningGroup = B;
rightKerningGroup = K;
unicode = 75;
},
{
glyphname = L;
layers = (
{
layerId = "DCD6D63C-8715-4521-BEFF-523A5C998C9C";
shapes = (
{
closed = 1;
nodes = (
(552,0,l),
(576,192,l),
(276,192,l),
(341,700,l),
(125,700,l),
(37,0,l)
);
}
);
width = 611;
},
{
layerId = "222DC4F3-8650-441F-8C70-2115B1B3D57E";
shapes = (
{
closed = 1;
nodes = (
(488,0,l),
(501,104,l),
(173,104,l),
(248,700,l),
(140,700,l),
(52,0,l)
);
}
);
width = 561;
},
{
layerId = "731B92CD-F71D-43F6-9B71-33E028774484";
shapes = (
{
closed = 1;
nodes = (
(445,0,l),
(448,21,l),
(97,21,l),
(183,700,l),
(161,700,l),
(72,0,l)
);
}
);
width = 538;
}
);
leftKerningGroup = B;
rightKerningGroup = L;
unicode = 76;
},
{
glyphname = M;
layers = (
{
layerId = "DCD6D63C-8715-4521-BEFF-523A5C998C9C";
shapes = (
{
closed = 1;
nodes = (
(247,0,l),
(268,167,ls),
(277,232,o),
(282,288,o),
(285,335,cs),
(288,382,o),
(288,427,o),
(286,472,c),
(249,429,l),
(388,147,l),
(457,147,l),
(658,409,l),
(637,472,l),
(612,377,o),
(594,287,o),
(579,167,cs),
(558,0,l),
(774,0,l),
(862,700,l),
(669,700,l),
(360,286,l),
(509,285,l),
(309,700,l),
(125,700,l),
(37,0,l)
);
}
);
width = 878;
},
{
layerId = "222DC4F3-8650-441F-8C70-2115B1B3D57E";
shapes = (
{
closed = 1;
nodes = (
(160,0,l),
(196,287,ls),
(204,352,o),
(210,408,o),
(213,455,cs),
(216,502,o),
(216,547,o),
(214,592,c),
(198,559,l),
(383,201,l),
(445,201,l),
(719,562,l),
(706,592,l),
(679,497,o),
(663,407,o),
(648,287,cs),
(612,0,l),
(720,0,l),
(808,700,l),
(703,700,l),
(396,286,l),
(450,285,l),
(238,700,l),
(140,700,l),
(52,0,l)
);
}
);
width = 838;
},
{
layerId = "731B92CD-F71D-43F6-9B71-33E028774484";
shapes = (
{
closed = 1;
nodes = (
(94,0,l),
(163,545,ls),
(166,570,o),
(169,594,o),
(172,617,cs),
(174,640,o),
(176,662,o),
(178,684,c),
(167,672,l),
(400,204,l),
(414,204,l),
(772,679,l),
(758,684,l),
(750,637,o),
(744,590,o),
(737,543,c),
(668,0,l),
(690,0,l),
(779,700,l),
(760,700,l),
(408,232,l),
(412,232,l),
(177,700,l),
(161,700,l),
(72,0,l)
);
}
);
width = 828;
}
);
leftKerningGroup = B;
unicode = 77;
},
{
glyphname = N;
layers = (
{
layerId = "DCD6D63C-8715-4521-BEFF-523A5C998C9C";
shapes = (
{
closed = 1;
nodes = (
(253,0,l),
(276,191,ls),
(284,252,o),
(289,291,o),
(291,329,cs),
(293,367,o),
(292,405,o),
(292,466,c),
(225,490,l),
(526,0,l),
(709,0,l),
(797,700,l),
(581,700,l),
(565,570,ls),
(557,503,o),
(553,462,o),
(550,420,cs),
(547,378,o),
(547,336,o),
(547,269,c),
(593,255,l),
(320,700,l),
(125,700,l),
(37,0,l)
);
}
);
width = 813;
},
{
layerId = "222DC4F3-8650-441F-8C70-2115B1B3D57E";
shapes = (
{
closed = 1;
nodes = (
(160,0,l),
(196,291,l),
(199,306,o),
(199,324,o),
(202,364,cs),
(205,404,o),
(208,465,o),
(212,566,c),
(199,552,l),
(541,0,l),
(634,0,l),
(722,700,l),
(614,700,l),
(585,470,ls),
(576,397,o),
(569,329,o),
(565,270,cs),
(561,211,o),
(559,159,o),
(560,118,c),
(578,127,l),
(229,700,l),
(140,700,l),
(52,0,l)
);
}
);
width = 752;
},
{
layerId = "731B92CD-F71D-43F6-9B71-33E028774484";
shapes = (
{
closed = 1;
nodes = (
(94,0,l),
(154,470,ls),
(158,506,o),
(164,552,o),
(169,593,cs),
(173,634,o),
(178,670,o),
(179,686,c),
(164,686,l),
(563,0,l),
(582,0,l),
(671,700,l),
(649,700,l),
(591,241,ls),
(582,166,o),
(576,121,o),
(573,91,cs),
(569,61,o),
(567,45,o),
(567,30,c),
(571,30,l),
(181,700,l),
(161,700,l),
(72,0,l)
);
}
);
width = 720;
}
);
leftKerningGroup = B;
unicode = 78;
},
{
glyphname = O;
layers = (
{
layerId = "DCD6D63C-8715-4521-BEFF-523A5C998C9C";
shapes = (
{
closed = 1;
nodes = (
(522,-18,o),
(623,24,o),
(695,96,cs),
(767,167,o),
(809,265,o),
(809,377,cs),
(809,476,o),
(773,561,o),
(712,622,cs),
(651,682,o),
(564,718,o),
(461,718,cs),
(345,718,o),
(243,676,o),
(171,605,cs),
(98,533,o),
(55,435,o),
(55,323,cs),
(55,224,o),
(91,139,o),
(153,79,cs),
(215,18,o),
(302,-18,o),
(405,-18,cs)
);
},
{
closed = 1;
nodes = (
(377,182,o),
(342,197,o),
(316,225,cs),
(290,252,o),
(275,290,o),
(275,334,cs),
(275,381,o),
(291,427,o),
(320,461,cs),
(349,495,o),
(393,518,o),
(446,518,cs),
(489,518,o),
(524,503,o),
(549,476,cs),
(574,448,o),
(589,410,o),
(589,366,cs),
(589,322,o),
(574,276,o),
(545,241,cs),
(516,205,o),
(475,182,o),
(420,182,cs)
);
}
);
width = 844;
},
{
layerId = "222DC4F3-8650-441F-8C70-2115B1B3D57E";
shapes = (
{
closed = 1;
nodes = (
(524,-15,o),
(621,31,o),
(689,103,cs),
(757,175,o),
(796,274,o),
(796,379,cs),
(796,472,o),
(764,556,o),
(705,617,cs),
(646,677,o),
(561,715,o),
(454,715,cs),
(337,715,o),
(240,670,o),
(172,598,cs),
(104,526,o),
(65,428,o),
(65,321,cs),
(65,228,o),
(97,143,o),
(157,83,cs),
(216,22,o),
(302,-15,o),
(407,-15,cs)
);
},
{
closed = 1;
nodes = (
(339,87,o),
(280,112,o),
(240,153,cs),
(199,194,o),
(175,253,o),
(175,322,cs),
(175,397,o),
(200,468,o),
(247,523,cs),
(294,578,o),
(364,613,o),
(452,613,cs),
(523,613,o),
(581,588,o),
(622,547,cs),
(663,506,o),
(686,447,o),
(686,378,cs),
(686,305,o),
(662,232,o),
(615,177,cs),
(567,122,o),
(498,87,o),
(410,87,cs)
);
}
);
width = 840;
},
{
layerId = "731B92CD-F71D-43F6-9B71-33E028774484";
shapes = (
{
closed = 1;
nodes = (
(506,-10,o),
(602,37,o),
(668,110,cs),
(734,182,o),
(772,281,o),
(772,386,cs),
(772,485,o),
(737,565,o),
(681,622,cs),
(624,678,o),
(546,710,o),
(458,710,cs),
(345,710,o),
(250,663,o),
(183,591,cs),
(116,518,o),
(79,418,o),
(79,313,cs),
(79,216,o),
(114,134,o),
(171,78,cs),
(227,22,o),
(305,-10,o),
(393,-10,cs)
);
},
{
closed = 1;
nodes = (
(314,10,o),
(241,40,o),
(188,93,cs),
(135,145,o),
(102,222,o),
(102,314,cs),
(102,417,o),
(140,511,o),
(203,579,cs),
(266,647,o),
(355,690,o),
(456,690,cs),
(537,690,o),
(611,659,o),
(664,607,cs),
(716,554,o),
(749,477,o),
(749,385,cs),
(749,282,o),
(712,188,o),
(649,120,cs),
(585,52,o),
(498,10,o),
(395,10,cs)
);
}
);
width = 828;
}
);
leftKerningGroup = C2;
rightKerningGroup = D;
unicode = 79;
},
{
glyphname = P;
layers = (
{
layerId = "DCD6D63C-8715-4521-BEFF-523A5C998C9C";
shapes = (
{
closed = 1;
nodes = (
(253,0,l),
(278,199,l),
(390,199,ls),
(471,199,o),
(541,229,o),
(592,279,cs),
(643,329,o),
(673,399,o),
(673,480,cs),
(673,544,o),
(650,598,o),
(610,638,cs),
(570,677,o),
(512,700,o),
(443,700,cs),
(125,700,l),
(37,0,l)
);
},
{
closed = 1;
nodes = (
(318,516,l),
(393,516,ls),
(428,516,o),
(453,498,o),
(453,459,cs),
(453,438,o),
(445,420,o),
(433,406,cs),
(420,392,o),
(400,383,o),
(376,383,cs),
(301,383,l)
);
}
);
width = 668;
},
{
layerId = "222DC4F3-8650-441F-8C70-2115B1B3D57E";
shapes = (
{
closed = 1;
nodes = (
(160,0,l),
(193,268,l),
(364,268,ls),
(439,268,o),
(499,297,o),
(541,341,cs),
(583,385,o),
(605,443,o),
(605,503,cs),
(605,562,o),
(583,611,o),
(547,646,cs),
(511,681,o),
(459,700,o),
(399,700,cs),
(140,700,l),
(52,0,l)
);
},
{
closed = 1;
nodes = (
(235,596,l),
(391,596,ls),
(452,596,o),
(495,556,o),
(495,500,cs),
(495,467,o),
(482,435,o),
(462,411,cs),
(441,387,o),
(410,372,o),
(374,372,cs),
(207,372,l)
);
}
);
width = 606;
},
{
layerId = "731B92CD-F71D-43F6-9B71-33E028774484";
shapes = (
{
closed = 1;
nodes = (
(94,0,l),
(131,291,l),
(352,291,ls),
(420,291,o),
(476,319,o),
(514,363,cs),
(552,407,o),
(573,466,o),
(573,530,cs),
(573,581,o),
(556,624,o),
(527,654,cs),
(498,684,o),
(454,700,o),
(401,700,cs),
(161,700,l),
(72,0,l)
);
},
{
closed = 1;
nodes = (
(180,679,l),
(402,679,ls),
(495,679,o),
(550,619,o),
(550,531,cs),
(550,479,o),
(534,423,o),
(502,382,cs),
(470,341,o),
(421,312,o),
(356,312,cs),
(134,312,l)
);
}
);
width = 585;
}
);
leftKerningGroup = B;
unicode = 80;
},
{
glyphname = Q;
layers = (
{
layerId = "05C5FD5F-2598-4577-8A50-995012D205DC";
name = "#instance";
shapes = (
{
closed = 1;
nodes = (
(506,-10,o),
(602,37,o),
(668,110,cs),
(734,182,o),
(772,281,o),
(772,386,cs),
(772,485,o),
(737,565,o),
(681,622,cs),
(624,678,o),
(546,710,o),
(458,710,cs),
(345,710,o),
(250,663,o),
(183,591,cs),
(116,518,o),
(79,418,o),
(79,313,cs),
(79,216,o),
(114,134,o),
(171,78,cs),
(227,22,o),
(305,-10,o),
(393,-10,cs)
);
},
{
closed = 1;
nodes = (
(314,10,o),
(241,40,o),
(188,93,cs),
(135,145,o),
(102,222,o),
(102,314,cs),
(102,417,o),
(140,511,o),
(203,579,cs),
(266,647,o),
(355,690,o),
(456,690,cs),
(537,690,o),
(611,659,o),
(664,607,cs),
(716,554,o),
(749,477,o),
(749,385,cs),
(749,282,o),
(712,188,o),
(649,120,cs),
(585,52,o),
(498,10,o),
(395,10,cs)
);
},
{
closed = 1;
nodes = (
(393,-10,l),
(421,-10,o),
(460,-9,o),
(500,-5,cs),
(540,-1,o),
(580,0,o),
(608,0,cs),
(777,0,l),
(780,22,l),
(611,22,ls),
(549,22,o),
(426,6,o),
(394,-2,c)
);
}
);
width = 810;
},
{
layerId = "DCD6D63C-8715-4521-BEFF-523A5C998C9C";
shapes = (
{
closed = 1;
nodes = (
(522,-18,o),
(623,24,o),
(695,96,cs),
(767,167,o),
(809,265,o),
(809,377,cs),
(809,476,o),
(773,561,o),
(712,622,cs),
(651,682,o),
(564,718,o),
(461,718,cs),
(345,718,o),
(243,676,o),
(171,605,cs),
(98,533,o),
(55,435,o),
(55,323,cs),
(55,224,o),
(91,139,o),
(153,79,cs),
(215,18,o),
(302,-18,o),
(405,-18,cs)
);
},
{
closed = 1;
nodes = (
(377,182,o),
(342,197,o),
(316,225,cs),
(290,252,o),
(275,290,o),
(275,334,cs),
(275,381,o),
(291,427,o),
(320,461,cs),
(349,495,o),
(393,518,o),
(446,518,cs),
(489,518,o),
(524,503,o),
(549,476,cs),
(574,448,o),
(589,410,o),
(589,366,cs),
(589,322,o),
(574,276,o),
(545,241,cs),
(516,205,o),
(475,182,o),
(420,182,cs)
);
},
{
closed = 1;
nodes = (
(405,-18,l),
(436,-18,o),
(481,-17,o),
(526,-13,cs),
(572,-9,o),
(617,-8,o),
(650,-8,cs),
(832,-8,l),
(854,167,l),
(821,167,ls),
(699,167,o),
(509,131,o),
(420,102,c)
);
}
);
width = 856;
},
{
layerId = "222DC4F3-8650-441F-8C70-2115B1B3D57E";
shapes = (
{
closed = 1;
nodes = (
(524,-15,o),
(621,31,o),
(689,103,cs),
(757,175,o),
(796,274,o),
(796,379,cs),
(796,472,o),
(764,556,o),
(705,617,cs),
(646,677,o),
(561,715,o),
(454,715,cs),
(337,715,o),
(240,670,o),
(172,598,cs),
(104,526,o),
(65,428,o),
(65,321,cs),
(65,228,o),
(97,143,o),
(157,83,cs),
(216,22,o),
(302,-15,o),
(407,-15,cs)
);
},
{
closed = 1;
nodes = (
(339,87,o),
(280,112,o),
(240,153,cs),
(199,194,o),
(175,253,o),
(175,322,cs),
(175,397,o),
(200,468,o),
(247,523,cs),
(294,578,o),
(364,613,o),
(452,613,cs),
(523,613,o),
(581,588,o),
(622,547,cs),
(663,506,o),
(686,447,o),
(686,378,cs),
(686,305,o),
(662,232,o),
(615,177,cs),
(567,122,o),
(498,87,o),
(410,87,cs)
);
},
{
closed = 1;
nodes = (
(407,-15,l),
(445,-15,o),
(483,-9,o),
(522,-5,cs),
(559,-1,o),
(597,0,o),
(635,0,cs),
(810,0,l),
(824,107,l),
(745,107,ls),
(627,107,o),
(495,78,o),
(414,43,c)
);
}
);
width = 852;
},
{
layerId = "731B92CD-F71D-43F6-9B71-33E028774484";
shapes = (
{
closed = 1;
nodes = (
(506,-10,o),
(602,37,o),
(668,110,cs),
(734,182,o),
(772,281,o),
(772,386,cs),
(772,485,o),
(737,565,o),
(681,622,cs),
(624,678,o),
(546,710,o),
(458,710,cs),
(345,710,o),
(250,663,o),
(183,591,cs),
(116,518,o),
(79,418,o),
(79,313,cs),
(79,216,o),
(114,134,o),
(171,78,cs),
(227,22,o),
(305,-10,o),
(393,-10,cs)
);
},
{
closed = 1;
nodes = (
(314,10,o),
(241,40,o),
(188,93,cs),
(135,145,o),
(102,222,o),
(102,314,cs),
(102,417,o),
(140,511,o),
(203,579,cs),
(266,647,o),
(355,690,o),
(456,690,cs),
(537,690,o),
(611,659,o),
(664,607,cs),
(716,554,o),
(749,477,o),
(749,385,cs),
(749,282,o),
(712,188,o),
(649,120,cs),
(585,52,o),
(498,10,o),
(395,10,cs)
);
},
{
closed = 1;
nodes = (
(393,-10,l),
(421,-10,o),
(460,-9,o),
(500,-5,cs),
(540,-1,o),
(580,0,o),
(608,0,cs),
(777,0,l),
(780,22,l),
(611,22,ls),
(549,22,o),
(426,6,o),
(394,-2,c)
);
}
);
width = 810;
}
);
leftKerningGroup = C2;
rightKerningGroup = D;
unicode = 81;
},
{
glyphname = R;
layers = (
{
layerId = "DCD6D63C-8715-4521-BEFF-523A5C998C9C";
shapes = (
{
closed = 1;
nodes = (
(252,0,l),
(281,223,l),
(390,223,ls),
(463,223,o),
(529,247,o),
(578,288,cs),
(627,329,o),
(660,389,o),
(668,461,cs),
(676,528,o),
(658,587,o),
(619,631,cs),
(579,674,o),
(518,700,o),
(442,700,cs),
(125,700,l),
(37,0,l)
);
},
{
closed = 1;
nodes = (
(658,0,l),
(494,341,l),
(278,316,l),
(423,0,l)
);
},
{
closed = 1;
nodes = (
(319,522,l),
(388,522,ls),
(439,522,o),
(461,493,o),
(456,453,cs),
(453,430,o),
(445,413,o),
(431,401,cs),
(417,389,o),
(398,383,o),
(374,383,cs),
(301,383,l)
);
}
);
width = 702;
},
{
layerId = "222DC4F3-8650-441F-8C70-2115B1B3D57E";
shapes = (
{
closed = 1;
nodes = (
(160,0,l),
(193,267,l),
(347,267,ls),
(414,267,o),
(477,293,o),
(524,335,cs),
(571,377,o),
(600,436,o),
(600,504,cs),
(600,560,o),
(579,608,o),
(543,644,c),
(506,679,o),
(453,700,o),
(390,700,cs),
(140,700,l),
(52,0,l)
);
},
{
closed = 1;
nodes = (
(580,-1,l),
(419,341,l),
(311,316,l),
(454,0,l)
);
},
{
closed = 1;
nodes = (
(235,596,l),
(377,596,ls),
(449,596,o),
(490,558,o),
(490,498,cs),
(490,463,o),
(479,432,o),
(456,409,cs),
(433,385,o),
(398,371,o),
(351,371,cs),
(206,371,l)
);
}
);
width = 634;
},
{
layerId = "731B92CD-F71D-43F6-9B71-33E028774484";
shapes = (
{
closed = 1;
nodes = (
(94,0,l),
(131,291,l),
(354,291,ls),
(422,291,o),
(478,320,o),
(516,365,cs),
(554,410,o),
(575,472,o),
(575,536,cs),
(575,584,o),
(560,626,o),
(532,655,c),
(503,683,o),
(461,700,o),
(406,700,cs),
(161,700,l),
(72,0,l)
);
},
{
closed = 1;
nodes = (
(531,0,l),
(390,305,l),
(369,298,l),
(507,0,l)
);
},
{
closed = 1;
nodes = (
(180,679,l),
(413,679,ls),
(502,679,o),
(552,620,o),
(552,536,cs),
(552,480,o),
(535,425,o),
(503,383,cs),
(470,341,o),
(421,312,o),
(358,312,cs),
(134,312,l)
);
}
);
width = 604;
}
);
leftKerningGroup = B;
rightKerningGroup = R;
unicode = 82;
},
{
glyphname = S;
layers = (
{
layerId = "DCD6D63C-8715-4521-BEFF-523A5C998C9C";
shapes = (
{
closed = 1;
nodes = (
(398,-18,o),
(473,4,o),
(529,48,cs),
(585,91,o),
(620,155,o),
(620,239,cs),
(620,288,o),
(608,328,o),
(577,361,cs),
(546,394,o),
(498,420,o),
(426,441,cs),
(374,456,o),
(340,466,o),
(320,475,cs),
(300,484,o),
(293,492,o),
(293,503,cs),
(293,515,o),
(300,526,o),
(313,532,cs),
(325,538,o),
(344,541,o),
(367,541,cs),
(423,541,o),
(485,518,o),
(534,482,c),
(673,621,l),
(636,653,o),
(592,677,o),
(544,693,cs),
(496,709,o),
(443,718,o),
(388,718,cs),
(305,718,o),
(226,697,o),
(169,657,cs),
(112,616,o),
(75,555,o),
(75,478,cs),
(75,425,o),
(92,382,o),
(125,350,cs),
(158,317,o),
(209,292,o),
(277,273,c),
(326,258,o),
(357,247,o),
(376,236,cs),
(395,224,o),
(401,214,o),
(401,202,cs),
(401,189,o),
(395,178,o),
(384,172,cs),
(373,166,o),
(356,162,o),
(335,162,cs),
(304,162,o),
(271,170,o),
(235,185,cs),
(199,200,o),
(166,228,o),
(136,269,c),
(-1,133,l),
(72,36,o),
(179,-18,o),
(318,-18,cs)
);
}
);
width = 650;
},
{
layerId = "222DC4F3-8650-441F-8C70-2115B1B3D57E";
shapes = (
{
closed = 1;
nodes = (
(376,-15,o),
(442,6,o),
(490,44,cs),
(538,82,o),
(568,138,o),
(568,207,cs),
(568,255,o),
(554,292,o),
(523,322,cs),
(492,352,o),
(444,375,o),
(373,398,cs),
(308,419,o),
(266,435,o),
(241,453,cs),
(216,471,o),
(207,489,o),
(207,517,cs),
(207,549,o),
(222,575,o),
(247,592,cs),
(272,609,o),
(308,618,o),
(349,618,cs),
(421,618,o),
(485,589,o),
(536,533,c),
(609,600,l),
(581,637,o),
(540,666,o),
(496,686,cs),
(452,705,o),
(403,715,o),
(356,715,cs),
(280,715,o),
(215,696,o),
(171,660,cs),
(126,624,o),
(99,570,o),
(99,499,cs),
(99,447,o),
(117,410,o),
(150,380,cs),
(183,350,o),
(233,328,o),
(294,308,c),
(361,288,o),
(402,272,o),
(426,254,cs),
(450,236,o),
(458,216,o),
(458,191,cs),
(458,158,o),
(442,131,o),
(415,112,cs),
(388,93,o),
(349,82,o),
(305,82,cs),
(262,82,o),
(223,90,o),
(187,107,cs),
(151,124,o),
(121,151,o),
(96,189,c),
(13,128,l),
(72,32,o),
(168,-15,o),
(301,-15,cs)
);
}
);
width = 623;
},
{
layerId = "731B92CD-F71D-43F6-9B71-33E028774484";
shapes = (
{
closed = 1;
nodes = (
(356,-10,o),
(414,11,o),
(455,46,cs),
(495,81,o),
(518,129,o),
(518,182,cs),
(518,231,o),
(503,268,o),
(469,297,cs),
(435,326,o),
(382,350,o),
(307,374,cs),
(250,393,o),
(204,410,o),
(172,432,cs),
(140,454,o),
(123,481,o),
(123,522,cs),
(123,573,o),
(144,615,o),
(180,644,cs),
(216,673,o),
(267,689,o),
(328,689,cs),
(409,689,o),
(480,656,o),
(531,595,c),
(547,609,l),
(520,641,o),
(487,667,o),
(451,684,cs),
(414,701,o),
(372,710,o),
(328,710,cs),
(256,710,o),
(199,689,o),
(160,655,cs),
(120,621,o),
(100,574,o),
(100,523,cs),
(100,476,o),
(118,445,o),
(152,419,cs),
(186,393,o),
(235,374,o),
(299,353,cs),
(368,330,o),
(417,310,o),
(449,283,cs),
(481,256,o),
(495,225,o),
(495,181,cs),
(495,138,o),
(477,96,o),
(442,64,cs),
(407,32,o),
(354,11,o),
(286,11,cs),
(234,11,o),
(188,21,o),
(147,42,cs),
(106,62,o),
(73,93,o),
(46,134,c),
(27,120,l),
(80,36,o),
(170,-10,o),
(285,-10,cs)
);
}
);
width = 590;
}
);
leftKerningGroup = S2;
rightKerningGroup = S;
unicode = 83;
},
{
glyphname = T;
layers = (
{
layerId = "DCD6D63C-8715-4521-BEFF-523A5C998C9C";
shapes = (
{
closed = 1;
nodes = (
(424,0,l),
(488,508,l),
(704,508,l),
(729,700,l),
(80,700,l),
(56,508,l),
(272,508,l),
(208,0,l)
);
}
);
width = 698;
},
{
layerId = "222DC4F3-8650-441F-8C70-2115B1B3D57E";
shapes = (
{
closed = 1;
nodes = (
(305,0,l),
(381,596,l),
(582,596,l),
(595,700,l),
(85,700,l),
(72,596,l),
(273,596,l),
(197,0,l)
);
}
);
width = 570;
},
{
layerId = "731B92CD-F71D-43F6-9B71-33E028774484";
shapes = (
{
closed = 1;
nodes = (
(247,0,l),
(333,679,l),
(546,679,l),
(549,700,l),
(101,700,l),
(98,679,l),
(311,679,l),
(225,0,l)
);
}
);
width = 538;
}
);
leftKerningGroup = T2;
rightKerningGroup = T;
unicode = 84;
},
{
glyphname = U;
layers = (
{
layerId = "DCD6D63C-8715-4521-BEFF-523A5C998C9C";
shapes = (
{
closed = 1;
nodes = (
(446,-18,o),
(520,11,o),
(574,60,cs),
(628,108,o),
(662,177,o),
(673,257,cs),
(729,700,l),
(521,700,l),
(465,269,ls),
(461,242,o),
(451,218,o),
(433,202,cs),
(415,185,o),
(389,174,o),
(358,174,cs),
(329,174,o),
(304,185,o),
(288,203,cs),
(272,221,o),
(264,246,o),
(268,277,cs),
(322,700,l),
(105,700,l),
(58,289,l),
(42,189,o),
(70,113,o),
(124,61,cs),
(178,9,o),
(260,-18,o),
(355,-18,cs)
);
}
);
width = 724;
},
{
layerId = "222DC4F3-8650-441F-8C70-2115B1B3D57E";
shapes = (
{
closed = 1;
nodes = (
(406,-15,o),
(478,14,o),
(531,63,cs),
(584,112,o),
(620,180,o),
(629,260,cs),
(685,700,l),
(580,700,l),
(524,275,l),
(519,219,o),
(495,172,o),
(460,140,cs),
(425,107,o),
(380,89,o),
(329,89,cs),
(278,89,o),
(236,106,o),
(208,139,cs),
(180,171,o),
(166,219,o),
(174,280,cs),
(229,700,l),
(121,700,l),
(67,270,ls),
(56,186,o),
(79,115,o),
(126,65,cs),
(173,15,o),
(243,-15,o),
(323,-15,cs)
);
}
);
width = 694;
},
{
layerId = "731B92CD-F71D-43F6-9B71-33E028774484";
shapes = (
{
closed = 1;
nodes = (
(387,-10,o),
(453,14,o),
(504,62,cs),
(555,109,o),
(591,179,o),
(604,268,cs),
(660,700,l),
(638,700,l),
(583,274,ls),
(572,191,o),
(541,125,o),
(494,81,cs),
(446,36,o),
(384,11,o),
(312,11,cs),
(240,11,o),
(183,37,o),
(146,82,cs),
(109,127,o),
(93,194,o),
(104,275,cs),
(158,700,l),
(136,700,l),
(82,271,ls),
(71,188,o),
(88,117,o),
(128,68,cs),
(168,19,o),
(231,-10,o),
(312,-10,cs)
);
}
);
width = 684;
}
);
leftKerningGroup = U2;
rightKerningGroup = U;
unicode = 85;
},
{
glyphname = V;
layers = (
{
layerId = "DCD6D63C-8715-4521-BEFF-523A5C998C9C";
shapes = (
{
closed = 1;
nodes = (
(422,0,l),
(768,700,l),
(543,700,l),
(397,360,l),
(385,328,o),
(372,300,o),
(358,269,cs),
(344,238,o),
(330,206,o),
(318,165,c),
(340,161,l),
(335,245,o),
(330,300,o),
(317,360,c),
(262,700,l),
(50,700,l),
(217,0,l)
);
}
);
width = 708;
},
{
layerId = "222DC4F3-8650-441F-8C70-2115B1B3D57E";
shapes = (
{
closed = 1;
nodes = (
(354,0,l),
(717,700,l),
(596,700,l),
(368,254,l),
(355,225,o),
(343,197,o),
(332,171,cs),
(321,145,o),
(311,119,o),
(302,95,c),
(326,92,l),
(317,139,o),
(313,191,o),
(294,259,c),
(193,700,l),
(80,700,l),
(249,0,l)
);
}
);
width = 686;
},
{
layerId = "731B92CD-F71D-43F6-9B71-33E028774484";
shapes = (
{
closed = 1;
nodes = (
(302,0,l),
(660,700,l),
(633,700,l),
(317,74,ls),
(308,55,o),
(301,41,o),
(295,30,cs),
(289,19,o),
(285,12,o),
(284,8,c),
(296,8,l),
(293,15,o),
(288,37,o),
(279,76,c),
(121,700,l),
(96,700,l),
(276,0,l)
);
}
);
width = 644;
}
);
unicode = 86;
},
{
glyphname = W;
layers = (
{
layerId = "DCD6D63C-8715-4521-BEFF-523A5C998C9C";
shapes = (
{
closed = 1;
nodes = (
(366,0,l),
(560,446,l),
(504,446,l),
(605,0,l),
(806,0,l),
(1070,700,l),
(853,700,l),
(739,384,ls),
(724,343,o),
(715,305,o),
(708,273,cs),
(701,240,o),
(699,214,o),
(696,194,c),
(711,194,l),
(722,267,o),
(707,313,o),
(696,384,cs),
(649,700,l),
(484,700,l),
(357,384,ls),
(325,308,o),
(314,275,o),
(304,194,c),
(322,194,l),
(325,213,o),
(326,239,o),
(326,272,cs),
(326,304,o),
(324,343,o),
(317,384,c),
(271,700,l),
(60,700,l),
(163,0,l)
);
}
);
width = 1020;
},
{
layerId = "222DC4F3-8650-441F-8C70-2115B1B3D57E";
shapes = (
{
closed = 1;
nodes = (
(303,0,l),
(542,555,l),
(516,559,l),
(645,0,l),
(724,0,l),
(1033,700,l),
(918,700,l),
(730,262,l),
(713,219,o),
(706,205,o),
(702,190,cs),
(697,174,o),
(693,157,o),
(678,112,c),
(703,119,l),
(696,167,o),
(690,216,o),
(680,263,cs),
(595,700,l),
(499,700,l),
(326,263,ls),
(307,211,o),
(286,161,o),
(265,110,c),
(299,109,l),
(298,125,o),
(296,152,o),
(293,181,cs),
(290,209,o),
(286,241,o),
(282,262,cs),
(196,700,l),
(85,700,l),
(226,0,l)
);
}
);
width = 1008;
},
{
layerId = "731B92CD-F71D-43F6-9B71-33E028774484";
shapes = (
{
closed = 1;
nodes = (
(238,0,l),
(523,679,l),
(505,679,l),
(603,0,l),
(629,0,l),
(913,700,l),
(888,700,l),
(682,193,l),
(666,150,o),
(657,127,o),
(647,104,cs),
(637,81,o),
(626,58,o),
(610,15,c),
(621,15,l),
(613,77,o),
(607,137,o),
(597,202,cs),
(524,700,l),
(508,700,l),
(299,202,ls),
(271,136,o),
(251,82,o),
(222,15,c),
(234,15,l),
(227,55,o),
(223,80,o),
(220,104,cs),
(216,128,o),
(214,153,o),
(207,193,c),
(128,700,l),
(106,700,l),
(214,0,l)
);
}
);
width = 907;
}
);
leftKerningGroup = W2;
rightKerningGroup = W;
unicode = 87;
},
{
glyphname = X;
layers = (
{
layerId = "DCD6D63C-8715-4521-BEFF-523A5C998C9C";
shapes = (
{
closed = 1;
nodes = (
(730,0,l),
(491,390,l),
(309,700,l),
(54,700,l),
(293,314,l),
(475,0,l)
);
},
{
closed = 1;
nodes = (
(228,0,l),
(467,297,l),
(274,386,l),
(-39,0,l)
);
},
{
closed = 1;
nodes = (
(806,700,l),
(541,700,l),
(312,401,l),
(497,311,l)
);
}
);
width = 759;
},
{
layerId = "222DC4F3-8650-441F-8C70-2115B1B3D57E";
shapes = (
{
closed = 1;
nodes = (
(626,0,l),
(390,390,l),
(214,700,l),
(83,700,l),
(314,316,l),
(496,0,l)
);
},
{
closed = 1;
nodes = (
(123,0,l),
(361,302,l),
(302,383,l),
(-11,0,l)
);
},
{
closed = 1;
nodes = (
(705,700,l),
(573,700,l),
(344,401,l),
(404,321,l)
);
}
);
width = 683;
},
{
layerId = "731B92CD-F71D-43F6-9B71-33E028774484";
shapes = (
{
closed = 1;
nodes = (
(550,0,l),
(328,366,l),
(130,700,l),
(103,700,l),
(314,349,l),
(522,0,l)
);
},
{
closed = 1;
nodes = (
(39,0,l),
(328,349,l),
(313,363,l),
(10,0,l)
);
},
{
closed = 1;
nodes = (
(627,700,l),
(597,700,l),
(315,365,l),
(330,352,l)
);
}
);
width = 626;
}
);
unicode = 88;
},
{
glyphname = Y;
layers = (
{
layerId = "DCD6D63C-8715-4521-BEFF-523A5C998C9C";
shapes = (
{
closed = 1;
nodes = (
(458,0,l),
(503,357,l),
(473,270,l),
(800,700,l),
(560,700,l),
(317,374,l),
(458,376,l),
(281,700,l),
(50,700,l),
(291,280,l),
(286,349,l),
(242,0,l)
);
}
);
width = 740;
},
{
layerId = "222DC4F3-8650-441F-8C70-2115B1B3D57E";
shapes = (
{
closed = 1;
nodes = (
(354,0,l),
(399,357,l),
(376,289,l),
(696,700,l),
(563,700,l),
(336,393,l),
(364,390,l),
(194,700,l),
(70,700,l),
(297,300,l),
(290,349,l),
(246,0,l)
);
}
);
width = 655;
},
{
layerId = "731B92CD-F71D-43F6-9B71-33E028774484";
shapes = (
{
closed = 1;
nodes = (
(293,0,l),
(336,339,l),
(324,300,l),
(643,700,l),
(615,700,l),
(318,327,l),
(329,327,l),
(116,700,l),
(91,700,l),
(317,303,l),
(314,339,l),
(271,0,l)
);
}
);
width = 622;
}
);
leftKerningGroup = Y2;
rightKerningGroup = Y;
unicode = 89;
},
{
glyphname = Z;
layers = (
{
layerId = "DCD6D63C-8715-4521-BEFF-523A5C998C9C";
shapes = (
{
closed = 1;
nodes = (
(612,0,l),
(635,175,l),
(154,175,l),
(244,87,l),
(672,562,l),
(690,700,l),
(106,700,l),
(83,525,l),
(528,525,l),
(438,613,l),
(9,139,l),
(-9,0,l)
);
}
);
width = 671;
},
{
layerId = "222DC4F3-8650-441F-8C70-2115B1B3D57E";
shapes = (
{
closed = 1;
nodes = (
(552,0,l),
(566,104,l),
(129,104,l),
(151,87,l),
(621,622,l),
(631,700,l),
(111,700,l),
(98,596,l),
(492,596,l),
(475,613,l),
(6,79,l),
(-4,0,l)
);
}
);
width = 616;
},
{
layerId = "731B92CD-F71D-43F6-9B71-33E028774484";
shapes = (
{
closed = 1;
nodes = (
(521,0,l),
(524,21,l),
(35,21,l),
(37,4,l),
(597,684,l),
(599,700,l),
(132,700,l),
(129,679,l),
(590,679,l),
(577,695,l),
(20,16,l),
(17,0,l)
);
}
);
width = 604;
}
);
leftKerningGroup = Z2;
rightKerningGroup = Z;
unicode = 90;
},
{
glyphname = bracketleft;
layers = (
{
layerId = "DCD6D63C-8715-4521-BEFF-523A5C998C9C";
shapes = (
{
closed = 1;
nodes = (
(319,-190,l),
(342,-10,l),
(204,-10,l),
(212,-22,l),
(282,528,l),
(275,520,l),
(409,520,l),
(432,700,l),
(105,700,l),
(-8,-190,l)
);
}
);
width = 382;
},
{
layerId = "222DC4F3-8650-441F-8C70-2115B1B3D57E";
shapes = (
{
closed = 1;
nodes = (
(264,-190,l),
(274,-111,l),
(100,-111,l),
(109,-123,l),
(204,629,l),
(197,621,l),
(367,621,l),
(377,700,l),
(120,700,l),
(7,-190,l)
);
}
);
width = 352;
},
{
layerId = "731B92CD-F71D-43F6-9B71-33E028774484";
shapes = (
{
closed = 1;
nodes = (
(239,-190,l),
(242,-169,l),
(42,-169,l),
(51,-180,l),
(161,686,l),
(152,679,l),
(351,679,l),
(353,700,l),
(141,700,l),
(27,-190,l)
);
}
);
width = 337;
}
);
unicode = 91;
},
{
glyphname = backslash;
layers = (
{
layerId = "DCD6D63C-8715-4521-BEFF-523A5C998C9C";
shapes = (
{
closed = 1;
nodes = (
(568,-95,l),
(242,700,l),
(45,700,l),
(371,-95,l)
);
}
);
width = 604;
},
{
layerId = "222DC4F3-8650-441F-8C70-2115B1B3D57E";
shapes = (
{
closed = 1;
nodes = (
(515,-95,l),
(180,700,l),
(85,700,l),
(417,-95,l)
);
}
);
width = 591;
},
{
layerId = "731B92CD-F71D-43F6-9B71-33E028774484";
shapes = (
{
closed = 1;
nodes = (
(447,-95,l),
(154,700,l),
(131,700,l),
(424,-95,l)
);
}
);
width = 568;
}
);
unicode = 92;
},
{
glyphname = bracketright;
layers = (
{
layerId = "DCD6D63C-8715-4521-BEFF-523A5C998C9C";
shapes = (
{
closed = 1;
nodes = (
(60,700,l),
(37,520,l),
(175,520,l),
(167,532,l),
(97,-18,l),
(104,-10,l),
(-30,-10,l),
(-53,-190,l),
(274,-190,l),
(387,700,l)
);
}
);
width = 382;
},
{
layerId = "222DC4F3-8650-441F-8C70-2115B1B3D57E";
shapes = (
{
closed = 1;
nodes = (
(85,700,l),
(75,621,l),
(249,621,l),
(240,633,l),
(145,-119,l),
(152,-111,l),
(-18,-111,l),
(-28,-190,l),
(229,-190,l),
(342,700,l)
);
}
);
width = 352;
},
{
layerId = "731B92CD-F71D-43F6-9B71-33E028774484";
shapes = (
{
closed = 1;
nodes = (
(97,700,l),
(94,679,l),
(294,679,l),
(285,690,l),
(175,-176,l),
(184,-169,l),
(-15,-169,l),
(-17,-190,l),
(195,-190,l),
(309,700,l)
);
}
);
width = 337;
}
);
unicode = 93;
},
{
glyphname = asciicircum;
layers = (
{
layerId = "DCD6D63C-8715-4521-BEFF-523A5C998C9C";
shapes = (
{
closed = 1;
nodes = (
(219,346,l),
(421,644,l),
(290,643,l),
(432,346,l),
(620,346,l),
(437,727,l),
(284,727,l),
(20,346,l)
);
}
);
width = 620;
},
{
layerId = "222DC4F3-8650-441F-8C70-2115B1B3D57E";
shapes = (
{
closed = 1;
nodes = (
(160,368,l),
(368,636,l),
(330,633,l),
(473,368,l),
(583,368,l),
(395,727,l),
(314,727,l),
(43,368,l)
);
}
);
width = 600;
},
{
layerId = "731B92CD-F71D-43F6-9B71-33E028774484";
shapes = (
{
closed = 1;
nodes = (
(91,368,l),
(351,708,l),
(342,708,l),
(518,368,l),
(543,368,l),
(359,727,l),
(337,727,l),
(63,368,l)
);
}
);
width = 580;
}
);
unicode = 94;
},
{
glyphname = underscore;
layers = (
{
layerId = "DCD6D63C-8715-4521-BEFF-523A5C998C9C";
shapes = (
{
closed = 1;
nodes = (
(634,-206,l),
(655,-36,l),
(1,-36,l),
(-20,-206,l)
);
}
);
width = 734;
},
{
layerId = "222DC4F3-8650-441F-8C70-2115B1B3D57E";
shapes = (
{
closed = 1;
nodes = (
(612,-150,l),
(622,-61,l),
(8,-61,l),
(-1,-150,l)
);
}
);
width = 714;
},
{
layerId = "731B92CD-F71D-43F6-9B71-33E028774484";
shapes = (
{
closed = 1;
nodes = (
(597,-106,l),
(600,-84,l),
(16,-84,l),
(13,-106,l)
);
}
);
width = 704;
}
);
unicode = 95;
},
{
glyphname = b;
layers = (
{
layerId = "DCD6D63C-8715-4521-BEFF-523A5C998C9C";
shapes = (
{
closed = 1;
nodes = (
(551,-11,o),
(644,142,o),
(644,297,cs),
(644,430,o),
(565,546,o),
(422,546,cs),
(326,546,o),
(249,489,o),
(218,399,c),
(277,410,l),
(318,740,l),
(115,740,l),
(21,0,l),
(206,0,l),
(243,124,l),
(191,162,l),
(200,58,o),
(276,-11,o),
(381,-11,cs)
);
},
{
closed = 1;
nodes = (
(282,162,o),
(252,201,o),
(252,255,cs),
(252,319,o),
(282,372,o),
(352,372,cs),
(409,372,o),
(439,332,o),
(439,278,cs),
(439,215,o),
(409,162,o),
(339,162,cs)
);
}
);
width = 673;
},
{
layerId = "222DC4F3-8650-441F-8C70-2115B1B3D57E";
shapes = (
{
closed = 1;
nodes = (
(493,-10,o),
(600,144,o),
(600,298,cs),
(600,434,o),
(508,536,o),
(367,536,cs),
(267,536,o),
(176,481,o),
(153,382,c),
(186,401,l),
(228,740,l),
(125,740,l),
(32,0,l),
(135,0,l),
(154,136,l),
(121,178,l),
(127,60,o),
(212,-10,o),
(328,-10,cs)
);
},
{
closed = 1;
nodes = (
(214,87,o),
(159,156,o),
(159,247,cs),
(159,351,o),
(232,439,o),
(342,439,cs),
(437,439,o),
(492,381,o),
(492,289,cs),
(492,185,o),
(420,87,o),
(309,87,cs)
);
}
);
width = 633;
},
{
layerId = "731B92CD-F71D-43F6-9B71-33E028774484";
shapes = (
{
closed = 1;
nodes = (
(474,-10,o),
(577,130,o),
(577,287,cs),
(577,427,o),
(498,530,o),
(351,530,cs),
(235,530,o),
(138,456,o),
(107,345,c),
(125,373,l),
(168,740,l),
(146,740,l),
(52,0,l),
(74,0,l),
(102,189,l),
(92,185,l),
(100,71,o),
(197,-10,o),
(308,-10,cs)
);
},
{
closed = 1;
nodes = (
(177,11,o),
(105,110,o),
(105,234,cs),
(105,374,o),
(197,509,o),
(348,509,cs),
(483,509,o),
(554,413,o),
(554,285,cs),
(554,143,o),
(457,11,o),
(307,11,cs)
);
}
);
width = 632;
}
);
leftKerningGroup = b2;
rightKerningGroup = b;
unicode = 98;
},
{
glyphname = c;
layers = (
{
layerId = "DCD6D63C-8715-4521-BEFF-523A5C998C9C";
shapes = (
{
closed = 1;
nodes = (
(388,-10,o),
(463,11,o),
(523,62,c),
(425,203,l),
(398,174,o),
(365,165,o),
(330,165,cs),
(272,165,o),
(232,204,o),
(232,261,cs),
(232,331,o),
(280,380,o),
(350,380,cs),
(389,380,o),
(426,366,o),
(449,333,c),
(571,453,l),
(512,520,o),
(439,546,o),
(354,546,cs),
(178,546,o),
(29,428,o),
(29,245,cs),
(29,79,o),
(159,-10,o),
(315,-10,cs)
);
}
);
width = 560;
},
{
layerId = "222DC4F3-8650-441F-8C70-2115B1B3D57E";
shapes = (
{
closed = 1;
nodes = (
(378,-10,o),
(453,17,o),
(506,77,c),
(445,147,l),
(406,104,o),
(360,86,o),
(305,86,cs),
(206,86,o),
(141,157,o),
(141,253,cs),
(141,365,o),
(227,440,o),
(338,440,cs),
(399,440,o),
(446,424,o),
(479,375,c),
(552,439,l),
(504,511,o),
(429,536,o),
(342,536,cs),
(171,536,o),
(35,419,o),
(35,245,cs),
(35,92,o),
(145,-10,o),
(297,-10,cs)
);
}
);
width = 555;
},
{
layerId = "731B92CD-F71D-43F6-9B71-33E028774484";
shapes = (
{
closed = 1;
nodes = (
(374,-10,o),
(443,24,o),
(496,79,c),
(480,94,l),
(431,42,o),
(367,11,o),
(296,11,cs),
(163,11,o),
(77,109,o),
(77,239,cs),
(77,394,o),
(186,509,o),
(342,509,cs),
(418,509,o),
(480,483,o),
(521,432,c),
(536,446,l),
(493,501,o),
(428,530,o),
(344,530,cs),
(175,530,o),
(54,408,o),
(54,239,cs),
(54,97,o),
(149,-10,o),
(294,-10,cs)
);
}
);
width = 565;
}
);
leftKerningGroup = a2;
rightKerningGroup = c;
unicode = 99;
},
{
glyphname = d;
layers = (
{
layerId = "DCD6D63C-8715-4521-BEFF-523A5C998C9C";
shapes = (
{
closed = 1;
nodes = (
(346,-11,o),
(425,49,o),
(455,139,c),
(403,130,l),
(407,0,l),
(584,0,l),
(677,740,l),
(474,740,l),
(434,416,l),
(482,377,l),
(472,482,o),
(398,546,o),
(293,546,cs),
(120,546,o),
(29,396,o),
(29,238,cs),
(29,107,o),
(109,-11,o),
(250,-11,cs)
);
},
{
closed = 1;
nodes = (
(264,164,o),
(234,203,o),
(234,257,cs),
(234,319,o),
(266,373,o),
(334,373,cs),
(392,373,o),
(421,334,o),
(421,279,cs),
(421,215,o),
(392,164,o),
(321,164,cs)
);
}
);
width = 673;
},
{
layerId = "222DC4F3-8650-441F-8C70-2115B1B3D57E";
shapes = (
{
closed = 1;
nodes = (
(358,-10,o),
(454,48,o),
(480,144,c),
(452,126,l),
(436,0,l),
(534,0,l),
(628,740,l),
(525,740,l),
(479,392,l),
(511,348,l),
(509,471,o),
(432,536,o),
(310,536,cs),
(144,536,o),
(33,394,o),
(33,237,cs),
(33,105,o),
(122,-10,o),
(261,-10,cs)
);
},
{
closed = 1;
nodes = (
(197,87,o),
(141,156,o),
(141,246,cs),
(141,350,o),
(214,439,o),
(324,439,cs),
(419,439,o),
(474,379,o),
(474,288,cs),
(474,184,o),
(402,87,o),
(291,87,cs)
);
}
);
width = 633;
},
{
layerId = "731B92CD-F71D-43F6-9B71-33E028774484";
shapes = (
{
closed = 1;
nodes = (
(394,-10,o),
(495,67,o),
(524,175,c),
(507,150,l),
(493,0,l),
(514,0,l),
(608,740,l),
(586,740,l),
(530,333,l),
(540,342,l),
(526,459,o),
(441,530,o),
(324,530,cs),
(161,530,o),
(55,397,o),
(55,241,cs),
(55,101,o),
(135,-10,o),
(282,-10,cs)
);
},
{
closed = 1;
nodes = (
(153,11,o),
(78,113,o),
(78,242,cs),
(78,384,o),
(173,509,o),
(323,509,cs),
(455,509,o),
(527,417,o),
(527,290,cs),
(527,149,o),
(441,11,o),
(288,11,cs)
);
}
);
width = 632;
}
);
leftKerningGroup = a2;
rightKerningGroup = d;
unicode = 100;
},
{
glyphname = e;
layers = (
{
layerId = "DCD6D63C-8715-4521-BEFF-523A5C998C9C";
shapes = (
{
closed = 1;
nodes = (
(377,-10,o),
(443,3,o),
(519,58,c),
(439,193,l),
(404,170,o),
(377,165,o),
(326,165,cs),
(259,165,o),
(215,204,o),
(215,271,cs),
(215,333,o),
(254,382,o),
(319,382,cs),
(357,382,o),
(388,366,o),
(388,325,cs),
(388,316,o),
(387,308,o),
(384,301,c),
(407,321,l),
(125,321,l),
(136,225,l),
(555,225,l),
(562,249,o),
(566,275,o),
(566,300,cs),
(568,445,o),
(476,546,o),
(328,546,cs),
(154,546,o),
(29,420,o),
(29,247,cs),
(29,87,o),
(145,-10,o),
(301,-10,cs)
);
}
);
width = 590;
},
{
layerId = "222DC4F3-8650-441F-8C70-2115B1B3D57E";
shapes = (
{
closed = 1;
nodes = (
(371,-10,o),
(454,22,o),
(509,73,c),
(458,143,l),
(401,96,o),
(358,85,o),
(305,85,cs),
(204,85,o),
(137,152,o),
(137,252,cs),
(137,356,o),
(205,441,o),
(315,441,cs),
(384,441,o),
(448,410,o),
(448,335,cs),
(448,322,o),
(445,305,o),
(440,290,c),
(463,324,l),
(97,324,l),
(109,240,l),
(543,240,l),
(550,265,o),
(554,291,o),
(554,315,cs),
(554,448,o),
(461,537,o),
(327,537,cs),
(153,537,o),
(35,411,o),
(35,241,cs),
(35,88,o),
(144,-10,o),
(295,-10,cs)
);
}
);
width = 580;
},
{
layerId = "731B92CD-F71D-43F6-9B71-33E028774484";
shapes = (
{
closed = 1;
nodes = (
(359,-10,o),
(423,22,o),
(479,69,c),
(467,84,l),
(415,40,o),
(353,11,o),
(288,11,cs),
(157,11,o),
(76,111,o),
(76,238,cs),
(76,382,o),
(175,509,o),
(326,509,cs),
(434,509,o),
(512,436,o),
(512,327,cs),
(512,314,o),
(511,300,o),
(504,273,c),
(516,289,l),
(70,289,l),
(68,268,l),
(525,268,l),
(532,297,o),
(534,312,o),
(534,325,cs),
(534,447,o),
(449,530,o),
(327,530,cs),
(164,530,o),
(54,393,o),
(54,237,cs),
(54,98,o),
(144,-10,o),
(287,-10,cs)
);
}
);
width = 570;
}
);
leftKerningGroup = a2;
rightKerningGroup = e;
unicode = 101;
},
{
glyphname = f;
layers = (
{
layerId = "DCD6D63C-8715-4521-BEFF-523A5C998C9C";
shapes = (
{
closed = 1;
nodes = (
(58,0,l),
(261,0,l),
(329,535,l),
(332,564,o),
(350,580,o),
(383,580,cs),
(394,580,o),
(407,577,o),
(422,570,c),
(491,714,l),
(454,737,o),
(404,753,o),
(352,753,cs),
(285,753,o),
(233,733,o),
(197,699,cs),
(160,665,o),
(138,620,o),
(133,569,c)
);
},
{
closed = 1;
nodes = (
(406,346,l),
(427,516,l),
(50,516,l),
(28,346,l)
);
}
);
width = 415;
},
{
layerId = "222DC4F3-8650-441F-8C70-2115B1B3D57E";
shapes = (
{
closed = 1;
nodes = (
(80,0,l),
(183,0,l),
(258,600,ls),
(263,637,o),
(291,657,o),
(326,657,cs),
(346,657,o),
(367,648,o),
(382,632,c),
(437,706,l),
(413,735,o),
(377,753,o),
(326,753,cs),
(277,753,o),
(237,738,o),
(209,712,cs),
(180,686,o),
(162,647,o),
(157,603,cs)
);
},
{
closed = 1;
nodes = (
(364,432,l),
(377,532,l),
(54,532,l),
(41,432,l)
);
}
);
width = 370;
},
{
layerId = "731B92CD-F71D-43F6-9B71-33E028774484";
shapes = (
{
closed = 1;
nodes = (
(112,0,l),
(133,0,l),
(213,626,ls),
(222,703,o),
(258,728,o),
(306,728,cs),
(341,728,o),
(365,719,o),
(386,692,c),
(401,705,l),
(384,729,o),
(356,748,o),
(308,748,cs),
(276,748,o),
(250,739,o),
(230,720,cs),
(210,700,o),
(197,670,o),
(192,629,cs)
);
},
{
closed = 1;
nodes = (
(351,504,l),
(354,525,l),
(68,525,l),
(66,504,l)
);
}
);
width = 350;
}
);
leftKerningGroup = f2;
rightKerningGroup = f;
unicode = 102;
},
{
glyphname = h;
layers = (
{
layerId = "DCD6D63C-8715-4521-BEFF-523A5C998C9C";
shapes = (
{
closed = 1;
nodes = (
(225,0,l),
(265,314,l),
(268,333,o),
(277,349,o),
(290,361,cs),
(302,372,o),
(320,379,o),
(340,379,cs),
(379,379,o),
(398,355,o),
(393,311,cs),
(353,0,l),
(556,0,l),
(600,349,ls),
(615,472,o),
(557,548,o),
(434,548,cs),
(390,548,o),
(346,534,o),
(310,511,cs),
(273,487,o),
(244,454,o),
(228,417,c),
(279,427,l),
(318,740,l),
(115,740,l),
(22,0,l)
);
}
);
width = 635;
},
{
layerId = "222DC4F3-8650-441F-8C70-2115B1B3D57E";
shapes = (
{
closed = 1;
nodes = (
(135,0,l),
(172,294,l),
(179,337,o),
(198,376,o),
(226,405,cs),
(254,433,o),
(290,451,o),
(330,451,c),
(401,454,o),
(435,412,o),
(426,329,c),
(383,0,l),
(486,0,l),
(530,340,ls),
(545,469,o),
(490,545,o),
(374,545,cs),
(330,545,o),
(285,529,o),
(247,505,cs),
(209,481,o),
(178,449,o),
(163,414,c),
(188,417,l),
(228,740,l),
(125,740,l),
(32,0,l)
);
}
);
width = 582;
},
{
layerId = "731B92CD-F71D-43F6-9B71-33E028774484";
shapes = (
{
closed = 1;
nodes = (
(74,0,l),
(122,379,ls),
(125,400,o),
(150,433,o),
(187,461,cs),
(224,489,o),
(275,512,o),
(330,512,cs),
(439,512,o),
(490,452,o),
(475,331,cs),
(433,0,l),
(455,0,l),
(497,331,ls),
(514,468,o),
(451,533,o),
(334,533,cs),
(287,533,o),
(241,518,o),
(202,495,cs),
(162,471,o),
(131,440,o),
(115,405,c),
(126,407,l),
(168,740,l),
(146,740,l),
(52,0,l)
);
}
);
width = 570;
}
);
leftKerningGroup = b2;
rightKerningGroup = h;
unicode = 104;
},
{
glyphname = k;
layers = (
{
layerId = "DCD6D63C-8715-4521-BEFF-523A5C998C9C";
shapes = (
{
closed = 1;
nodes = (
(682,535,l),
(424,535,l),
(150,284,l),
(229,122,l)
);
},
{
closed = 1;
nodes = (
(225,0,l),
(318,740,l),
(115,740,l),
(22,0,l)
);
},
{
closed = 1;
nodes = (
(616,0,l),
(393,354,l),
(248,236,l),
(395,0,l)
);
}
);
width = 656;
},
{
layerId = "222DC4F3-8650-441F-8C70-2115B1B3D57E";
shapes = (
{
closed = 1;
nodes = (
(580,532,l),
(434,532,l),
(153,276,l),
(149,164,l)
);
},
{
closed = 1;
nodes = (
(135,0,l),
(228,740,l),
(125,740,l),
(32,0,l)
);
},
{
closed = 1;
nodes = (
(517,0,l),
(290,298,l),
(215,231,l),
(387,0,l)
);
}
);
width = 566;
},
{
layerId = "731B92CD-F71D-43F6-9B71-33E028774484";
shapes = (
{
closed = 1;
nodes = (
(480,525,l),
(447,525,l),
(91,211,l),
(88,179,l)
);
},
{
closed = 1;
nodes = (
(75,0,l),
(168,740,l),
(146,740,l),
(53,0,l)
);
},
{
closed = 1;
nodes = (
(449,0,l),
(221,307,l),
(203,291,l),
(420,0,l)
);
}
);
width = 512;
}
);
leftKerningGroup = b2;
rightKerningGroup = k;
unicode = 107;
},
{
glyphname = l;
layers = (
{
layerId = "DCD6D63C-8715-4521-BEFF-523A5C998C9C";
shapes = (
{
closed = 1;
nodes = (
(225,0,l),
(318,740,l),
(115,740,l),
(22,0,l)
);
}
);
width = 314;
},
{
layerId = "222DC4F3-8650-441F-8C70-2115B1B3D57E";
shapes = (
{
closed = 1;
nodes = (
(135,0,l),
(228,740,l),
(125,740,l),
(32,0,l)
);
}
);
width = 234;
},
{
layerId = "731B92CD-F71D-43F6-9B71-33E028774484";
shapes = (
{
closed = 1;
nodes = (
(74,0,l),
(168,740,l),
(146,740,l),
(52,0,l)
);
}
);
width = 192;
}
);
leftKerningGroup = b2;
rightKerningGroup = l;
unicode = 108;
},
{
glyphname = m;
layers = (
{
layerId = "DCD6D63C-8715-4521-BEFF-523A5C998C9C";
shapes = (
{
closed = 1;
nodes = (
(225,0,l),
(266,317,l),
(272,354,o),
(296,377,o),
(335,377,cs),
(371,377,o),
(392,356,o),
(387,312,cs),
(347,0,l),
(550,0,l),
(589,307,l),
(596,346,o),
(618,377,o),
(661,377,cs),
(697,377,o),
(719,355,o),
(712,311,c),
(672,0,l),
(876,0,l),
(919,335,ls),
(935,470,o),
(872,546,o),
(745,546,cs),
(671,546,o),
(598,511,o),
(554,451,cs),
(544,437,l),
(584,437,l),
(561,516,o),
(509,546,o),
(429,546,cs),
(356,546,o),
(297,513,o),
(251,458,c),
(275,451,l),
(277,535,l),
(89,535,l),
(22,0,l)
);
}
);
width = 955;
},
{
layerId = "222DC4F3-8650-441F-8C70-2115B1B3D57E";
shapes = (
{
closed = 1;
nodes = (
(135,0,l),
(172,303,l),
(185,380,o),
(244,443,o),
(327,443,cs),
(395,443,o),
(428,412,o),
(419,333,cs),
(376,0,l),
(479,0,l),
(517,292,ls),
(528,369,o),
(584,442,o),
(669,442,cs),
(741,442,o),
(772,407,o),
(763,327,c),
(720,0,l),
(824,0,l),
(868,336,ls),
(884,471,o),
(824,537,o),
(707,537,cs),
(630,537,o),
(544,489,o),
(510,420,c),
(503,407,l),
(525,410,l),
(510,501,o),
(457,537,o),
(365,537,cs),
(286,537,o),
(195,492,o),
(163,418,c),
(188,419,l),
(203,532,l),
(99,532,l),
(31,0,l)
);
}
);
width = 920;
},
{
layerId = "731B92CD-F71D-43F6-9B71-33E028774484";
shapes = (
{
closed = 1;
nodes = (
(74,0,l),
(122,378,ls),
(133,453,o),
(255,509,o),
(322,509,cs),
(426,509,o),
(475,454,o),
(460,331,cs),
(418,0,l),
(440,0,l),
(488,376,ls),
(497,449,o),
(621,509,o),
(686,509,cs),
(786,509,o),
(840,456,o),
(825,331,cs),
(783,0,l),
(805,0,l),
(847,327,ls),
(863,470,o),
(801,530,o),
(690,530,cs),
(603,530,o),
(517,481,o),
(477,403,c),
(473,396,l),
(483,398,l),
(473,495,o),
(417,530,o),
(325,530,cs),
(231,530,o),
(156,486,o),
(112,403,c),
(125,396,l),
(138,525,l),
(118,525,l),
(52,0,l)
);
}
);
width = 920;
}
);
leftKerningGroup = m;
rightKerningGroup = h;
unicode = 109;
},
{
glyphname = n;
layers = (
{
layerId = "DCD6D63C-8715-4521-BEFF-523A5C998C9C";
shapes = (
{
closed = 1;
nodes = (
(225,0,l),
(265,314,l),
(271,352,o),
(300,377,o),
(339,377,cs),
(378,377,o),
(399,355,o),
(392,311,c),
(353,0,l),
(556,0,l),
(600,349,ls),
(615,472,o),
(557,546,o),
(434,546,cs),
(349,546,o),
(261,495,o),
(227,416,c),
(274,427,l),
(277,535,l),
(89,535,l),
(22,0,l)
);
}
);
width = 635;
},
{
layerId = "222DC4F3-8650-441F-8C70-2115B1B3D57E";
shapes = (
{
closed = 1;
nodes = (
(134,0,l),
(172,294,l),
(185,372,o),
(243,443,o),
(329,443,c),
(401,446,o),
(435,412,o),
(426,329,c),
(383,0,l),
(486,0,l),
(530,340,ls),
(545,469,o),
(490,537,o),
(370,537,cs),
(292,537,o),
(194,487,o),
(163,414,c),
(188,417,l),
(202,532,l),
(99,532,l),
(31,0,l)
);
}
);
width = 582;
},
{
layerId = "731B92CD-F71D-43F6-9B71-33E028774484";
shapes = (
{
closed = 1;
nodes = (
(74,0,l),
(122,379,ls),
(133,454,o),
(264,509,o),
(330,509,cs),
(439,509,o),
(490,452,o),
(475,331,cs),
(433,0,l),
(455,0,l),
(497,331,ls),
(514,468,o),
(451,530,o),
(334,530,cs),
(249,530,o),
(150,486,o),
(115,404,c),
(126,407,l),
(138,525,l),
(118,525,l),
(52,0,l)
);
}
);
width = 570;
}
);
leftKerningGroup = m;
rightKerningGroup = h;
unicode = 110;
},
{
glyphname = o;
layers = (
{
layerId = "DCD6D63C-8715-4521-BEFF-523A5C998C9C";
shapes = (
{
closed = 1;
nodes = (
(485,-10,o),
(630,110,o),
(630,287,cs),
(630,451,o),
(503,546,o),
(346,546,cs),
(173,546,o),
(29,426,o),
(29,248,cs),
(29,84,o),
(156,-10,o),
(313,-10,cs)
);
},
{
closed = 1;
nodes = (
(264,160,o),
(234,203,o),
(234,259,cs),
(234,319,o),
(270,376,o),
(335,376,cs),
(394,376,o),
(425,331,o),
(425,276,cs),
(425,217,o),
(389,160,o),
(324,160,cs)
);
}
);
width = 659;
},
{
layerId = "222DC4F3-8650-441F-8C70-2115B1B3D57E";
shapes = (
{
closed = 1;
nodes = (
(474,-10,o),
(605,115,o),
(605,286,cs),
(605,441,o),
(490,536,o),
(338,536,cs),
(168,536,o),
(36,419,o),
(36,247,cs),
(36,93,o),
(153,-10,o),
(304,-10,cs)
);
},
{
closed = 1;
nodes = (
(211,88,o),
(142,157,o),
(142,253,cs),
(142,361,o),
(225,438,o),
(334,438,cs),
(432,438,o),
(497,376,o),
(499,280,cs),
(501,171,o),
(418,88,o),
(308,88,cs)
);
}
);
width = 641;
},
{
layerId = "731B92CD-F71D-43F6-9B71-33E028774484";
shapes = (
{
closed = 1;
nodes = (
(461,-8,o),
(580,125,o),
(580,286,cs),
(580,431,o),
(485,533,o),
(338,533,cs),
(174,533,o),
(54,400,o),
(54,239,cs),
(54,96,o),
(152,-8,o),
(296,-8,cs)
);
},
{
closed = 1;
nodes = (
(164,13,o),
(77,108,o),
(77,239,cs),
(77,387,o),
(185,512,o),
(337,512,cs),
(473,512,o),
(557,420,o),
(557,286,cs),
(557,138,o),
(449,13,o),
(297,13,cs)
);
}
);
width = 634;
}
);
leftKerningGroup = a2;
rightKerningGroup = b;
unicode = 111;
},
{
glyphname = p;
layers = (
{
layerId = "DCD6D63C-8715-4521-BEFF-523A5C998C9C";
shapes = (
{
closed = 1;
nodes = (
(195,-230,l),
(239,125,l),
(191,162,l),
(200,58,o),
(276,-10,o),
(381,-10,cs),
(551,-10,o),
(644,142,o),
(644,297,cs),
(644,430,o),
(565,546,o),
(422,546,cs),
(326,546,o),
(249,489,o),
(218,399,c),
(273,411,l),
(271,535,l),
(89,535,l),
(-8,-230,l)
);
},
{
closed = 1;
nodes = (
(282,163,o),
(252,201,o),
(252,255,cs),
(252,319,o),
(282,372,o),
(352,372,cs),
(409,372,o),
(439,332,o),
(439,278,cs),
(439,215,o),
(409,163,o),
(339,163,cs)
);
}
);
width = 673;
},
{
layerId = "222DC4F3-8650-441F-8C70-2115B1B3D57E";
shapes = (
{
closed = 1;
nodes = (
(105,-230,l),
(154,138,l),
(121,178,l),
(127,60,o),
(211,-13,o),
(327,-13,cs),
(493,-13,o),
(598,144,o),
(598,298,cs),
(598,434,o),
(508,545,o),
(367,545,cs),
(266,545,o),
(177,482,o),
(153,382,c),
(181,406,l),
(197,532,l),
(99,532,l),
(2,-230,l)
);
},
{
closed = 1;
nodes = (
(213,84,o),
(159,155,o),
(159,247,cs),
(159,350,o),
(232,448,o),
(341,448,cs),
(436,448,o),
(490,380,o),
(490,289,cs),
(490,186,o),
(419,84,o),
(309,84,cs)
);
}
);
width = 632;
},
{
layerId = "731B92CD-F71D-43F6-9B71-33E028774484";
shapes = (
{
closed = 1;
nodes = (
(45,-230,l),
(102,190,l),
(92,185,l),
(100,70,o),
(195,-8,o),
(308,-8,cs),
(469,-8,o),
(577,134,o),
(577,287,cs),
(577,428,o),
(497,533,o),
(349,533,cs),
(235,533,o),
(137,454,o),
(107,345,c),
(125,373,l),
(139,525,l),
(118,525,l),
(23,-230,l)
);
},
{
closed = 1;
nodes = (
(180,13,o),
(105,113,o),
(105,234,cs),
(105,374,o),
(197,512,o),
(348,512,cs),
(483,512,o),
(554,413,o),
(554,285,cs),
(554,143,o),
(457,13,o),
(307,13,cs)
);
}
);
width = 632;
}
);
rightKerningGroup = b;
unicode = 112;
},
{
glyphname = q;
layers = (
{
layerId = "DCD6D63C-8715-4521-BEFF-523A5C998C9C";
shapes = (
{
closed = 1;
nodes = (
(556,-230,l),
(652,535,l),
(457,535,l),
(432,417,l),
(482,377,l),
(472,482,o),
(398,546,o),
(293,546,cs),
(120,546,o),
(29,396,o),
(29,238,cs),
(29,107,o),
(109,-10,o),
(250,-10,cs),
(346,-10,o),
(425,49,o),
(455,139,c),
(398,131,l),
(353,-230,l)
);
},
{
closed = 1;
nodes = (
(264,165,o),
(234,203,o),
(234,257,cs),
(234,319,o),
(266,373,o),
(334,373,cs),
(392,373,o),
(421,334,o),
(421,279,cs),
(421,215,o),
(392,165,o),
(321,165,cs)
);
}
);
width = 674;
},
{
layerId = "222DC4F3-8650-441F-8C70-2115B1B3D57E";
shapes = (
{
closed = 1;
nodes = (
(505,-230,l),
(600,525,l),
(497,525,l),
(478,396,l),
(510,348,l),
(508,471,o),
(431,545,o),
(309,545,cs),
(143,545,o),
(33,393,o),
(33,237,cs),
(33,105,o),
(121,-13,o),
(260,-13,cs),
(355,-13,o),
(455,48,o),
(479,144,c),
(445,128,l),
(402,-230,l)
);
},
{
closed = 1;
nodes = (
(195,84,o),
(141,156,o),
(141,246,cs),
(141,349,o),
(213,448,o),
(323,448,cs),
(418,448,o),
(473,379,o),
(473,288,cs),
(473,184,o),
(401,84,o),
(290,84,cs)
);
}
);
width = 633;
},
{
layerId = "731B92CD-F71D-43F6-9B71-33E028774484";
shapes = (
{
closed = 1;
nodes = (
(485,-230,l),
(580,525,l),
(558,525,l),
(530,333,l),
(541,343,l),
(528,457,o),
(439,533,o),
(325,533,cs),
(163,533,o),
(55,396,o),
(55,241,cs),
(55,105,o),
(141,-8,o),
(284,-8,cs),
(397,-8,o),
(495,67,o),
(524,176,c),
(507,150,l),
(463,-230,l)
);
},
{
closed = 1;
nodes = (
(152,13,o),
(78,115,o),
(78,242,cs),
(78,386,o),
(174,512,o),
(325,512,cs),
(457,512,o),
(527,415,o),
(527,290,cs),
(527,151,o),
(437,13,o),
(286,13,cs)
);
}
);
width = 632;
}
);
leftKerningGroup = a2;
unicode = 113;
},
{
glyphname = r;
layers = (
{
layerId = "DCD6D63C-8715-4521-BEFF-523A5C998C9C";
shapes = (
{
closed = 1;
nodes = (
(225,0,l),
(256,250,l),
(263,300,o),
(291,333,o),
(344,333,cs),
(376,333,o),
(401,323,o),
(418,314,c),
(503,540,l),
(484,544,o),
(463,548,o),
(438,548,cs),
(344,548,o),
(262,474,o),
(226,391,c),
(267,357,l),
(277,535,l),
(89,535,l),
(22,0,l)
);
}
);
width = 476;
},
{
layerId = "222DC4F3-8650-441F-8C70-2115B1B3D57E";
shapes = (
{
closed = 1;
nodes = (
(135,0,l),
(171,292,ls),
(180,365,o),
(248,426,o),
(323,426,cs),
(342,426,o),
(362,423,o),
(377,416,c),
(419,528,l),
(407,533,o),
(389,536,o),
(362,536,cs),
(280,536,o),
(205,474,o),
(175,401,c),
(179,358,l),
(201,525,l),
(98,525,l),
(31,0,l)
);
}
);
width = 395;
},
{
layerId = "731B92CD-F71D-43F6-9B71-33E028774484";
shapes = (
{
closed = 1;
nodes = (
(74,0,l),
(117,340,ls),
(127,430,o),
(207,511,o),
(299,511,cs),
(314,511,o),
(334,509,o),
(354,502,c),
(364,525,l),
(349,530,o),
(330,533,o),
(307,533,cs),
(222,533,o),
(144,479,o),
(116,398,c),
(124,400,l),
(138,525,l),
(118,525,l),
(52,0,l)
);
}
);
width = 346;
}
);
leftKerningGroup = m;
rightKerningGroup = r;
unicode = 114;
},
{
glyphname = s;
layers = (
{
layerId = "DCD6D63C-8715-4521-BEFF-523A5C998C9C";
shapes = (
{
closed = 1;
nodes = (
(317,-10,o),
(379,5,o),
(424,38,cs),
(469,71,o),
(497,120,o),
(497,181,cs),
(497,212,o),
(489,235,o),
(470,258,cs),
(446,286,o),
(407,308,o),
(352,325,cs),
(301,341,o),
(276,350,o),
(263,358,cs),
(250,366,o),
(244,375,o),
(244,386,cs),
(244,406,o),
(273,409,o),
(288,409,cs),
(327,409,o),
(379,389,o),
(418,356,c),
(529,469,l),
(465,520,o),
(388,546,o),
(296,546,cs),
(184,546,o),
(52,499,o),
(52,367,cs),
(52,330,o),
(63,300,o),
(86,276,c),
(113,243,o),
(154,217,o),
(207,202,cs),
(250,189,o),
(274,181,o),
(285,174,cs),
(296,167,o),
(300,161,o),
(300,152,cs),
(300,133,o),
(284,131,o),
(257,131,cs),
(212,131,o),
(147,156,o),
(116,187,c),
(-7,83,l),
(36,27,o),
(131,-10,o),
(246,-10,cs)
);
}
);
width = 531;
},
{
layerId = "222DC4F3-8650-441F-8C70-2115B1B3D57E";
shapes = (
{
closed = 1;
nodes = (
(317,-10,o),
(370,5,o),
(407,36,cs),
(443,67,o),
(462,109,o),
(462,156,cs),
(462,193,o),
(451,223,o),
(428,247,cs),
(404,272,o),
(363,291,o),
(307,308,c),
(264,323,o),
(218,332,o),
(193,351,c),
(181,362,o),
(173,375,o),
(173,391,cs),
(173,444,o),
(243,447,o),
(283,447,cs),
(336,447,o),
(389,432,o),
(428,393,c),
(493,457,l),
(446,513,o),
(363,536,o),
(286,536,cs),
(186,536,o),
(74,497,o),
(74,381,cs),
(74,346,o),
(83,319,o),
(103,296,cs),
(130,265,o),
(170,246,o),
(237,227,c),
(284,212,o),
(321,202,o),
(342,187,c),
(355,175,o),
(362,164,o),
(362,145,cs),
(362,106,o),
(329,79,o),
(253,79,cs),
(190,79,o),
(138,96,o),
(98,145,c),
(25,83,l),
(72,22,o),
(150,-10,o),
(246,-10,cs)
);
}
);
width = 532;
},
{
layerId = "731B92CD-F71D-43F6-9B71-33E028774484";
shapes = (
{
closed = 1;
nodes = (
(289,-8,o),
(336,7,o),
(369,33,cs),
(402,59,o),
(422,98,o),
(422,146,cs),
(422,177,o),
(412,201,o),
(391,220,c),
(364,247,o),
(320,265,o),
(260,282,cs),
(204,297,o),
(160,313,o),
(137,340,c),
(122,355,o),
(117,371,o),
(117,390,cs),
(117,477,o),
(203,512,o),
(278,512,cs),
(345,512,o),
(401,481,o),
(440,430,c),
(455,445,l),
(415,500,o),
(350,533,o),
(278,533,cs),
(189,533,o),
(96,489,o),
(96,388,cs),
(96,364,o),
(104,344,o),
(123,325,c),
(148,297,o),
(193,279,o),
(253,260,c),
(309,245,o),
(349,229,o),
(372,206,c),
(391,190,o),
(401,171,o),
(401,144,cs),
(401,68,o),
(339,13,o),
(235,13,cs),
(165,13,o),
(98,40,o),
(54,96,c),
(37,82,l),
(78,25,o),
(154,-8,o),
(234,-8,cs)
);
}
);
width = 509;
}
);
leftKerningGroup = s2;
rightKerningGroup = s;
unicode = 115;
},
{
glyphname = t;
layers = (
{
layerId = "DCD6D63C-8715-4521-BEFF-523A5C998C9C";
shapes = (
{
closed = 1;
nodes = (
(407,365,l),
(428,535,l),
(54,535,l),
(33,365,l)
);
},
{
closed = 1;
nodes = (
(413,157,l),
(362,157,o),
(333,162,o),
(317,180,cs),
(302,198,o),
(301,229,o),
(308,277,c),
(359,680,l),
(156,680,l),
(98,242,ls),
(86,153,o),
(99,92,o),
(135,54,cs),
(171,16,o),
(231,0,o),
(315,0,c)
);
}
);
width = 412;
},
{
layerId = "222DC4F3-8650-441F-8C70-2115B1B3D57E";
shapes = (
{
closed = 1;
nodes = (
(399,425,l),
(412,525,l),
(58,525,l),
(45,425,l)
);
},
{
closed = 1;
nodes = (
(338,79,l),
(301,79,o),
(273,89,o),
(256,109,cs),
(238,129,o),
(233,158,o),
(238,198,cs),
(301,669,l),
(198,669,l),
(133,173,l),
(125,122,o),
(137,80,o),
(165,49,cs),
(192,18,o),
(234,1,o),
(286,0,c)
);
}
);
width = 399;
},
{
layerId = "731B92CD-F71D-43F6-9B71-33E028774484";
shapes = (
{
closed = 1;
nodes = (
(381,504,l),
(383,525,l),
(68,525,l),
(66,504,l)
);
},
{
closed = 1;
nodes = (
(283,21,l),
(242,21,o),
(215,33,o),
(199,53,c),
(185,74,o),
(182,102,o),
(186,138,cs),
(251,659,l),
(229,659,l),
(163,134,ls),
(157,89,o),
(164,57,o),
(182,34,cs),
(201,11,o),
(232,0,o),
(272,0,c)
);
}
);
width = 380;
}
);
leftKerningGroup = t2;
rightKerningGroup = t;
unicode = 116;
},
{
glyphname = u;
layers = (
{
layerId = "DCD6D63C-8715-4521-BEFF-523A5C998C9C";
shapes = (
{
closed = 1;
nodes = (
(247,-14,o),
(289,0,o),
(325,24,cs),
(360,47,o),
(388,81,o),
(404,118,c),
(359,108,l),
(357,0,l),
(544,0,l),
(612,535,l),
(409,535,l),
(368,218,l),
(367,201,o),
(358,185,o),
(346,174,cs),
(333,162,o),
(316,156,o),
(296,156,cs),
(257,156,o),
(236,179,o),
(243,223,c),
(282,535,l),
(79,535,l),
(36,199,l),
(29,135,o),
(41,81,o),
(69,45,cs),
(97,8,o),
(143,-14,o),
(203,-14,cs)
);
}
);
width = 633;
},
{
layerId = "222DC4F3-8650-441F-8C70-2115B1B3D57E";
shapes = (
{
closed = 1;
nodes = (
(256,-13,o),
(298,1,o),
(334,25,cs),
(370,48,o),
(399,80,o),
(414,115,c),
(389,109,l),
(375,0,l),
(478,0,l),
(544,525,l),
(441,525,l),
(402,227,ls),
(396,183,o),
(378,147,o),
(353,123,cs),
(328,98,o),
(293,83,o),
(256,82,cs),
(185,79,o),
(146,124,o),
(156,203,cs),
(198,525,l),
(95,525,l),
(52,194,ls),
(44,131,o),
(58,80,o),
(86,44,cs),
(114,8,o),
(158,-13,o),
(213,-13,cs)
);
}
);
width = 577;
},
{
layerId = "731B92CD-F71D-43F6-9B71-33E028774484";
shapes = (
{
closed = 1;
nodes = (
(281,-8,o),
(326,8,o),
(364,33,cs),
(402,57,o),
(432,91,o),
(447,127,c),
(436,123,l),
(422,0,l),
(442,0,l),
(508,525,l),
(486,525,l),
(440,152,ls),
(437,129,o),
(413,94,o),
(377,66,cs),
(340,37,o),
(292,13,o),
(240,13,cs),
(136,13,o),
(81,71,o),
(96,198,cs),
(137,525,l),
(115,525,l),
(74,199,ls),
(66,130,o),
(77,78,o),
(105,44,cs),
(133,10,o),
(178,-8,o),
(237,-8,cs)
);
}
);
width = 560;
}
);
leftKerningGroup = u;
rightKerningGroup = a;
unicode = 117;
},
{
glyphname = v;
layers = (
{
layerId = "DCD6D63C-8715-4521-BEFF-523A5C998C9C";
shapes = (
{
closed = 1;
nodes = (
(379,0,l),
(663,535,l),
(431,535,l),
(277,136,l),
(331,136,l),
(265,535,l),
(44,535,l),
(193,0,l)
);
}
);
width = 639;
},
{
layerId = "222DC4F3-8650-441F-8C70-2115B1B3D57E";
shapes = (
{
closed = 1;
nodes = (
(276,0,l),
(574,525,l),
(464,525,l),
(243,123,l),
(265,132,l),
(154,525,l),
(45,525,l),
(204,0,l)
);
}
);
width = 553;
},
{
layerId = "731B92CD-F71D-43F6-9B71-33E028774484";
shapes = (
{
closed = 1;
nodes = (
(222,0,l),
(500,525,l),
(474,525,l),
(211,24,l),
(224,24,l),
(87,525,l),
(63,525,l),
(207,0,l)
);
}
);
width = 497;
}
);
rightKerningGroup = v;
unicode = 118;
},
{
glyphname = w;
layers = (
{
layerId = "DCD6D63C-8715-4521-BEFF-523A5C998C9C";
shapes = (
{
closed = 1;
nodes = (
(320,0,l),
(457,313,l),
(430,313,l),
(488,0,l),
(655,0,l),
(902,535,l),
(677,535,l),
(565,227,l),
(586,229,l),
(523,535,l),
(407,535,l),
(281,230,l),
(303,226,l),
(264,535,l),
(47,535,l),
(153,0,l)
);
}
);
width = 881;
},
{
layerId = "222DC4F3-8650-441F-8C70-2115B1B3D57E";
shapes = (
{
closed = 1;
nodes = (
(240,0,l),
(425,414,l),
(394,417,l),
(491,0,l),
(564,0,l),
(806,525,l),
(697,525,l),
(520,125,l),
(549,127,l),
(456,525,l),
(390,525,l),
(207,130,l),
(231,128,l),
(153,525,l),
(50,525,l),
(164,0,l)
);
}
);
width = 790;
},
{
layerId = "731B92CD-F71D-43F6-9B71-33E028774484";
shapes = (
{
closed = 1;
nodes = (
(199,0,l),
(427,503,l),
(412,503,l),
(514,0,l),
(528,0,l),
(778,525,l),
(754,525,l),
(516,24,l),
(531,24,l),
(430,525,l),
(413,525,l),
(188,24,l),
(203,24,l),
(92,525,l),
(68,525,l),
(185,0,l)
);
}
);
width = 780;
}
);
leftKerningGroup = w2;
rightKerningGroup = w;
unicode = 119;
},
{
glyphname = x;
layers = (
{
layerId = "DCD6D63C-8715-4521-BEFF-523A5C998C9C";
shapes = (
{
closed = 1;
nodes = (
(570,0,l),
(404,294,l),
(337,390,l),
(281,535,l),
(50,535,l),
(211,250,l),
(281,165,l),
(342,0,l)
);
},
{
closed = 1;
nodes = (
(219,0,l),
(326,194,l),
(227,319,l),
(-29,0,l)
);
},
{
closed = 1;
nodes = (
(636,535,l),
(389,535,l),
(280,339,l),
(379,214,l)
);
}
);
width = 609;
},
{
layerId = "222DC4F3-8650-441F-8C70-2115B1B3D57E";
shapes = (
{
closed = 1;
nodes = (
(513,0,l),
(330,287,l),
(315,309,l),
(168,525,l),
(45,525,l),
(235,243,l),
(248,224,l),
(393,0,l)
);
},
{
closed = 1;
nodes = (
(107,0,l),
(279,200,l),
(221,274,l),
(-20,0,l)
);
},
{
closed = 1;
nodes = (
(563,525,l),
(434,525,l),
(284,330,l),
(338,257,l)
);
}
);
width = 560;
},
{
layerId = "731B92CD-F71D-43F6-9B71-33E028774484";
shapes = (
{
closed = 1;
nodes = (
(447,0,l),
(262,273,l),
(255,281,l),
(97,525,l),
(70,525,l),
(242,260,l),
(247,255,l),
(420,0,l)
);
},
{
closed = 1;
nodes = (
(23,0,l),
(259,257,l),
(243,272,l),
(-8,0,l)
);
},
{
closed = 1;
nodes = (
(500,525,l),
(468,525,l),
(251,281,l),
(262,261,l)
);
}
);
width = 505;
}
);
unicode = 120;
},
{
glyphname = y;
layers = (
{
layerId = "DCD6D63C-8715-4521-BEFF-523A5C998C9C";
shapes = (
{
closed = 1;
nodes = (
(39,-230,l),
(212,-230,o),
(287,-156,o),
(379,12,cs),
(665,535,l),
(433,535,l),
(340,315,ls),
(321,272,o),
(307,240,o),
(295,213,c),
(317,213,l),
(314,248,o),
(311,275,o),
(303,315,c),
(265,535,l),
(44,535,l),
(188,-23,l),
(215,84,l),
(191,39,ls),
(143,-51,o),
(80,-73,o),
(-19,-73,c)
);
}
);
width = 641;
},
{
layerId = "222DC4F3-8650-441F-8C70-2115B1B3D57E";
shapes = (
{
closed = 1;
nodes = (
(46,-230,l),
(147,-228,o),
(222,-155,o),
(273,-57,cs),
(574,525,l),
(461,525,l),
(277,146,l),
(262,118,o),
(250,92,o),
(237,64,c),
(282,68,l),
(279,95,o),
(271,126,o),
(267,139,cs),
(154,525,l),
(45,525,l),
(229,-62,l),
(216,28,l),
(184,-29,ls),
(142,-104,o),
(92,-151,o),
(14,-151,c)
);
}
);
width = 553;
},
{
layerId = "731B92CD-F71D-43F6-9B71-33E028774484";
shapes = (
{
closed = 1;
nodes = (
(5,-230,l),
(90,-230,o),
(130,-175,o),
(172,-96,cs),
(500,525,l),
(474,525,l),
(229,62,l),
(222,47,o),
(216,39,o),
(208,20,c),
(220,21,l),
(219,28,o),
(218,40,o),
(211,63,c),
(87,525,l),
(63,525,l),
(207,-7,l),
(203,17,l),
(150,-92,ls),
(114,-167,o),
(77,-209,o),
(-1,-209,c)
);
}
);
width = 496;
}
);
leftKerningGroup = y;
rightKerningGroup = v;
unicode = 121;
},
{
glyphname = z;
layers = (
{
layerId = "DCD6D63C-8715-4521-BEFF-523A5C998C9C";
shapes = (
{
closed = 1;
nodes = (
(483,0,l),
(503,160,l),
(222,160,l),
(237,84,l),
(527,431,l),
(540,535,l),
(57,535,l),
(37,375,l),
(328,375,l),
(314,458,l),
(2,96,l),
(-10,0,l)
);
}
);
width = 540;
},
{
layerId = "222DC4F3-8650-441F-8C70-2115B1B3D57E";
shapes = (
{
closed = 1;
nodes = (
(411,0,l),
(424,99,l),
(110,99,l),
(119,74,l),
(462,456,l),
(472,532,l),
(59,532,l),
(46,433,l),
(347,433,l),
(350,469,l),
(1,79,l),
(-9,0,l)
);
}
);
width = 470;
},
{
layerId = "731B92CD-F71D-43F6-9B71-33E028774484";
shapes = (
{
closed = 1;
nodes = (
(387,0,l),
(389,21,l),
(22,21,l),
(29,7,l),
(430,508,l),
(432,525,l),
(73,525,l),
(71,504,l),
(415,504,l),
(413,520,l),
(9,15,l),
(7,0,l)
);
}
);
width = 460;
}
);
leftKerningGroup = z2;
rightKerningGroup = z;
unicode = 122;
},
{
glyphname = braceleft;
layers = (
{
layerId = "DCD6D63C-8715-4521-BEFF-523A5C998C9C";
shapes = (
{
closed = 1;
nodes = (
(344,-32,l),
(319,-23,o),
(301,-17,o),
(290,-9,cs),
(279,0,o),
(275,12,o),
(275,32,cs),
(275,47,o),
(279,62,o),
(283,79,cs),
(286,95,o),
(290,112,o),
(290,129,c),
(293,201,o),
(242,252,o),
(129,267,c),
(126,250,l),
(253,269,o),
(314,307,o),
(326,404,c),
(332,469,ls),
(335,496,o),
(342,512,o),
(356,523,cs),
(370,534,o),
(391,540,o),
(420,547,c),
(390,701,l),
(245,674,o),
(167,619,o),
(151,498,c),
(142,418,ls),
(135,358,o),
(108,338,o),
(59,338,cs),
(19,338,l),
(-2,176,l),
(42,176,ls),
(83,176,o),
(105,158,o),
(104,114,c),
(104,97,o),
(99,75,o),
(95,54,cs),
(90,33,o),
(85,10,o),
(85,-10,cs),
(85,-106,o),
(149,-159,o),
(277,-186,c)
);
}
);
width = 404;
},
{
layerId = "222DC4F3-8650-441F-8C70-2115B1B3D57E";
shapes = (
{
closed = 1;
nodes = (
(328,-121,l),
(285,-109,o),
(257,-95,o),
(239,-78,cs),
(221,-61,o),
(214,-39,o),
(214,-8,cs),
(214,13,o),
(221,38,o),
(227,63,cs),
(233,88,o),
(238,113,o),
(238,136,cs),
(239,200,o),
(205,241,o),
(140,264,c),
(140,253,l),
(219,276,o),
(265,330,o),
(272,407,cs),
(280,495,ls),
(284,538,o),
(296,569,o),
(319,591,cs),
(342,613,o),
(377,627,o),
(426,636,c),
(416,702,l),
(269,683,o),
(204,618,o),
(191,509,cs),
(181,421,ls),
(170,333,o),
(137,297,o),
(61,297,cs),
(24,297,l),
(15,221,l),
(52,221,ls),
(117,221,o),
(146,184,o),
(146,125,cs),
(146,104,o),
(140,80,o),
(135,56,cs),
(130,31,o),
(124,5,o),
(124,-20,cs),
(123,-116,o),
(179,-161,o),
(302,-186,c)
);
}
);
width = 418;
},
{
layerId = "731B92CD-F71D-43F6-9B71-33E028774484";
shapes = (
{
closed = 1;
nodes = (
(260,-168,l),
(221,-157,o),
(194,-143,o),
(176,-120,cs),
(158,-97,o),
(150,-68,o),
(151,-28,c),
(151,-5,o),
(158,25,o),
(164,55,cs),
(170,85,o),
(176,114,o),
(176,137,cs),
(177,201,o),
(151,243,o),
(96,260,c),
(96,255,l),
(163,274,o),
(203,328,o),
(211,405,cs),
(223,514,l),
(227,563,o),
(240,599,o),
(264,627,cs),
(288,654,o),
(322,671,o),
(369,683,c),
(364,702,l),
(273,682,o),
(214,630,o),
(202,523,cs),
(189,414,l),
(181,325,o),
(131,271,o),
(51,271,cs),
(31,271,l),
(28,245,l),
(48,245,ls),
(117,245,o),
(155,204,o),
(154,129,cs),
(154,105,o),
(148,77,o),
(142,49,cs),
(136,20,o),
(129,-9,o),
(129,-36,cs),
(128,-121,o),
(175,-167,o),
(252,-186,c)
);
}
);
width = 370;
}
);
unicode = 123;
},
{
glyphname = bar;
layers = (
{
layerId = "DCD6D63C-8715-4521-BEFF-523A5C998C9C";
shapes = (
{
closed = 1;
nodes = (
(245,-193,l),
(363,740,l),
(170,740,l),
(52,-193,l)
);
}
);
width = 413;
},
{
layerId = "222DC4F3-8650-441F-8C70-2115B1B3D57E";
shapes = (
{
closed = 1;
nodes = (
(164,-193,l),
(282,740,l),
(185,740,l),
(67,-193,l)
);
}
);
width = 347;
},
{
layerId = "731B92CD-F71D-43F6-9B71-33E028774484";
shapes = (
{
closed = 1;
nodes = (
(105,-193,l),
(223,740,l),
(201,740,l),
(83,-193,l)
);
}
);
width = 303;
}
);
unicode = 124;
},
{
glyphname = braceright;
layers = (
{
layerId = "DCD6D63C-8715-4521-BEFF-523A5C998C9C";
shapes = (
{
closed = 1;
nodes = (
(57,547,l),
(82,538,o),
(100,532,o),
(111,524,cs),
(122,515,o),
(126,503,o),
(126,483,cs),
(126,470,o),
(122,453,o),
(119,437,cs),
(115,420,o),
(111,403,o),
(111,386,c),
(108,314,o),
(159,263,o),
(272,248,c),
(275,265,l),
(150,246,o),
(87,208,o),
(75,111,c),
(69,46,ls),
(66,19,o),
(60,3,o),
(46,-8,cs),
(32,-19,o),
(12,-25,o),
(-19,-32,c),
(11,-186,l),
(156,-159,o),
(234,-104,o),
(250,17,c),
(259,97,ls),
(266,157,o),
(293,177,o),
(342,177,cs),
(382,177,l),
(403,339,l),
(359,339,ls),
(318,339,o),
(296,357,o),
(297,401,c),
(297,418,o),
(302,440,o),
(307,461,cs),
(311,482,o),
(316,505,o),
(316,525,cs),
(316,621,o),
(252,674,o),
(124,701,c)
);
}
);
width = 403;
},
{
layerId = "222DC4F3-8650-441F-8C70-2115B1B3D57E";
shapes = (
{
closed = 1;
nodes = (
(88,637,l),
(131,625,o),
(160,611,o),
(178,594,cs),
(196,577,o),
(202,555,o),
(202,524,cs),
(202,503,o),
(197,478,o),
(191,453,cs),
(185,428,o),
(178,403,o),
(178,380,cs),
(177,316,o),
(211,275,o),
(276,252,c),
(276,263,l),
(197,240,o),
(151,188,o),
(144,109,cs),
(136,21,ls),
(132,-22,o),
(120,-53,o),
(97,-75,cs),
(74,-97,o),
(41,-111,o),
(-10,-120,c),
(0,-186,l),
(147,-167,o),
(212,-102,o),
(225,7,cs),
(235,95,ls),
(246,183,o),
(279,219,o),
(355,219,cs),
(392,219,l),
(401,295,l),
(364,295,ls),
(299,295,o),
(270,332,o),
(270,391,cs),
(270,412,o),
(276,436,o),
(281,461,cs),
(286,485,o),
(292,511,o),
(292,536,cs),
(293,632,o),
(237,677,o),
(114,702,c)
);
}
);
width = 418;
},
{
layerId = "731B92CD-F71D-43F6-9B71-33E028774484";
shapes = (
{
closed = 1;
nodes = (
(109,684,l),
(148,673,o),
(176,659,o),
(194,636,cs),
(212,613,o),
(219,584,o),
(218,544,c),
(218,521,o),
(212,492,o),
(206,462,cs),
(200,432,o),
(193,402,o),
(193,379,cs),
(192,315,o),
(218,273,o),
(273,256,c),
(273,261,l),
(206,242,o),
(166,188,o),
(158,111,cs),
(146,2,l),
(142,-47,o),
(129,-83,o),
(105,-111,cs),
(81,-138,o),
(47,-155,o),
(0,-167,c),
(5,-186,l),
(96,-166,o),
(155,-114,o),
(167,-7,cs),
(180,102,l),
(188,191,o),
(238,245,o),
(318,245,cs),
(338,245,l),
(341,271,l),
(321,271,ls),
(252,271,o),
(214,312,o),
(215,387,cs),
(215,411,o),
(222,439,o),
(228,468,cs),
(234,496,o),
(240,525,o),
(240,552,cs),
(241,637,o),
(194,683,o),
(117,702,c)
);
}
);
width = 370;
}
);
unicode = 125;
},
{
glyphname = asciitilde;
layers = (
{
layerId = "DCD6D63C-8715-4521-BEFF-523A5C998C9C";
shapes = (
{
closed = 1;
nodes = (
(36,187,l),
(88,226,o),
(131,238,o),
(170,238,cs),
(210,238,o),
(245,223,o),
(281,207,cs),
(316,191,o),
(352,176,o),
(395,176,cs),
(459,176,o),
(509,201,o),
(550,232,c),
(572,391,l),
(515,348,o),
(470,335,o),
(430,335,cs),
(391,335,o),
(355,350,o),
(319,366,cs),
(283,382,o),
(247,397,o),
(204,397,cs),
(148,397,o),
(100,372,o),
(57,343,c)
);
}
);
width = 601;
},
{
layerId = "222DC4F3-8650-441F-8C70-2115B1B3D57E";
shapes = (
{
closed = 1;
nodes = (
(51,232,l),
(102,272,o),
(146,284,o),
(185,284,cs),
(228,284,o),
(265,269,o),
(302,253,cs),
(339,237,o),
(377,222,o),
(420,222,cs),
(457,222,o),
(498,234,o),
(546,269,c),
(559,371,l),
(510,332,o),
(469,322,o),
(430,322,cs),
(389,322,o),
(351,337,o),
(313,353,cs),
(275,369,o),
(236,384,o),
(193,384,cs),
(156,384,o),
(115,371,o),
(64,335,c)
);
}
);
width = 601;
},
{
layerId = "731B92CD-F71D-43F6-9B71-33E028774484";
shapes = (
{
closed = 1;
nodes = (
(68,270,l),
(95,299,o),
(131,318,o),
(168,318,cs),
(211,318,o),
(253,301,o),
(297,285,cs),
(341,268,o),
(385,251,o),
(429,251,cs),
(464,251,o),
(496,264,o),
(527,291,c),
(531,320,l),
(504,289,o),
(467,272,o),
(430,272,cs),
(389,272,o),
(345,289,o),
(301,306,cs),
(257,322,o),
(214,339,o),
(170,339,cs),
(135,339,o),
(101,326,o),
(72,299,c)
);
}
);
width = 590;
}
);
unicode = 126;
},
{
glyphname = exclamdown;
layers = (
{
layerId = "DCD6D63C-8715-4521-BEFF-523A5C998C9C";
shapes = (
{
closed = 1;
nodes = (
(100,284,l),
(83,225,o),
(64,163,o),
(48,100,cs),
(32,36,o),
(19,-26,o),
(11,-85,cs),
(0,-170,l),
(234,-170,l),
(245,-85,ls),
(252,-25,o),
(256,37,o),
(255,100,cs),
(254,163,o),
(252,224,o),
(250,284,c)
);
},
{
closed = 1;
nodes = (
(132,541,o),
(95,491,o),
(95,435,cs),
(95,378,o),
(133,341,o),
(190,341,cs),
(223,341,o),
(249,354,o),
(266,374,cs),
(283,394,o),
(292,421,o),
(292,448,cs),
(292,508,o),
(252,541,o),
(197,541,cs)
);
}
);
width = 344;
},
{
layerId = "222DC4F3-8650-441F-8C70-2115B1B3D57E";
shapes = (
{
closed = 1;
nodes = (
(112,289,l),
(97,232,o),
(83,165,o),
(71,98,cs),
(58,30,o),
(47,-39,o),
(39,-100,cs),
(30,-170,l),
(138,-170,l),
(147,-100,ls),
(154,-41,o),
(160,23,o),
(165,92,cs),
(169,161,o),
(171,226,o),
(172,289,c)
);
},
{
closed = 1;
nodes = (
(123,541,o),
(96,501,o),
(96,462,cs),
(96,417,o),
(123,392,o),
(162,392,cs),
(187,392,o),
(207,401,o),
(220,417,cs),
(233,432,o),
(241,452,o),
(241,472,cs),
(241,516,o),
(212,541,o),
(172,541,cs)
);
}
);
width = 284;
},
{
layerId = "731B92CD-F71D-43F6-9B71-33E028774484";
shapes = (
{
closed = 1;
nodes = (
(123,399,l),
(118,367,o),
(112,335,o),
(108,303,cs),
(103,271,o),
(99,237,o),
(95,204,cs),
(62,-60,l),
(84,-60,l),
(118,204,ls),
(123,238,o),
(127,271,o),
(130,303,cs),
(133,335,o),
(136,367,o),
(139,399,c)
);
},
{
closed = 1;
nodes = (
(141,645,o),
(129,630,o),
(129,614,cs),
(129,595,o),
(139,583,o),
(158,583,cs),
(169,583,o),
(177,587,o),
(182,593,cs),
(187,599,o),
(190,607,o),
(190,615,cs),
(190,634,o),
(181,645,o),
(162,645,cs)
);
}
);
width = 258;
}
);
unicode = 161;
},
{
glyphname = currency;
layers = (
{
layerId = "DCD6D63C-8715-4521-BEFF-523A5C998C9C";
shapes = (
{
closed = 1;
nodes = (
(346,101,o),
(404,123,o),
(448,160,cs),
(491,197,o),
(518,250,o),
(518,313,cs),
(518,377,o),
(494,427,o),
(454,462,cs),
(414,497,o),
(359,516,o),
(299,516,cs),
(238,516,o),
(179,494,o),
(135,456,cs),
(91,418,o),
(62,365,o),
(62,302,cs),
(62,239,o),
(87,190,o),
(128,155,cs),
(168,120,o),
(225,101,o),
(286,101,cs)
);
},
{
closed = 1;
nodes = (
(249,240,o),
(225,269,o),
(225,305,cs),
(225,324,o),
(232,342,o),
(244,355,cs),
(256,368,o),
(273,377,o),
(293,377,cs),
(333,377,o),
(356,348,o),
(356,311,cs),
(356,292,o),
(350,274,o),
(338,262,cs),
(326,249,o),
(309,240,o),
(289,240,cs)
);
},
{
closed = 1;
nodes = (
(207,124,l),
(100,244,l),
(6,161,l),
(117,44,l)
);
},
{
closed = 1;
nodes = (
(236,495,l),
(168,573,l),
(41,462,l),
(106,388,l)
);
},
{
closed = 1;
nodes = (
(548,150,l),
(474,237,l),
(353,124,l),
(423,44,l)
);
},
{
closed = 1;
nodes = (
(577,454,l),
(464,573,l),
(364,484,l),
(478,364,l)
);
}
);
width = 580;
},
{
layerId = "222DC4F3-8650-441F-8C70-2115B1B3D57E";
shapes = (
{
closed = 1;
nodes = (
(336,114,o),
(388,140,o),
(424,178,cs),
(460,216,o),
(481,266,o),
(481,317,cs),
(481,365,o),
(463,409,o),
(432,442,c),
(400,474,o),
(356,494,o),
(301,494,cs),
(241,494,o),
(188,469,o),
(152,431,cs),
(115,393,o),
(93,342,o),
(93,291,cs),
(93,243,o),
(111,198,o),
(143,166,cs),
(174,134,o),
(218,114,o),
(273,114,cs)
);
},
{
closed = 1;
nodes = (
(225,201,o),
(189,240,o),
(189,295,cs),
(189,324,o),
(199,352,o),
(218,373,cs),
(237,393,o),
(263,407,o),
(296,407,cs),
(349,407,o),
(385,369,o),
(385,313,cs),
(385,284,o),
(375,256,o),
(357,236,cs),
(339,215,o),
(312,201,o),
(280,201,cs)
);
},
{
closed = 1;
nodes = (
(205,170,l),
(145,244,l),
(48,162,l),
(110,90,l)
);
},
{
closed = 1;
nodes = (
(226,443,l),
(145,528,l),
(75,463,l),
(156,379,l)
);
},
{
closed = 1;
nodes = (
(500,150,l),
(416,239,l),
(346,174,l),
(431,84,l)
);
},
{
closed = 1;
nodes = (
(530,453,l),
(468,526,l),
(375,449,l),
(436,377,l)
);
}
);
width = 565;
},
{
layerId = "731B92CD-F71D-43F6-9B71-33E028774484";
shapes = (
{
closed = 1;
nodes = (
(329,122,o),
(377,146,o),
(410,183,cs),
(443,220,o),
(462,270,o),
(462,319,cs),
(462,366,o),
(444,406,o),
(416,435,cs),
(387,464,o),
(346,482,o),
(298,482,cs),
(241,482,o),
(192,457,o),
(158,421,cs),
(124,384,o),
(104,335,o),
(104,284,cs),
(104,237,o),
(123,197,o),
(153,168,cs),
(183,139,o),
(224,122,o),
(272,122,cs)
);
},
{
closed = 1;
nodes = (
(183,143,o),
(126,201,o),
(126,285,cs),
(126,329,o),
(143,374,o),
(173,407,cs),
(203,439,o),
(245,461,o),
(298,461,cs),
(386,461,o),
(440,402,o),
(440,319,cs),
(440,274,o),
(423,230,o),
(395,198,cs),
(366,165,o),
(323,143,o),
(271,143,cs)
);
},
{
closed = 1;
nodes = (
(161,176,l),
(145,192,l),
(67,128,l),
(81,110,l)
);
},
{
closed = 1;
nodes = (
(189,429,l),
(124,496,l),
(109,480,l),
(172,415,l)
);
},
{
closed = 1;
nodes = (
(460,126,l),
(397,190,l),
(380,176,l),
(445,110,l)
);
},
{
closed = 1;
nodes = (
(502,479,l),
(487,496,l),
(409,431,l),
(424,415,l)
);
}
);
width = 558;
}
);
unicode = 164;
},
{
glyphname = brokenbar;
layers = (
{
layerId = "DCD6D63C-8715-4521-BEFF-523A5C998C9C";
shapes = (
{
closed = 1;
nodes = (
(245,-193,l),
(293,189,l),
(100,189,l),
(52,-193,l)
);
},
{
closed = 1;
nodes = (
(315,358,l),
(363,740,l),
(170,740,l),
(122,358,l)
);
}
);
width = 413;
},
{
layerId = "222DC4F3-8650-441F-8C70-2115B1B3D57E";
shapes = (
{
closed = 1;
nodes = (
(164,-193,l),
(214,207,l),
(117,207,l),
(67,-193,l)
);
},
{
closed = 1;
nodes = (
(232,340,l),
(282,740,l),
(185,740,l),
(135,340,l)
);
}
);
width = 347;
},
{
layerId = "731B92CD-F71D-43F6-9B71-33E028774484";
shapes = (
{
closed = 1;
nodes = (
(104,-193,l),
(155,207,l),
(133,207,l),
(82,-193,l)
);
},
{
closed = 1;
nodes = (
(172,340,l),
(223,740,l),
(201,740,l),
(150,340,l)
);
}
);
width = 302;
}
);
unicode = 166;
},
{
glyphname = section;
layers = (
{
layerId = "DCD6D63C-8715-4521-BEFF-523A5C998C9C";
shapes = (
{
closed = 1;
nodes = (
(353,134,l),
(416,139,o),
(469,157,o),
(507,185,cs),
(545,213,o),
(567,253,o),
(567,302,cs),
(567,334,o),
(557,363,o),
(537,388,cs),
(517,412,o),
(486,433,o),
(446,452,cs),
(366,489,ls),
(329,506,o),
(302,520,o),
(302,544,cs),
(302,555,o),
(306,563,o),
(315,570,cs),
(324,577,o),
(339,580,o),
(360,580,cs),
(397,580,o),
(445,565,o),
(498,518,c),
(614,626,l),
(567,682,o),
(474,719,o),
(367,719,cs),
(288,719,o),
(223,701,o),
(179,670,cs),
(134,638,o),
(108,593,o),
(108,538,cs),
(108,494,o),
(124,458,o),
(154,427,cs),
(184,396,o),
(227,370,o),
(280,345,cs),
(333,320,ls),
(360,307,o),
(372,295,o),
(372,276,cs),
(372,263,o),
(366,250,o),
(355,242,cs),
(343,233,o),
(325,227,o),
(301,224,c)
);
},
{
closed = 1;
nodes = (
(321,-149,o),
(385,-129,o),
(426,-97,cs),
(467,-64,o),
(488,-17,o),
(488,38,cs),
(488,83,o),
(471,116,o),
(442,144,cs),
(413,172,o),
(369,195,o),
(316,219,cs),
(265,242,ls),
(232,257,o),
(218,271,o),
(218,291,cs),
(218,307,o),
(226,320,o),
(239,328,cs),
(252,336,o),
(271,341,o),
(292,342,c),
(243,436,l),
(176,431,o),
(122,412,o),
(86,384,cs),
(49,356,o),
(29,316,o),
(29,268,cs),
(29,199,o),
(69,152,o),
(149,116,cs),
(217,84,ls),
(262,63,o),
(294,49,o),
(294,26,cs),
(294,1,o),
(273,-10,o),
(238,-10,cs),
(201,-10,o),
(157,1,o),
(98,52,c),
(-15,-53,l),
(28,-109,o),
(121,-149,o),
(237,-149,cs)
);
}
);
width = 604;
},
{
layerId = "222DC4F3-8650-441F-8C70-2115B1B3D57E";
shapes = (
{
closed = 1;
nodes = (
(311,153,l),
(364,156,o),
(411,172,o),
(444,197,cs),
(477,222,o),
(499,257,o),
(504,297,cs),
(508,333,o),
(505,364,o),
(488,391,cs),
(471,418,o),
(440,440,o),
(389,456,cs),
(297,486,ls),
(254,501,o),
(222,519,o),
(229,560,c),
(230,577,o),
(241,593,o),
(258,603,cs),
(275,613,o),
(301,619,o),
(333,619,cs),
(381,619,o),
(429,600,o),
(472,563,c),
(545,631,l),
(497,680,o),
(430,714,o),
(338,714,cs),
(270,714,o),
(220,695,o),
(185,668,cs),
(150,640,o),
(133,603,o),
(129,567,c),
(122,519,o),
(133,483,o),
(154,456,c),
(174,428,o),
(207,409,o),
(244,397,cs),
(344,363,ls),
(391,348,o),
(406,328,o),
(401,289,cs),
(397,262,o),
(383,242,o),
(363,230,cs),
(343,217,o),
(315,210,o),
(286,207,c)
);
},
{
closed = 1;
nodes = (
(296,-110,o),
(345,-92,o),
(381,-64,cs),
(417,-36,o),
(439,1,o),
(443,41,c),
(450,88,o),
(442,124,o),
(423,153,c),
(403,181,o),
(372,202,o),
(333,214,cs),
(211,254,l),
(174,265,o),
(160,291,o),
(164,320,cs),
(167,347,o),
(183,366,o),
(205,379,cs),
(227,392,o),
(255,400,o),
(283,403,c),
(260,457,l),
(205,453,o),
(159,437,o),
(125,412,cs),
(91,387,o),
(68,354,o),
(64,317,c),
(53,241,o),
(93,185,o),
(169,161,cs),
(268,129,ls),
(321,112,o),
(345,88,o),
(340,48,cs),
(335,7,o),
(298,-17,o),
(242,-17,cs),
(182,-17,o),
(130,1,o),
(82,44,c),
(13,-22,l),
(60,-73,o),
(129,-110,o),
(236,-110,cs)
);
}
);
width = 561;
},
{
layerId = "731B92CD-F71D-43F6-9B71-33E028774484";
shapes = (
{
closed = 1;
nodes = (
(340,175,l),
(369,183,o),
(397,198,o),
(417,219,cs),
(437,239,o),
(451,266,o),
(455,297,cs),
(459,325,o),
(456,350,o),
(444,372,cs),
(431,394,o),
(408,411,o),
(371,426,cs),
(250,473,ls),
(189,496,o),
(162,530,o),
(170,582,c),
(174,614,o),
(192,641,o),
(218,658,cs),
(244,675,o),
(278,685,o),
(314,685,cs),
(386,685,o),
(438,658,o),
(477,607,c),
(495,622,l),
(454,678,o),
(393,707,o),
(313,707,cs),
(270,707,o),
(231,695,o),
(202,675,cs),
(173,654,o),
(152,623,o),
(148,586,c),
(143,550,o),
(149,523,o),
(165,503,cs),
(181,482,o),
(206,465,o),
(239,452,cs),
(361,404,ls),
(412,384,o),
(439,356,o),
(432,300,cs),
(429,271,o),
(414,247,o),
(393,228,cs),
(372,208,o),
(345,196,o),
(317,189,c)
);
},
{
closed = 1;
nodes = (
(285,-57,o),
(327,-46,o),
(358,-26,cs),
(389,-6,o),
(411,24,o),
(415,63,cs),
(419,95,o),
(412,122,o),
(396,145,cs),
(379,168,o),
(352,186,o),
(316,199,c),
(195,246,ls),
(146,265,o),
(114,294,o),
(121,350,cs),
(125,381,o),
(142,405,o),
(165,424,cs),
(188,443,o),
(215,455,o),
(239,462,c),
(218,476,l),
(190,467,o),
(163,451,o),
(141,431,cs),
(119,410,o),
(103,385,o),
(99,354,c),
(90,297,o),
(110,255,o),
(186,224,c),
(305,178,ls),
(374,151,o),
(397,112,o),
(392,65,cs),
(384,0,o),
(320,-36,o),
(241,-36,cs),
(169,-36,o),
(106,-12,o),
(61,29,c),
(43,12,l),
(92,-33,o),
(162,-57,o),
(241,-57,cs)
);
}
);
width = 532;
}
);
unicode = 167;
},
{
glyphname = copyright;
layers = (
{
layerId = "DCD6D63C-8715-4521-BEFF-523A5C998C9C";
shapes = (
{
closed = 1;
nodes = (
(540,-18,o),
(642,28,o),
(712,100,cs),
(782,172,o),
(820,271,o),
(820,376,cs),
(820,469,o),
(783,556,o),
(719,618,cs),
(654,680,o),
(560,718,o),
(448,718,cs),
(325,718,o),
(225,672,o),
(155,600,cs),
(85,528,o),
(46,429,o),
(46,324,cs),
(46,229,o),
(82,144,o),
(146,82,cs),
(210,20,o),
(303,-18,o),
(416,-18,cs)
);
},
{
closed = 1;
nodes = (
(331,55,o),
(257,83,o),
(205,131,cs),
(153,179,o),
(123,247,o),
(123,328,cs),
(123,429,o),
(161,509,o),
(221,563,cs),
(280,617,o),
(361,645,o),
(449,645,cs),
(536,645,o),
(609,617,o),
(661,569,cs),
(713,521,o),
(743,453,o),
(743,372,cs),
(743,271,o),
(705,192,o),
(646,138,cs),
(586,84,o),
(504,55,o),
(416,55,cs)
);
},
{
closed = 1;
nodes = (
(508,133,o),
(588,168,o),
(611,198,c),
(516,320,l),
(520,327,o),
(477,290,o),
(453,290,cs),
(437,290,o),
(420,295,o),
(408,305,cs),
(396,315,o),
(388,329,o),
(388,349,cs),
(388,370,o),
(397,386,o),
(410,398,cs),
(423,409,o),
(442,415,o),
(459,415,cs),
(531,415,o),
(522,380,o),
(522,380,c),
(645,493,l),
(606,542,o),
(538,571,o),
(466,571,cs),
(378,571,o),
(311,543,o),
(267,500,cs),
(223,456,o),
(201,398,o),
(201,337,cs),
(201,276,o),
(224,225,o),
(264,189,cs),
(304,153,o),
(361,133,o),
(432,133,cs)
);
}
);
width = 845;
},
{
layerId = "222DC4F3-8650-441F-8C70-2115B1B3D57E";
shapes = (
{
closed = 1;
nodes = (
(531,-15,o),
(631,30,o),
(700,101,cs),
(769,172,o),
(809,268,o),
(809,369,cs),
(809,464,o),
(774,550,o),
(713,613,cs),
(652,676,o),
(563,715,o),
(456,715,cs),
(333,715,o),
(232,670,o),
(163,599,cs),
(94,528,o),
(55,432,o),
(55,331,cs),
(55,236,o),
(90,150,o),
(151,87,cs),
(212,24,o),
(300,-15,o),
(408,-15,cs)
);
},
{
closed = 1;
nodes = (
(327,58,o),
(255,90,o),
(206,140,cs),
(157,190,o),
(129,258,o),
(129,333,cs),
(129,414,o),
(160,492,o),
(216,549,cs),
(272,606,o),
(353,643,o),
(450,643,cs),
(537,643,o),
(609,612,o),
(658,562,cs),
(707,512,o),
(735,443,o),
(735,367,cs),
(735,286,o),
(704,209,o),
(648,152,cs),
(592,95,o),
(511,58,o),
(414,58,cs)
);
},
{
closed = 1;
nodes = (
(494,139,o),
(557,163,o),
(582,190,c),
(545,257,l),
(532,241,o),
(485,221,o),
(440,221,cs),
(408,221,o),
(377,232,o),
(355,252,cs),
(333,272,o),
(318,301,o),
(318,340,cs),
(318,384,o),
(336,419,o),
(363,443,cs),
(390,467,o),
(425,479,o),
(461,479,cs),
(506,479,o),
(550,459,o),
(562,440,c),
(617,503,l),
(591,536,o),
(526,561,o),
(459,561,cs),
(402,561,o),
(344,542,o),
(301,504,cs),
(258,466,o),
(229,409,o),
(229,337,cs),
(229,274,o),
(254,225,o),
(292,191,cs),
(330,157,o),
(381,139,o),
(434,139,cs)
);
}
);
width = 843;
},
{
layerId = "731B92CD-F71D-43F6-9B71-33E028774484";
shapes = (
{
closed = 1;
nodes = (
(506,-10,o),
(604,34,o),
(674,104,cs),
(744,174,o),
(787,271,o),
(787,378,cs),
(787,477,o),
(751,560,o),
(692,618,cs),
(632,676,o),
(550,710,o),
(459,710,cs),
(347,710,o),
(250,667,o),
(181,596,cs),
(112,525,o),
(70,428,o),
(70,319,cs),
(70,223,o),
(106,142,o),
(165,83,cs),
(224,24,o),
(306,-10,o),
(395,-10,cs)
);
},
{
closed = 1;
nodes = (
(310,11,o),
(234,44,o),
(180,100,cs),
(126,155,o),
(93,232,o),
(93,319,cs),
(93,424,o),
(134,517,o),
(200,583,cs),
(266,649,o),
(357,689,o),
(458,689,cs),
(546,689,o),
(622,656,o),
(677,601,cs),
(732,546,o),
(764,469,o),
(764,378,cs),
(764,275,o),
(722,184,o),
(655,118,cs),
(588,52,o),
(496,11,o),
(397,11,cs)
);
},
{
closed = 1;
nodes = (
(470,142,o),
(530,166,o),
(550,185,c),
(537,201,l),
(519,185,o),
(475,162,o),
(412,162,cs),
(364,162,o),
(324,180,o),
(296,211,cs),
(268,242,o),
(251,284,o),
(251,331,cs),
(251,384,o),
(272,435,o),
(307,474,cs),
(342,513,o),
(391,538,o),
(448,538,cs),
(515,538,o),
(560,505,o),
(566,492,c),
(583,511,l),
(561,537,o),
(507,559,o),
(450,559,cs),
(382,559,o),
(327,530,o),
(288,487,cs),
(249,444,o),
(228,386,o),
(228,330,cs),
(228,277,o),
(246,231,o),
(278,197,cs),
(310,163,o),
(355,142,o),
(410,142,cs)
);
}
);
width = 835;
}
);
unicode = 169;
},
{
glyphname = ordfeminine;
layers = (
{
layerId = "DCD6D63C-8715-4521-BEFF-523A5C998C9C";
shapes = (
{
closed = 1;
nodes = (
(273,348,o),
(324,383,o),
(348,439,c),
(314,442,l),
(303,354,l),
(432,354,l),
(478,712,l),
(348,712,l),
(337,632,l),
(361,635,l),
(352,660,o),
(334,682,o),
(313,696,cs),
(292,710,o),
(264,718,o),
(232,718,cs),
(172,718,o),
(126,694,o),
(95,658,cs),
(63,622,o),
(47,573,o),
(47,521,cs),
(47,465,o),
(67,421,o),
(99,392,cs),
(130,363,o),
(171,348,o),
(212,348,cs)
);
},
{
closed = 1;
nodes = (
(207,460,o),
(176,485,o),
(176,529,cs),
(176,554,o),
(186,575,o),
(200,588,cs),
(214,601,o),
(234,608,o),
(255,608,cs),
(276,608,o),
(295,601,o),
(308,589,cs),
(321,576,o),
(329,558,o),
(329,537,cs),
(329,513,o),
(321,493,o),
(306,480,cs),
(291,467,o),
(273,460,o),
(250,460,cs)
);
}
);
width = 448;
},
{
layerId = "222DC4F3-8650-441F-8C70-2115B1B3D57E";
shapes = (
{
closed = 1;
nodes = (
(264,366,o),
(326,404,o),
(343,464,c),
(324,453,l),
(315,373,l),
(389,373,l),
(431,708,l),
(356,708,l),
(344,619,l),
(362,592,l),
(362,631,o),
(348,662,o),
(325,683,cs),
(301,704,o),
(269,715,o),
(230,715,cs),
(185,715,o),
(140,696,o),
(107,663,cs),
(74,630,o),
(51,581,o),
(51,522,cs),
(51,478,o),
(67,439,o),
(94,411,cs),
(121,383,o),
(157,366,o),
(200,366,cs)
);
},
{
closed = 1;
nodes = (
(168,441,o),
(137,478,o),
(137,529,cs),
(137,557,o),
(148,585,o),
(167,606,cs),
(186,626,o),
(212,640,o),
(243,640,cs),
(274,640,o),
(296,630,o),
(312,614,cs),
(327,598,o),
(335,576,o),
(335,552,cs),
(335,524,o),
(324,496,o),
(305,476,cs),
(286,455,o),
(259,441,o),
(224,441,cs)
);
}
);
width = 410;
},
{
layerId = "731B92CD-F71D-43F6-9B71-33E028774484";
shapes = (
{
closed = 1;
nodes = (
(288,389,o),
(339,432,o),
(362,496,c),
(351,486,l),
(341,393,l),
(359,393,l),
(399,705,l),
(381,705,l),
(364,591,l),
(371,596,l),
(368,627,o),
(354,656,o),
(331,677,c),
(307,697,o),
(275,710,o),
(239,710,cs),
(190,710,o),
(149,689,o),
(121,657,cs),
(93,625,o),
(77,582,o),
(77,538,cs),
(77,494,o),
(91,458,o),
(116,431,cs),
(140,404,o),
(177,389,o),
(221,389,cs)
);
},
{
closed = 1;
nodes = (
(150,408,o),
(99,456,o),
(99,539,cs),
(99,586,o),
(115,625,o),
(141,651,cs),
(167,677,o),
(201,691,o),
(240,691,cs),
(273,691,o),
(304,679,o),
(326,657,cs),
(348,635,o),
(361,601,o),
(361,561,cs),
(361,516,o),
(345,477,o),
(319,450,cs),
(293,423,o),
(259,408,o),
(223,408,cs)
);
}
);
width = 397;
}
);
leftKerningGroup = degree2;
rightKerningGroup = degree;
unicode = 170;
},
{
glyphname = logicalnot;
layers = (
{
layerId = "DCD6D63C-8715-4521-BEFF-523A5C998C9C";
shapes = (
{
closed = 1;
nodes = (
(623,97,l),
(667,439,l),
(67,439,l),
(45,269,l),
(559,269,l),
(469,334,l),
(438,97,l)
);
}
);
width = 690;
},
{
layerId = "222DC4F3-8650-441F-8C70-2115B1B3D57E";
shapes = (
{
closed = 1;
nodes = (
(605,108,l),
(643,404,l),
(73,404,l),
(60,303,l),
(544,303,l),
(527,319,l),
(500,108,l)
);
}
);
width = 680;
},
{
layerId = "731B92CD-F71D-43F6-9B71-33E028774484";
shapes = (
{
closed = 1;
nodes = (
(586,117,l),
(621,389,l),
(81,389,l),
(79,368,l),
(608,368,l),
(598,379,l),
(564,117,l)
);
}
);
width = 670;
}
);
unicode = 172;
},
{
glyphname = registered;
layers = (
{
layerId = "DCD6D63C-8715-4521-BEFF-523A5C998C9C";
shapes = (
{
closed = 1;
nodes = (
(373,188,o),
(443,223,o),
(492,276,cs),
(540,328,o),
(568,399,o),
(568,472,cs),
(568,539,o),
(544,600,o),
(501,645,cs),
(458,690,o),
(398,718,o),
(323,718,cs),
(238,718,o),
(166,683,o),
(117,631,cs),
(68,578,o),
(39,507,o),
(39,434,cs),
(39,367,o),
(63,305,o),
(107,261,cs),
(150,216,o),
(213,188,o),
(289,188,cs)
);
},
{
closed = 1;
nodes = (
(236,252,o),
(188,273,o),
(156,307,cs),
(123,341,o),
(104,387,o),
(104,436,cs),
(104,492,o),
(126,546,o),
(164,587,cs),
(202,627,o),
(255,654,o),
(319,654,cs),
(375,654,o),
(421,634,o),
(453,600,cs),
(485,566,o),
(503,521,o),
(503,470,cs),
(503,414,o),
(481,360,o),
(445,320,cs),
(408,279,o),
(356,252,o),
(293,252,cs)
);
},
{
closed = 1;
nodes = (
(269,337,l),
(280,420,l),
(321,420,ls),
(350,420,o),
(376,428,o),
(396,444,cs),
(415,460,o),
(427,483,o),
(427,511,cs),
(427,554,o),
(394,585,o),
(342,585,cs),
(207,585,l),
(175,337,l)
);
},
{
closed = 1;
nodes = (
(293,524,l),
(314,524,ls),
(333,524,o),
(341,516,o),
(341,503,cs),
(341,484,o),
(328,474,o),
(309,474,cs),
(287,474,l)
);
},
{
closed = 1;
nodes = (
(431,337,l),
(367,448,l),
(281,438,l),
(330,337,l)
);
}
);
width = 559;
},
{
layerId = "222DC4F3-8650-441F-8C70-2115B1B3D57E";
shapes = (
{
closed = 1;
nodes = (
(368,233,o),
(434,264,o),
(480,312,cs),
(526,359,o),
(551,423,o),
(551,490,cs),
(551,550,o),
(528,607,o),
(488,648,cs),
(448,689,o),
(390,715,o),
(319,715,cs),
(240,715,o),
(176,684,o),
(130,637,cs),
(84,589,o),
(57,526,o),
(57,459,cs),
(57,398,o),
(80,341,o),
(120,300,cs),
(160,259,o),
(218,233,o),
(289,233,cs)
);
},
{
closed = 1;
nodes = (
(238,293,o),
(194,312,o),
(163,343,cs),
(132,374,o),
(115,416,o),
(115,461,cs),
(115,512,o),
(135,560,o),
(171,596,cs),
(206,632,o),
(257,656,o),
(317,656,cs),
(370,656,o),
(415,637,o),
(445,606,cs),
(475,574,o),
(491,532,o),
(491,487,cs),
(491,438,o),
(472,389,o),
(437,353,cs),
(401,317,o),
(351,293,o),
(291,293,cs)
);
},
{
closed = 1;
nodes = (
(257,349,l),
(269,443,l),
(321,443,ls),
(349,443,o),
(374,454,o),
(391,471,cs),
(408,488,o),
(419,511,o),
(419,532,cs),
(419,577,o),
(389,605,o),
(342,605,cs),
(224,605,l),
(190,349,l)
);
},
{
closed = 1;
nodes = (
(282,551,l),
(326,551,ls),
(345,551,o),
(356,541,o),
(356,525,cs),
(356,505,o),
(339,494,o),
(319,494,cs),
(275,494,l)
);
},
{
closed = 1;
nodes = (
(405,349,l),
(347,473,l),
(285,461,l),
(338,349,l)
);
}
);
width = 555;
},
{
layerId = "731B92CD-F71D-43F6-9B71-33E028774484";
shapes = (
{
closed = 1;
nodes = (
(357,258,o),
(418,287,o),
(462,332,cs),
(506,377,o),
(531,439,o),
(531,503,cs),
(531,563,o),
(508,614,o),
(469,651,cs),
(430,688,o),
(376,710,o),
(316,710,cs),
(243,710,o),
(181,681,o),
(137,636,cs),
(93,591,o),
(68,529,o),
(68,465,cs),
(68,405,o),
(91,354,o),
(130,317,cs),
(169,280,o),
(222,258,o),
(282,258,cs)
);
},
{
closed = 1;
nodes = (
(227,277,o),
(179,298,o),
(144,331,cs),
(109,364,o),
(89,412,o),
(89,465,cs),
(89,528,o),
(113,584,o),
(153,625,cs),
(193,666,o),
(250,691,o),
(315,691,cs),
(371,691,o),
(420,672,o),
(455,638,cs),
(490,604,o),
(510,558,o),
(510,503,cs),
(510,442,o),
(486,384,o),
(446,344,cs),
(405,303,o),
(348,277,o),
(283,277,cs)
);
},
{
closed = 1;
nodes = (
(236,368,l),
(248,465,l),
(301,465,ls),
(326,465,o),
(347,473,o),
(363,488,cs),
(378,503,o),
(386,523,o),
(386,547,cs),
(386,580,o),
(363,607,o),
(318,607,cs),
(246,607,l),
(216,368,l)
);
},
{
closed = 1;
nodes = (
(264,588,l),
(316,588,ls),
(347,588,o),
(365,571,o),
(365,544,cs),
(365,505,o),
(338,485,o),
(301,485,cs),
(251,485,l)
);
},
{
closed = 1;
nodes = (
(373,368,l),
(323,475,l),
(303,469,l),
(351,368,l)
);
}
);
width = 542;
}
);
unicode = 174;
},
{
glyphname = degree;
layers = (
{
layerId = "DCD6D63C-8715-4521-BEFF-523A5C998C9C";
shapes = (
{
closed = 1;
nodes = (
(330,338,o),
(384,362,o),
(421,399,cs),
(458,436,o),
(479,488,o),
(479,543,cs),
(479,590,o),
(460,634,o),
(426,666,cs),
(392,698,o),
(344,718,o),
(287,718,cs),
(222,718,o),
(168,695,o),
(131,657,cs),
(94,619,o),
(73,568,o),
(73,512,cs),
(73,465,o),
(94,422,o),
(128,390,cs),
(162,358,o),
(209,338,o),
(265,338,cs)
);
},
{
closed = 1;
nodes = (
(255,464,o),
(240,470,o),
(229,481,cs),
(218,492,o),
(213,507,o),
(213,523,cs),
(213,542,o),
(219,558,o),
(231,571,cs),
(243,584,o),
(260,592,o),
(281,592,cs),
(300,592,o),
(314,586,o),
(324,575,cs),
(334,564,o),
(339,549,o),
(339,533,cs),
(339,516,o),
(332,498,o),
(321,485,cs),
(309,472,o),
(292,464,o),
(272,464,cs)
);
}
);
width = 485;
},
{
layerId = "222DC4F3-8650-441F-8C70-2115B1B3D57E";
shapes = (
{
closed = 1;
nodes = (
(321,353,o),
(369,376,o),
(402,411,cs),
(434,446,o),
(453,495,o),
(453,544,cs),
(453,589,o),
(437,632,o),
(407,664,cs),
(377,695,o),
(334,715,o),
(279,715,cs),
(222,715,o),
(174,692,o),
(141,657,cs),
(108,621,o),
(90,573,o),
(90,524,cs),
(90,479,o),
(107,435,o),
(137,404,cs),
(167,373,o),
(211,353,o),
(264,353,cs)
);
},
{
closed = 1;
nodes = (
(237,436,o),
(215,447,o),
(200,464,c),
(184,480,o),
(175,503,o),
(175,528,cs),
(175,555,o),
(185,580,o),
(203,600,cs),
(221,619,o),
(246,631,o),
(277,631,cs),
(305,631,o),
(327,620,o),
(343,604,cs),
(359,587,o),
(367,564,o),
(367,540,cs),
(367,513,o),
(358,487,o),
(340,468,cs),
(322,448,o),
(297,436,o),
(265,436,cs)
);
}
);
width = 474;
},
{
layerId = "731B92CD-F71D-43F6-9B71-33E028774484";
shapes = (
{
closed = 1;
nodes = (
(310,400,o),
(353,420,o),
(383,452,cs),
(413,483,o),
(431,525,o),
(431,569,cs),
(431,609,o),
(417,645,o),
(391,670,cs),
(365,694,o),
(329,710,o),
(285,710,cs),
(236,710,o),
(194,690,o),
(164,659,cs),
(134,627,o),
(116,584,o),
(116,540,cs),
(116,501,o),
(131,466,o),
(157,441,cs),
(183,416,o),
(218,400,o),
(261,400,cs)
);
},
{
closed = 1;
nodes = (
(226,421,o),
(196,435,o),
(174,456,cs),
(152,477,o),
(138,508,o),
(138,541,cs),
(138,577,o),
(153,614,o),
(179,642,cs),
(205,670,o),
(241,689,o),
(284,689,cs),
(320,689,o),
(352,675,o),
(374,654,cs),
(396,633,o),
(409,602,o),
(409,569,cs),
(409,533,o),
(395,496,o),
(369,468,cs),
(343,440,o),
(306,421,o),
(262,421,cs)
);
}
);
width = 472;
}
);
leftKerningGroup = degree2;
rightKerningGroup = degree;
unicode = 176;
},
{
glyphname = plusminus;
layers = (
{
layerId = "DCD6D63C-8715-4521-BEFF-523A5C998C9C";
shapes = (
{
closed = 1;
nodes = (
(386,214,l),
(437,607,l),
(252,607,l),
(201,214,l)
);
},
{
closed = 1;
nodes = (
(565,333,l),
(585,493,l),
(74,493,l),
(54,333,l)
);
},
{
closed = 1;
nodes = (
(521,-10,l),
(541,150,l),
(33,150,l),
(13,-10,l)
);
}
);
width = 601;
},
{
layerId = "222DC4F3-8650-441F-8C70-2115B1B3D57E";
shapes = (
{
closed = 1;
nodes = (
(339,165,l),
(386,532,l),
(281,532,l),
(234,165,l)
);
},
{
closed = 1;
nodes = (
(555,298,l),
(568,399,l),
(67,399,l),
(54,298,l)
);
},
{
closed = 1;
nodes = (
(517,0,l),
(530,101,l),
(29,101,l),
(16,0,l)
);
}
);
width = 601;
},
{
layerId = "731B92CD-F71D-43F6-9B71-33E028774484";
shapes = (
{
closed = 1;
nodes = (
(293,163,l),
(339,525,l),
(317,525,l),
(271,163,l)
);
},
{
closed = 1;
nodes = (
(540,337,l),
(542,358,l),
(72,358,l),
(70,337,l)
);
},
{
closed = 1;
nodes = (
(502,42,l),
(505,63,l),
(35,63,l),
(32,42,l)
);
}
);
width = 590;
}
);
unicode = 177;
},
{
glyphname = micro;
layers = (
{
layerId = "DCD6D63C-8715-4521-BEFF-523A5C998C9C";
shapes = (
{
closed = 1;
nodes = (
(204,-165,l),
(234,69,l),
(162,-4,l),
(178,-8,o),
(196,-13,o),
(219,-12,cs),
(258,-11,o),
(286,-3,o),
(313,13,cs),
(340,29,o),
(366,54,o),
(398,91,c),
(369,89,l),
(369,0,l),
(555,0,l),
(623,535,l),
(420,535,l),
(379,217,l),
(378,200,o),
(368,183,o),
(356,172,cs),
(343,161,o),
(325,154,o),
(305,154,cs),
(265,154,o),
(248,179,o),
(253,222,cs),
(293,535,l),
(89,535,l),
(0,-165,l)
);
}
);
width = 644;
},
{
layerId = "222DC4F3-8650-441F-8C70-2115B1B3D57E";
shapes = (
{
closed = 1;
nodes = (
(112,-157,l),
(140,62,l),
(91,55,l),
(100,15,o),
(156,-13,o),
(220,-13,cs),
(256,-13,o),
(295,-1,o),
(329,20,cs),
(363,40,o),
(392,71,o),
(411,110,c),
(392,114,l),
(378,0,l),
(481,0,l),
(549,532,l),
(446,532,l),
(407,234,l),
(400,190,o),
(382,153,o),
(357,126,cs),
(332,98,o),
(299,82,o),
(260,82,cs),
(188,82,o),
(150,128,o),
(161,216,cs),
(202,532,l),
(99,532,l),
(11,-157,l)
);
}
);
width = 580;
},
{
layerId = "731B92CD-F71D-43F6-9B71-33E028774484";
shapes = (
{
closed = 1;
nodes = (
(54,-157,l),
(89,113,l),
(74,137,l),
(83,36,o),
(146,-8,o),
(239,-8,cs),
(282,-8,o),
(327,6,o),
(365,31,cs),
(403,56,o),
(435,92,o),
(452,137,c),
(438,131,l),
(425,0,l),
(445,0,l),
(511,525,l),
(489,525,l),
(442,162,l),
(439,133,o),
(414,95,o),
(378,66,cs),
(342,37,o),
(294,14,o),
(243,14,cs),
(130,14,o),
(83,75,o),
(100,211,cs),
(140,525,l),
(118,525,l),
(32,-157,l)
);
}
);
width = 563;
}
);
unicode = 181;
},
{
glyphname = paragraph;
layers = (
{
layerId = "DCD6D63C-8715-4521-BEFF-523A5C998C9C";
shapes = (
{
closed = 1;
nodes = (
(402,0,l),
(485,652,l),
(364,536,l),
(620,536,l),
(562,660,l),
(478,0,l),
(686,0,l),
(775,700,l),
(301,700,ls),
(230,700,o),
(171,678,o),
(128,642,cs),
(84,605,o),
(57,552,o),
(50,491,cs),
(42,427,o),
(56,372,o),
(87,332,cs),
(118,292,o),
(166,269,o),
(226,269,cs),
(292,269,l),
(234,314,l),
(194,0,l)
);
}
);
width = 790;
},
{
layerId = "222DC4F3-8650-441F-8C70-2115B1B3D57E";
shapes = (
{
closed = 1;
nodes = (
(343,0,l),
(426,652,l),
(348,596,l),
(530,596,l),
(522,660,l),
(438,0,l),
(546,0,l),
(635,700,l),
(311,700,ls),
(243,700,o),
(184,679,o),
(140,643,cs),
(96,606,o),
(68,554,o),
(60,494,cs),
(51,429,o),
(68,375,o),
(101,338,cs),
(133,301,o),
(183,279,o),
(240,279,cs),
(294,279,l),
(275,314,l),
(235,0,l)
);
}
);
width = 665;
},
{
layerId = "731B92CD-F71D-43F6-9B71-33E028774484";
shapes = (
{
closed = 1;
nodes = (
(296,0,l),
(383,690,l),
(370,679,l),
(510,679,l),
(501,690,l),
(414,0,l),
(436,0,l),
(524,700,l),
(325,700,ls),
(257,700,o),
(198,681,o),
(155,646,cs),
(112,611,o),
(84,561,o),
(76,497,cs),
(68,434,o),
(80,380,o),
(109,341,cs),
(138,302,o),
(184,279,o),
(241,279,cs),
(320,279,l),
(310,291,l),
(274,0,l)
);
}
);
width = 574;
}
);
unicode = 182;
},
{
glyphname = ordmasculine;
layers = (
{
layerId = "DCD6D63C-8715-4521-BEFF-523A5C998C9C";
shapes = (
{
closed = 1;
nodes = (
(306,348,o),
(358,370,o),
(395,405,cs),
(431,440,o),
(452,488,o),
(452,541,cs),
(452,589,o),
(434,634,o),
(400,666,cs),
(366,698,o),
(317,718,o),
(254,718,cs),
(193,718,o),
(140,697,o),
(104,662,cs),
(68,626,o),
(47,578,o),
(47,526,cs),
(47,477,o),
(66,432,o),
(100,400,cs),
(134,368,o),
(182,348,o),
(245,348,cs)
);
},
{
closed = 1;
nodes = (
(203,459,o),
(179,490,o),
(179,529,cs),
(179,550,o),
(186,570,o),
(199,584,cs),
(211,598,o),
(230,606,o),
(253,606,cs),
(296,606,o),
(320,576,o),
(320,537,cs),
(320,517,o),
(313,498,o),
(301,483,cs),
(289,468,o),
(271,459,o),
(247,459,cs)
);
}
);
width = 431;
},
{
layerId = "222DC4F3-8650-441F-8C70-2115B1B3D57E";
shapes = (
{
closed = 1;
nodes = (
(287,366,o),
(334,388,o),
(367,421,cs),
(399,454,o),
(417,500,o),
(417,548,cs),
(417,593,o),
(401,634,o),
(370,665,cs),
(339,696,o),
(296,715,o),
(241,715,cs),
(184,715,o),
(137,693,o),
(105,661,cs),
(72,628,o),
(54,583,o),
(54,535,cs),
(54,490,o),
(70,447,o),
(101,416,cs),
(132,385,o),
(176,366,o),
(231,366,cs)
);
},
{
closed = 1;
nodes = (
(174,441,o),
(140,484,o),
(140,537,cs),
(140,564,o),
(150,589,o),
(167,609,cs),
(184,628,o),
(209,640,o),
(240,640,cs),
(297,640,o),
(332,597,o),
(332,546,cs),
(332,519,o),
(322,493,o),
(305,474,cs),
(288,454,o),
(262,441,o),
(231,441,cs)
);
}
);
width = 401;
},
{
layerId = "731B92CD-F71D-43F6-9B71-33E028774484";
shapes = (
{
closed = 1;
nodes = (
(274,390,o),
(316,411,o),
(345,444,cs),
(374,476,o),
(391,520,o),
(391,565,cs),
(391,608,o),
(376,644,o),
(352,670,cs),
(327,696,o),
(290,710,o),
(246,710,cs),
(194,710,o),
(153,689,o),
(123,657,cs),
(93,625,o),
(76,581,o),
(76,536,cs),
(76,493,o),
(91,458,o),
(116,432,cs),
(141,406,o),
(178,390,o),
(222,390,cs)
);
},
{
closed = 1;
nodes = (
(145,409,o),
(96,461,o),
(96,537,cs),
(96,577,o),
(111,616,o),
(137,644,cs),
(163,672,o),
(201,691,o),
(246,691,cs),
(322,691,o),
(371,639,o),
(371,564,cs),
(371,524,o),
(357,485,o),
(331,457,cs),
(305,428,o),
(267,409,o),
(222,409,cs)
);
}
);
width = 394;
}
);
leftKerningGroup = degree2;
rightKerningGroup = degree;
unicode = 186;
},
{
glyphname = guillemotright;
layers = (
{
layerId = "DCD6D63C-8715-4521-BEFF-523A5C998C9C";
shapes = (
{
closed = 1;
nodes = (
(36,431,l),
(153,226,l),
(143,289,l),
(-7,86,l),
(98,9,l),
(313,245,l),
(315,272,l),
(150,508,l)
);
},
{
closed = 1;
nodes = (
(306,431,l),
(423,226,l),
(413,289,l),
(263,86,l),
(368,9,l),
(583,245,l),
(585,272,l),
(420,508,l)
);
}
);
width = 600;
},
{
layerId = "222DC4F3-8650-441F-8C70-2115B1B3D57E";
shapes = (
{
closed = 1;
nodes = (
(47,431,l),
(172,247,l),
(172,277,l),
(5,95,l),
(64,47,l),
(260,249,l),
(262,271,l),
(109,473,l)
);
},
{
closed = 1;
nodes = (
(261,431,l),
(386,247,l),
(386,277,l),
(219,95,l),
(278,47,l),
(474,249,l),
(476,271,l),
(323,473,l)
);
}
);
width = 500;
},
{
layerId = "731B92CD-F71D-43F6-9B71-33E028774484";
shapes = (
{
closed = 1;
nodes = (
(64,444,l),
(211,255,l),
(209,273,l),
(18,87,l),
(35,73,l),
(229,261,l),
(229,269,l),
(83,457,l)
);
},
{
closed = 1;
nodes = (
(246,444,l),
(393,255,l),
(391,273,l),
(200,87,l),
(217,73,l),
(411,261,l),
(411,269,l),
(265,457,l)
);
}
);
width = 450;
}
);
leftKerningGroup = guillemotright2;
rightKerningGroup = guillemotright;
unicode = 187;
},
{
glyphname = questiondown;
layers = (
{
layerId = "DCD6D63C-8715-4521-BEFF-523A5C998C9C";
shapes = (
{
closed = 1;
nodes = (
(291,546,o),
(265,532,o),
(248,512,cs),
(231,492,o),
(222,465,o),
(222,438,cs),
(222,383,o),
(258,346,o),
(314,346,cs),
(349,346,o),
(375,360,o),
(393,381,cs),
(409,400,o),
(419,426,o),
(419,455,cs),
(419,513,o),
(379,546,o),
(326,546,cs)
);
},
{
closed = 1;
nodes = (
(246,317,l),
(168,249,l),
(210,229,ls),
(232,219,o),
(241,208,o),
(241,200,cs),
(241,190,o),
(227,182,o),
(199,171,cs),
(168,159,ls),
(82,126,o),
(33,81,o),
(33,-7,cs),
(33,-136,o),
(140,-185,o),
(245,-185,cs),
(359,-185,o),
(440,-128,o),
(478,-75,c),
(385,22,l),
(361,-17,o),
(311,-30,o),
(281,-30,cs),
(244,-30,o),
(240,-10,o),
(240,4,cs),
(240,37,o),
(264,62,o),
(296,75,cs),
(324,86,ls),
(372,105,o),
(426,136,o),
(426,192,cs),
(426,239,o),
(387,272,o),
(306,298,cs)
);
}
);
width = 560;
},
{
layerId = "222DC4F3-8650-441F-8C70-2115B1B3D57E";
shapes = (
{
closed = 1;
nodes = (
(276,543,o),
(259,534,o),
(248,521,cs),
(236,508,o),
(230,490,o),
(230,472,cs),
(229,434,o),
(253,407,o),
(292,407,cs),
(315,407,o),
(333,416,o),
(345,430,cs),
(356,442,o),
(363,459,o),
(363,478,c),
(365,519,o),
(338,543,o),
(300,543,cs)
);
},
{
closed = 1;
nodes = (
(237,342,l),
(189,298,l),
(233,277,ls),
(256,266,o),
(262,241,o),
(262,227,cs),
(262,201,o),
(241,189,o),
(202,170,cs),
(162,151,ls),
(83,113,o),
(32,67,o),
(32,-19,cs),
(32,-134,o),
(122,-180,o),
(217,-180,cs),
(309,-180,o),
(378,-136,o),
(415,-93,c),
(351,-27,l),
(320,-61,o),
(278,-87,o),
(236,-87,cs),
(182,-87,o),
(154,-56,o),
(154,-13,cs),
(154,39,o),
(194,68,o),
(243,89,cs),
(264,98,ls),
(316,120,o),
(373,157,o),
(373,219,cs),
(373,258,o),
(350,300,o),
(293,321,cs)
);
}
);
width = 513;
},
{
layerId = "731B92CD-F71D-43F6-9B71-33E028774484";
shapes = (
{
closed = 1;
nodes = (
(259,540,o),
(252,537,o),
(247,532,cs),
(242,527,o),
(239,519,o),
(238,510,cs),
(237,492,o),
(247,478,o),
(266,478,cs),
(275,478,o),
(284,481,o),
(289,485,cs),
(294,490,o),
(297,498,o),
(298,506,cs),
(301,526,o),
(290,540,o),
(269,540,cs)
);
},
{
closed = 1;
nodes = (
(226,370,l),
(212,354,l),
(259,311,ls),
(280,292,o),
(286,280,o),
(286,259,cs),
(286,213,o),
(257,182,o),
(205,154,cs),
(155,127,ls),
(81,87,o),
(30,50,o),
(30,-34,cs),
(30,-132,o),
(100,-174,o),
(182,-174,cs),
(251,-174,o),
(305,-145,o),
(341,-114,c),
(327,-98,l),
(286,-127,o),
(239,-153,o),
(183,-153,cs),
(110,-153,o),
(54,-110,o),
(54,-36,cs),
(54,42,o),
(115,83,o),
(181,116,cs),
(193,122,ls),
(250,151,o),
(311,182,o),
(311,253,cs),
(311,279,o),
(303,305,o),
(278,326,cs)
);
}
);
width = 458;
}
);
unicode = 191;
},
{
glyphname = AE;
layers = (
{
layerId = "DCD6D63C-8715-4521-BEFF-523A5C998C9C";
shapes = (
{
closed = 1;
nodes = (
(189,0,l),
(627,555,l),
(587,558,l),
(552,291,l),
(389,291,l),
(259,144,l),
(534,144,l),
(515,0,l),
(1056,0,l),
(1079,175,l),
(754,175,l),
(766,272,l),
(1033,272,l),
(1054,436,l),
(787,436,l),
(798,525,l),
(1117,525,l),
(1140,700,l),
(522,700,l),
(-64,0,l)
);
}
);
width = 1131;
},
{
layerId = "222DC4F3-8650-441F-8C70-2115B1B3D57E";
shapes = (
{
closed = 1;
nodes = (
(76,0,l),
(558,588,l),
(540,588,l),
(498,262,l),
(239,262,l),
(163,158,l),
(486,158,l),
(464,0,l),
(908,0,l),
(921,104,l),
(586,104,l),
(612,307,l),
(890,307,l),
(903,411,l),
(625,411,l),
(649,596,l),
(978,596,l),
(991,700,l),
(516,700,l),
(-50,0,l)
);
}
);
width = 986;
},
{
layerId = "731B92CD-F71D-43F6-9B71-33E028774484";
shapes = (
{
closed = 1;
nodes = (
(-3,0,l),
(547,687,l),
(541,691,l),
(484,238,l),
(180,238,l),
(162,217,l),
(481,217,l),
(454,0,l),
(829,0,l),
(831,21,l),
(478,21,l),
(520,351,l),
(816,351,l),
(819,372,l),
(523,372,l),
(561,679,l),
(914,679,l),
(917,700,l),
(530,700,l),
(-33,0,l)
);
}
);
width = 927;
}
);
leftKerningGroup = AE;
rightKerningGroup = E;
unicode = 198;
},
{
glyphname = multiply;
layers = (
{
layerId = "DCD6D63C-8715-4521-BEFF-523A5C998C9C";
shapes = (
{
closed = 1;
nodes = (
(-5,162,l),
(396,523,l),
(512,398,l),
(109,34,l)
);
},
{
closed = 1;
nodes = (
(27,413,l),
(156,523,l),
(480,148,l),
(353,34,l)
);
}
);
width = 504;
},
{
layerId = "222DC4F3-8650-441F-8C70-2115B1B3D57E";
shapes = (
{
closed = 1;
nodes = (
(-4,117,l),
(437,512,l),
(502,441,l),
(62,46,l)
);
},
{
closed = 1;
nodes = (
(39,449,l),
(114,512,l),
(460,108,l),
(385,46,l)
);
}
);
width = 495;
},
{
layerId = "731B92CD-F71D-43F6-9B71-33E028774484";
shapes = (
{
closed = 1;
nodes = (
(22,120,l),
(408,464,l),
(423,447,l),
(37,104,l)
);
},
{
closed = 1;
nodes = (
(68,449,l),
(84,462,l),
(386,120,l),
(370,105,l)
);
}
);
width = 444;
}
);
unicode = 215;
},
{
glyphname = Thorn;
layers = (
{
layerId = "DCD6D63C-8715-4521-BEFF-523A5C998C9C";
shapes = (
{
closed = 1;
nodes = (
(252,0,l),
(266,108,l),
(365,108,ls),
(438,108,o),
(503,131,o),
(552,172,cs),
(600,213,o),
(633,274,o),
(642,347,c),
(653,423,o),
(633,486,o),
(593,530,cs),
(552,574,o),
(489,600,o),
(413,600,cs),
(328,600,l),
(341,700,l),
(125,700,l),
(36,0,l)
);
},
{
closed = 1;
nodes = (
(305,418,l),
(366,418,ls),
(405,418,o),
(429,396,o),
(424,355,cs),
(421,335,o),
(413,319,o),
(401,308,cs),
(389,296,o),
(372,291,o),
(353,291,cs),
(289,291,l)
);
}
);
width = 653;
},
{
layerId = "222DC4F3-8650-441F-8C70-2115B1B3D57E";
shapes = (
{
closed = 1;
nodes = (
(159,0,l),
(177,141,l),
(342,141,ls),
(411,141,o),
(471,168,o),
(515,210,cs),
(558,252,o),
(583,312,o),
(583,377,cs),
(583,436,o),
(562,484,o),
(527,519,cs),
(492,554,o),
(444,573,o),
(388,573,cs),
(232,573,l),
(249,700,l),
(141,700,l),
(51,0,l)
);
},
{
closed = 1;
nodes = (
(219,469,l),
(376,469,ls),
(432,469,o),
(473,429,o),
(473,373,cs),
(473,340,o),
(461,307,o),
(440,284,cs),
(419,260,o),
(387,245,o),
(350,245,cs),
(191,245,l)
);
}
);
width = 601;
},
{
layerId = "731B92CD-F71D-43F6-9B71-33E028774484";
shapes = (
{
closed = 1;
nodes = (
(94,0,l),
(116,171,l),
(310,171,ls),
(370,171,o),
(424,196,o),
(462,235,cs),
(500,274,o),
(522,327,o),
(522,384,cs),
(522,433,o),
(505,473,o),
(476,501,cs),
(447,528,o),
(403,543,o),
(351,543,cs),
(163,543,l),
(183,700,l),
(161,700,l),
(72,0,l)
);
},
{
closed = 1;
nodes = (
(160,522,l),
(355,522,ls),
(451,522,o),
(499,467,o),
(499,384,cs),
(499,333,o),
(479,285,o),
(446,250,cs),
(413,214,o),
(365,192,o),
(309,192,cs),
(119,192,l)
);
}
);
width = 551;
}
);
leftKerningGroup = B;
unicode = 222;
},
{
glyphname = germandbls;
layers = (
{
layerId = "DCD6D63C-8715-4521-BEFF-523A5C998C9C";
shapes = (
{
closed = 1;
nodes = (
(506,-13,o),
(560,9,o),
(598,47,cs),
(636,85,o),
(657,140,o),
(657,205,cs),
(657,256,o),
(642,301,o),
(612,340,cs),
(582,379,o),
(539,409,o),
(484,432,c),
(482,389,l),
(526,398,o),
(563,425,o),
(589,461,cs),
(615,497,o),
(630,541,o),
(630,582,cs),
(630,630,o),
(610,673,o),
(571,704,cs),
(532,735,o),
(475,753,o),
(402,753,cs),
(317,753,o),
(252,730,o),
(206,690,cs),
(160,649,o),
(132,590,o),
(123,519,cs),
(57,0,l),
(260,0,l),
(325,521,l),
(332,560,o),
(351,583,o),
(387,583,cs),
(403,583,o),
(416,578,o),
(425,570,c),
(433,561,o),
(438,548,o),
(438,533,cs),
(438,513,o),
(433,493,o),
(421,477,cs),
(409,460,o),
(392,446,o),
(368,434,c),
(355,328,l),
(383,315,o),
(410,298,o),
(430,278,cs),
(449,258,o),
(462,235,o),
(462,210,cs),
(462,194,o),
(457,180,o),
(449,172,cs),
(441,163,o),
(429,158,o),
(413,158,cs),
(398,158,o),
(384,163,o),
(371,172,c),
(291,36,l),
(324,5,o),
(381,-13,o),
(442,-13,cs)
);
},
{
closed = 1;
nodes = (
(194,365,l),
(215,535,l),
(52,535,l),
(31,365,l)
);
}
);
width = 682;
},
{
layerId = "222DC4F3-8650-441F-8C70-2115B1B3D57E";
shapes = (
{
closed = 1;
nodes = (
(462,-13,o),
(514,8,o),
(552,46,cs),
(590,84,o),
(615,138,o),
(615,209,cs),
(615,270,o),
(596,324,o),
(564,365,cs),
(532,406,o),
(486,437,o),
(434,450,c),
(453,428,l),
(497,437,o),
(532,461,o),
(556,491,cs),
(579,521,o),
(592,557,o),
(592,593,cs),
(592,637,o),
(576,678,o),
(544,707,cs),
(512,735,o),
(465,753,o),
(404,753,cs),
(331,753,o),
(270,730,o),
(226,690,cs),
(181,650,o),
(152,592,o),
(143,523,cs),
(80,0,l),
(183,0,l),
(250,514,ls),
(261,601,o),
(308,655,o),
(391,655,cs),
(426,655,o),
(449,646,o),
(465,634,cs),
(481,621,o),
(488,603,o),
(488,583,cs),
(488,558,o),
(478,532,o),
(457,510,cs),
(436,488,o),
(406,470,o),
(363,462,c),
(353,394,l),
(408,381,o),
(448,360,o),
(473,330,cs),
(498,300,o),
(510,261,o),
(510,214,cs),
(510,173,o),
(498,141,o),
(479,119,cs),
(459,97,o),
(432,85,o),
(400,85,cs),
(365,85,o),
(329,96,o),
(302,127,c),
(233,58,l),
(285,6,o),
(343,-13,o),
(410,-13,cs)
);
},
{
closed = 1;
nodes = (
(190,432,l),
(203,532,l),
(54,532,l),
(41,432,l)
);
}
);
width = 670;
},
{
layerId = "731B92CD-F71D-43F6-9B71-33E028774484";
shapes = (
{
closed = 1;
nodes = (
(418,-8,o),
(469,12,o),
(508,49,cs),
(547,85,o),
(570,138,o),
(570,202,cs),
(570,247,o),
(557,293,o),
(524,334,cs),
(491,375,o),
(437,412,o),
(356,437,c),
(356,427,l),
(415,427,o),
(463,449,o),
(497,482,cs),
(531,515,o),
(550,559,o),
(550,603,cs),
(550,643,o),
(537,680,o),
(511,706,cs),
(485,732,o),
(446,748,o),
(397,748,cs),
(336,748,o),
(286,728,o),
(249,691,cs),
(212,654,o),
(188,599,o),
(180,528,cs),
(112,0,l),
(134,0,l),
(202,528,ls),
(217,659,o),
(283,727,o),
(396,727,cs),
(437,727,o),
(469,713,o),
(492,690,cs),
(515,667,o),
(527,636,o),
(527,603,cs),
(527,566,o),
(512,527,o),
(482,497,cs),
(452,467,o),
(407,445,o),
(350,442,c),
(347,423,l),
(412,403,o),
(463,371,o),
(496,333,cs),
(529,295,o),
(547,250,o),
(547,203,cs),
(547,139,o),
(523,91,o),
(488,60,cs),
(452,28,o),
(406,13,o),
(359,13,cs),
(303,13,o),
(260,33,o),
(228,81,c),
(210,68,l),
(243,19,o),
(291,-8,o),
(359,-8,cs)
);
},
{
closed = 1;
nodes = (
(188,504,l),
(191,525,l),
(69,525,l),
(66,504,l)
);
}
);
width = 640;
}
);
leftKerningGroup = f2;
unicode = 223;
},
{
glyphname = ae;
layers = (
{
layerId = "DCD6D63C-8715-4521-BEFF-523A5C998C9C";
shapes = (
{
closed = 1;
nodes = (
(283,-10,o),
(368,40,o),
(413,121,c),
(361,177,l),
(337,143,o),
(306,129,o),
(264,129,cs),
(243,129,o),
(219,137,o),
(219,161,cs),
(219,196,o),
(245,217,o),
(293,217,cs),
(875,217,l),
(886,252,o),
(888,284,o),
(888,305,cs),
(888,447,o),
(794,546,o),
(650,546,cs),
(478,546,o),
(349,406,o),
(349,237,cs),
(349,76,o),
(465,-10,o),
(619,-10,cs),
(703,-10,o),
(771,5,o),
(840,58,c),
(760,192,l),
(721,168,o),
(698,164,o),
(661,164,cs),
(590,164,o),
(532,191,o),
(532,269,cs),
(532,336,o),
(575,381,o),
(643,381,cs),
(680,381,o),
(709,364,o),
(709,324,cs),
(709,316,o),
(709,308,o),
(706,301,c),
(712,307,l),
(266,307,ls),
(191,307,o),
(130,292,o),
(87,264,cs),
(43,235,o),
(19,191,o),
(19,132,cs),
(19,35,o),
(100,-10,o),
(189,-10,cs)
);
},
{
closed = 1;
nodes = (
(523,242,l),
(537,354,ls),
(555,495,o),
(465,546,o),
(336,546,cs),
(240,546,o),
(133,508,o),
(62,442,c),
(163,329,l),
(200,364,o),
(233,382,o),
(289,382,cs),
(338,382,o),
(353,357,o),
(349,317,c),
(339,242,l)
);
}
);
width = 911;
},
{
layerId = "222DC4F3-8650-441F-8C70-2115B1B3D57E";
shapes = (
{
closed = 1;
nodes = (
(294,-10,o),
(385,39,o),
(439,113,c),
(408,191,l),
(370,125,o),
(298,77,o),
(220,77,cs),
(178,77,o),
(133,98,o),
(133,145,cs),
(133,210,o),
(186,234,o),
(269,234,cs),
(898,234,l),
(905,259,o),
(908,284,o),
(908,309,cs),
(908,447,o),
(813,536,o),
(674,536,cs),
(505,536,o),
(390,393,o),
(390,233,cs),
(390,88,o),
(510,-10,o),
(650,-10,cs),
(731,-10,o),
(805,20,o),
(861,73,c),
(811,144,l),
(760,101,o),
(715,87,o),
(660,87,cs),
(566,87,o),
(493,145,o),
(493,242,cs),
(493,350,o),
(548,440,o),
(668,440,cs),
(737,440,o),
(803,402,o),
(803,328,cs),
(803,319,o),
(803,310,o),
(800,301,c),
(817,318,l),
(278,318,ls),
(206,318,o),
(144,305,o),
(100,277,cs),
(56,248,o),
(31,203,o),
(31,140,cs),
(31,44,o),
(112,-10,o),
(202,-10,cs)
);
},
{
closed = 1;
nodes = (
(486,265,l),
(498,374,ls),
(511,490,o),
(438,536,o),
(327,536,cs),
(237,536,o),
(151,505,o),
(87,443,c),
(149,375,l),
(196,426,o),
(250,441,o),
(310,441,cs),
(379,441,o),
(412,410,o),
(405,351,c),
(391,258,l)
);
}
);
width = 935;
},
{
layerId = "731B92CD-F71D-43F6-9B71-33E028774484";
shapes = (
{
closed = 1;
nodes = (
(326,-8,o),
(428,71,o),
(485,172,c),
(474,188,l),
(422,91,o),
(321,14,o),
(208,14,cs),
(137,14,o),
(67,58,o),
(67,135,cs),
(67,223,o),
(144,265,o),
(261,266,cs),
(932,268,l),
(937,291,o),
(940,311,o),
(940,330,cs),
(940,453,o),
(853,533,o),
(732,533,cs),
(568,533,o),
(461,389,o),
(461,234,cs),
(461,93,o),
(549,-8,o),
(693,-8,cs),
(769,-8,o),
(831,22,o),
(886,69,c),
(875,85,l),
(824,41,o),
(763,14,o),
(694,14,cs),
(564,14,o),
(483,109,o),
(483,235,cs),
(483,380,o),
(577,511,o),
(731,511,cs),
(840,511,o),
(918,438,o),
(918,328,cs),
(918,311,o),
(915,294,o),
(910,274,c),
(922,289,l),
(265,287,ls),
(197,287,o),
(143,273,o),
(105,248,cs),
(67,223,o),
(45,185,o),
(45,134,cs),
(45,43,o),
(123,-8,o),
(207,-8,cs)
);
},
{
closed = 1;
nodes = (
(486,277,l),
(497,367,ls),
(513,482,o),
(432,533,o),
(327,533,cs),
(235,533,o),
(168,501,o),
(107,433,c),
(123,418,l),
(172,478,o),
(242,512,o),
(323,512,cs),
(438,512,o),
(484,451,o),
(475,368,cs),
(464,277,l)
);
}
);
width = 977;
}
);
leftKerningGroup = ae;
rightKerningGroup = e;
unicode = 230;
},
{
glyphname = eth;
layers = (
{
layerId = "DCD6D63C-8715-4521-BEFF-523A5C998C9C";
shapes = (
{
closed = 1;
nodes = (
(412,-16,o),
(493,27,o),
(548,95,cs),
(603,163,o),
(630,256,o),
(630,356,cs),
(630,452,o),
(600,536,o),
(544,604,cs),
(487,671,o),
(404,722,o),
(300,753,c),
(233,643,l),
(293,626,o),
(338,591,o),
(368,547,cs),
(398,502,o),
(413,447,o),
(413,390,cs),
(413,375,o),
(412,363,o),
(409,350,c),
(491,339,l),
(479,387,o),
(453,424,o),
(418,449,c),
(382,473,o),
(339,486,o),
(288,486,cs),
(203,486,o),
(137,454,o),
(93,406,cs),
(49,357,o),
(27,292,o),
(27,225,cs),
(27,158,o),
(50,98,o),
(97,55,cs),
(144,11,o),
(213,-16,o),
(304,-16,cs)
);
},
{
closed = 1;
nodes = (
(295,156,o),
(272,165,o),
(256,179,cs),
(239,193,o),
(228,215,o),
(228,240,cs),
(228,264,o),
(238,287,o),
(255,304,cs),
(272,320,o),
(296,331,o),
(325,331,cs),
(352,331,o),
(375,323,o),
(391,308,cs),
(407,293,o),
(417,273,o),
(417,250,cs),
(417,226,o),
(408,202,o),
(392,185,cs),
(375,168,o),
(351,156,o),
(320,156,cs)
);
},
{
closed = 1;
nodes = (
(418,562,l),
(467,591,l),
(600,621,l),
(577,700,l),
(418,665,l),
(355,633,l),
(179,589,l),
(203,512,l)
);
}
);
width = 655;
},
{
layerId = "222DC4F3-8650-441F-8C70-2115B1B3D57E";
shapes = (
{
closed = 1;
nodes = (
(382,-13,o),
(456,28,o),
(506,91,cs),
(556,154,o),
(582,238,o),
(582,323,cs),
(582,431,o),
(553,526,o),
(501,601,cs),
(448,676,o),
(373,729,o),
(281,753,c),
(243,688,l),
(308,667,o),
(366,627,o),
(408,573,cs),
(450,519,o),
(476,453,o),
(476,382,cs),
(476,363,o),
(475,351,o),
(474,335,c),
(510,330,l),
(502,385,o),
(476,430,o),
(437,462,c),
(397,493,o),
(346,511,o),
(286,511,cs),
(209,511,o),
(146,478,o),
(102,427,cs),
(58,375,o),
(34,306,o),
(34,233,cs),
(34,165,o),
(56,103,o),
(99,59,cs),
(142,14,o),
(206,-13,o),
(290,-13,cs)
);
},
{
closed = 1;
nodes = (
(249,82,o),
(211,96,o),
(184,123,cs),
(156,150,o),
(140,188,o),
(140,237,cs),
(140,296,o),
(160,340,o),
(192,372,cs),
(224,403,o),
(268,419,o),
(315,419,cs),
(358,419,o),
(397,405,o),
(425,379,cs),
(453,353,o),
(470,313,o),
(470,265,cs),
(470,208,o),
(449,162,o),
(417,131,cs),
(384,99,o),
(340,82,o),
(293,82,cs)
);
},
{
closed = 1;
nodes = (
(412,588,l),
(448,604,l),
(574,634,l),
(558,698,l),
(402,666,l),
(356,643,l),
(198,604,l),
(212,540,l)
);
}
);
width = 616;
},
{
layerId = "731B92CD-F71D-43F6-9B71-33E028774484";
shapes = (
{
closed = 1;
nodes = (
(371,-9,o),
(443,36,o),
(491,105,cs),
(539,174,o),
(564,270,o),
(564,370,cs),
(564,474,o),
(540,556,o),
(493,619,cs),
(446,682,o),
(377,724,o),
(286,748,c),
(274,728,l),
(350,711,o),
(415,674,o),
(463,620,cs),
(510,566,o),
(537,495,o),
(537,411,cs),
(537,390,o),
(536,367,o),
(529,340,c),
(540,354,l),
(536,401,o),
(513,444,o),
(477,476,cs),
(440,508,o),
(389,528,o),
(332,528,cs),
(247,528,o),
(177,494,o),
(129,440,cs),
(80,386,o),
(53,313,o),
(53,234,cs),
(53,162,o),
(76,102,o),
(116,59,cs),
(155,15,o),
(211,-9,o),
(278,-9,cs)
);
},
{
closed = 1;
nodes = (
(219,13,o),
(168,36,o),
(133,75,cs),
(97,114,o),
(76,169,o),
(76,234,cs),
(76,302,o),
(99,370,o),
(142,422,cs),
(185,473,o),
(248,507,o),
(329,507,cs),
(389,507,o),
(438,486,o),
(474,448,cs),
(509,410,o),
(529,357,o),
(529,293,cs),
(529,224,o),
(505,153,o),
(462,101,cs),
(418,48,o),
(355,13,o),
(279,13,cs)
);
},
{
closed = 1;
nodes = (
(454,637,l),
(469,641,l),
(547,661,l),
(543,682,l),
(450,657,l),
(436,654,l),
(218,597,l),
(219,575,l)
);
}
);
width = 611;
}
);
leftKerningGroup = a2;
unicode = 240;
},
{
glyphname = thorn;
layers = (
{
layerId = "DCD6D63C-8715-4521-BEFF-523A5C998C9C";
shapes = (
{
closed = 1;
nodes = (
(196,-230,l),
(240,124,l),
(193,116,l),
(225,34,o),
(296,-10,o),
(384,-10,cs),
(551,-10,o),
(644,140,o),
(644,292,cs),
(644,426,o),
(569,546,o),
(423,546,cs),
(332,546,o),
(260,493,o),
(223,412,c),
(276,410,l),
(318,740,l),
(115,740,l),
(-8,-230,l)
);
},
{
closed = 1;
nodes = (
(282,162,o),
(252,197,o),
(252,254,cs),
(252,314,o),
(283,373,o),
(350,373,cs),
(408,373,o),
(439,334,o),
(439,278,cs),
(439,218,o),
(409,162,o),
(341,162,cs)
);
}
);
width = 673;
},
{
layerId = "222DC4F3-8650-441F-8C70-2115B1B3D57E";
shapes = (
{
closed = 1;
nodes = (
(105,-230,l),
(154,138,l),
(121,178,l),
(127,60,o),
(211,-13,o),
(327,-13,cs),
(493,-13,o),
(598,144,o),
(598,298,cs),
(598,434,o),
(508,536,o),
(367,536,cs),
(266,536,o),
(177,482,o),
(153,382,c),
(186,406,l),
(229,740,l),
(126,740,l),
(2,-230,l)
);
},
{
closed = 1;
nodes = (
(213,84,o),
(159,155,o),
(159,247,cs),
(159,350,o),
(232,439,o),
(341,439,cs),
(436,439,o),
(490,380,o),
(490,289,cs),
(490,186,o),
(419,84,o),
(309,84,cs)
);
}
);
width = 632;
},
{
layerId = "731B92CD-F71D-43F6-9B71-33E028774484";
shapes = (
{
closed = 1;
nodes = (
(45,-230,l),
(102,186,l),
(92,182,l),
(102,68,o),
(196,-8,o),
(308,-8,cs),
(470,-8,o),
(577,135,o),
(577,288,cs),
(577,426,o),
(494,533,o),
(350,533,cs),
(234,533,o),
(137,454,o),
(106,344,c),
(125,373,l),
(168,740,l),
(146,740,l),
(23,-230,l)
);
},
{
closed = 1;
nodes = (
(180,13,o),
(105,113,o),
(105,234,cs),
(105,374,o),
(197,512,o),
(348,512,cs),
(483,512,o),
(554,413,o),
(554,285,cs),
(554,143,o),
(457,13,o),
(307,13,cs)
);
}
);
width = 632;
}
);
leftKerningGroup = b2;
rightKerningGroup = b;
unicode = 254;
},
{
glyphname = dcroat;
layers = (
{
layerId = "DCD6D63C-8715-4521-BEFF-523A5C998C9C";
shapes = (
{
closed = 1;
nodes = (
(710,552,l),
(728,692,l),
(359,692,l),
(341,552,l)
);
},
{
closed = 1;
nodes = (
(346,-11,o),
(425,49,o),
(455,139,c),
(403,130,l),
(407,0,l),
(584,0,l),
(677,740,l),
(474,740,l),
(434,416,l),
(482,377,l),
(472,482,o),
(398,546,o),
(293,546,cs),
(120,546,o),
(29,396,o),
(29,238,cs),
(29,107,o),
(109,-11,o),
(250,-11,cs)
);
},
{
closed = 1;
nodes = (
(264,164,o),
(234,203,o),
(234,257,cs),
(234,319,o),
(266,373,o),
(334,373,cs),
(392,373,o),
(421,334,o),
(421,279,cs),
(421,215,o),
(392,164,o),
(321,164,cs)
);
}
);
width = 682;
},
{
layerId = "222DC4F3-8650-441F-8C70-2115B1B3D57E";
shapes = (
{
closed = 1;
nodes = (
(705,598,l),
(715,676,l),
(380,676,l),
(370,598,l)
);
},
{
closed = 1;
nodes = (
(358,-10,o),
(454,48,o),
(480,144,c),
(452,126,l),
(436,0,l),
(534,0,l),
(628,740,l),
(525,740,l),
(479,392,l),
(511,348,l),
(509,471,o),
(432,536,o),
(310,536,cs),
(144,536,o),
(33,394,o),
(33,237,cs),
(33,105,o),
(122,-10,o),
(261,-10,cs)
);
},
{
closed = 1;
nodes = (
(197,87,o),
(141,156,o),
(141,246,cs),
(141,350,o),
(214,439,o),
(324,439,cs),
(419,439,o),
(474,379,o),
(474,288,cs),
(474,184,o),
(402,87,o),
(291,87,cs)
);
}
);
width = 648;
},
{
layerId = "731B92CD-F71D-43F6-9B71-33E028774484";
shapes = (
{
closed = 1;
nodes = (
(696,623,l),
(698,644,l),
(413,644,l),
(410,623,l)
);
},
{
closed = 1;
nodes = (
(394,-10,o),
(495,67,o),
(524,175,c),
(507,150,l),
(493,0,l),
(514,0,l),
(608,740,l),
(586,740,l),
(530,333,l),
(540,342,l),
(526,459,o),
(441,530,o),
(324,530,cs),
(161,530,o),
(55,397,o),
(55,241,cs),
(55,101,o),
(135,-10,o),
(282,-10,cs)
);
},
{
closed = 1;
nodes = (
(153,11,o),
(78,113,o),
(78,242,cs),
(78,384,o),
(173,509,o),
(323,509,cs),
(455,509,o),
(527,417,o),
(527,290,cs),
(527,149,o),
(441,11,o),
(288,11,cs)
);
}
);
width = 630;
}
);
leftKerningGroup = a2;
unicode = 273;
},
{
glyphname = eogonek;
layers = (
{
layerId = "DCD6D63C-8715-4521-BEFF-523A5C998C9C";
shapes = (
{
closed = 1;
nodes = (
(414,-230,o),
(469,-206,o),
(502,-143,c),
(438,-84,l),
(426,-100,o),
(415,-106,o),
(404,-106,cs),
(391,-106,o),
(377,-94,o),
(377,-79,cs),
(377,-59,o),
(384,-42,o),
(397,-26,cs),
(410,-10,o),
(431,5,o),
(456,20,cs),
(477,32,o),
(500,43,o),
(519,58,c),
(439,193,l),
(404,170,o),
(377,165,o),
(326,165,cs),
(290,165,o),
(263,173,o),
(244,193,c),
(224,212,o),
(215,239,o),
(215,268,cs),
(215,330,o),
(254,382,o),
(319,382,cs),
(354,382,o),
(386,365,o),
(388,328,c),
(388,325,o),
(388,324,o),
(387,321,c),
(186,321,l),
(186,225,l),
(555,225,l),
(562,252,o),
(566,278,o),
(566,305,cs),
(566,449,o),
(474,546,o),
(328,546,cs),
(154,546,o),
(29,420,o),
(29,247,cs),
(29,171,o),
(55,106,o),
(103,60,cs),
(150,14,o),
(217,-10,o),
(298,-10,cs),
(317,-10,o),
(340,-11,o),
(369,4,c),
(334,2,l),
(285,-33,o),
(255,-83,o),
(255,-134,cs),
(255,-193,o),
(299,-230,o),
(363,-230,cs)
);
}
);
width = 590;
},
{
layerId = "222DC4F3-8650-441F-8C70-2115B1B3D57E";
shapes = (
{
closed = 1;
nodes = (
(418,-230,o),
(447,-201,o),
(470,-170,c),
(424,-127,l),
(411,-144,o),
(396,-153,o),
(381,-153,cs),
(362,-153,o),
(345,-140,o),
(345,-105,cs),
(345,-77,o),
(356,-51,o),
(373,-30,cs),
(390,-9,o),
(414,11,o),
(439,24,cs),
(466,39,o),
(491,56,o),
(510,75,c),
(458,143,l),
(401,96,o),
(358,85,o),
(305,85,cs),
(254,85,o),
(212,98,o),
(184,129,cs),
(155,160,o),
(138,204,o),
(138,257,cs),
(138,358,o),
(210,440,o),
(315,440,cs),
(384,440,o),
(448,410,o),
(448,335,cs),
(448,331,o),
(448,328,o),
(447,324,c),
(98,324,l),
(98,240,l),
(543,240,l),
(550,265,o),
(554,291,o),
(554,315,cs),
(554,448,o),
(461,536,o),
(327,536,cs),
(153,536,o),
(35,411,o),
(35,241,cs),
(35,169,o),
(60,105,o),
(105,60,cs),
(150,15,o),
(215,-10,o),
(295,-10,cs),
(312,-10,o),
(332,-12,o),
(360,3,c),
(336,9,l),
(289,-26,o),
(259,-73,o),
(259,-126,cs),
(259,-186,o),
(299,-230,o),
(362,-230,cs)
);
}
);
width = 580;
},
{
layerId = "731B92CD-F71D-43F6-9B71-33E028774484";
shapes = (
{
closed = 1;
nodes = (
(364,-230,o),
(396,-208,o),
(415,-176,c),
(400,-165,l),
(384,-192,o),
(357,-209,o),
(325,-209,cs),
(285,-209,o),
(260,-179,o),
(260,-139,cs),
(260,-96,o),
(275,-66,o),
(299,-42,cs),
(323,-18,o),
(355,-1,o),
(388,14,cs),
(423,30,o),
(456,46,o),
(479,69,c),
(467,84,l),
(415,40,o),
(353,13,o),
(288,13,cs),
(227,13,o),
(173,35,o),
(136,75,cs),
(99,115,o),
(76,171,o),
(76,239,cs),
(76,382,o),
(176,512,o),
(326,512,cs),
(436,512,o),
(512,439,o),
(512,328,cs),
(512,316,o),
(510,304,o),
(506,289,c),
(69,289,l),
(69,268,l),
(525,268,l),
(532,287,o),
(533,304,o),
(533,323,cs),
(533,449,o),
(454,533,o),
(327,533,cs),
(164,533,o),
(54,393,o),
(54,237,cs),
(54,165,o),
(78,103,o),
(119,60,cs),
(160,17,o),
(218,-8,o),
(287,-8,cs),
(306,-8,o),
(325,-5,o),
(344,3,c),
(349,12,l),
(282,-19,o),
(238,-72,o),
(238,-140,cs),
(238,-192,o),
(274,-230,o),
(325,-230,cs)
);
}
);
width = 570;
}
);
leftKerningGroup = a2;
rightKerningGroup = e;
unicode = 281;
},
{
glyphname = hbar;
layers = (
{
layerId = "DCD6D63C-8715-4521-BEFF-523A5C998C9C";
shapes = (
{
closed = 1;
nodes = (
(413,552,l),
(430,692,l),
(62,692,l),
(45,552,l)
);
},
{
closed = 1;
nodes = (
(225,0,l),
(265,314,l),
(268,333,o),
(277,349,o),
(290,361,cs),
(302,372,o),
(320,379,o),
(340,379,cs),
(379,379,o),
(398,355,o),
(393,311,cs),
(353,0,l),
(556,0,l),
(600,349,ls),
(615,472,o),
(557,548,o),
(434,548,cs),
(390,548,o),
(346,534,o),
(310,511,cs),
(273,487,o),
(244,454,o),
(228,417,c),
(279,427,l),
(318,740,l),
(115,740,l),
(22,0,l)
);
}
);
width = 644;
},
{
layerId = "222DC4F3-8650-441F-8C70-2115B1B3D57E";
shapes = (
{
closed = 1;
nodes = (
(360,598,l),
(370,676,l),
(37,676,l),
(27,598,l)
);
},
{
closed = 1;
nodes = (
(148,0,l),
(185,294,l),
(192,337,o),
(211,376,o),
(239,405,cs),
(267,433,o),
(303,451,o),
(343,451,c),
(414,454,o),
(448,412,o),
(439,329,c),
(396,0,l),
(499,0,l),
(543,340,ls),
(558,469,o),
(503,545,o),
(387,545,cs),
(343,545,o),
(298,529,o),
(260,505,cs),
(222,481,o),
(191,449,o),
(176,414,c),
(201,417,l),
(241,740,l),
(138,740,l),
(45,0,l)
);
}
);
width = 597;
},
{
layerId = "731B92CD-F71D-43F6-9B71-33E028774484";
shapes = (
{
closed = 1;
nodes = (
(311,623,l),
(313,644,l),
(28,644,l),
(26,623,l)
);
},
{
closed = 1;
nodes = (
(74,0,l),
(122,379,ls),
(125,400,o),
(150,433,o),
(187,461,cs),
(224,489,o),
(275,512,o),
(330,512,cs),
(439,512,o),
(490,452,o),
(475,331,cs),
(433,0,l),
(455,0,l),
(497,331,ls),
(514,468,o),
(451,533,o),
(334,533,cs),
(287,533,o),
(241,518,o),
(202,495,cs),
(162,471,o),
(131,440,o),
(115,405,c),
(126,407,l),
(168,740,l),
(146,740,l),
(52,0,l)
);
}
);
width = 568;
}
);
rightKerningGroup = h;
unicode = 295;
},
{
glyphname = iogonek;
layers = (
{
layerId = "DCD6D63C-8715-4521-BEFF-523A5C998C9C";
shapes = (
{
closed = 1;
nodes = (
(165,-230,o),
(217,-201,o),
(245,-146,c),
(183,-87,l),
(175,-98,o),
(160,-106,o),
(147,-106,cs),
(134,-106,o),
(123,-98,o),
(123,-83,cs),
(123,-70,o),
(130,-54,o),
(142,-39,cs),
(154,-23,o),
(172,-9,o),
(196,0,c),
(224,0,l),
(292,535,l),
(89,535,l),
(21,0,l),
(72,0,l),
(47,-16,o),
(27,-36,o),
(14,-60,cs),
(1,-83,o),
(-6,-108,o),
(-6,-132,cs),
(-6,-165,o),
(8,-190,o),
(29,-206,cs),
(50,-222,o),
(80,-230,o),
(109,-230,cs)
);
},
{
closed = 1;
nodes = (
(274,636,o),
(321,670,o),
(328,723,c),
(339,791,o),
(293,828,o),
(221,828,cs),
(154,828,o),
(110,793,o),
(103,741,cs),
(94,672,o),
(144,636,o),
(209,636,cs)
);
}
);
width = 314;
},
{
layerId = "222DC4F3-8650-441F-8C70-2115B1B3D57E";
shapes = (
{
closed = 1;
nodes = (
(113,-230,o),
(150,-202,o),
(171,-169,c),
(126,-128,l),
(115,-144,o),
(99,-153,o),
(84,-153,cs),
(61,-153,o),
(48,-138,o),
(48,-115,cs),
(48,-95,o),
(56,-73,o),
(70,-53,cs),
(84,-33,o),
(104,-15,o),
(129,0,c),
(134,0,l),
(202,532,l),
(99,532,l),
(31,0,l),
(48,0,l),
(19,-20,o),
(-2,-42,o),
(-17,-66,cs),
(-32,-90,o),
(-39,-116,o),
(-39,-140,cs),
(-39,-164,o),
(-30,-187,o),
(-14,-204,c),
(3,-220,o),
(29,-230,o),
(62,-230,cs)
);
},
{
closed = 1;
nodes = (
(205,641,o),
(232,663,o),
(236,702,c),
(243,747,o),
(216,771,o),
(173,771,cs),
(134,771,o),
(106,750,o),
(101,710,c),
(94,665,o),
(124,641,o),
(165,641,cs)
);
}
);
width = 233;
},
{
layerId = "731B92CD-F71D-43F6-9B71-33E028774484";
shapes = (
{
closed = 1;
nodes = (
(73,-230,o),
(106,-208,o),
(126,-176,c),
(112,-164,l),
(93,-191,o),
(69,-209,o),
(37,-209,cs),
(-2,-209,o),
(-28,-180,o),
(-28,-141,cs),
(-28,-113,o),
(-17,-83,o),
(0,-57,cs),
(17,-31,o),
(43,-9,o),
(72,0,c),
(73,0,l),
(140,525,l),
(118,525,l),
(51,0,l),
(59,13,l),
(32,2,o),
(5,-19,o),
(-16,-47,cs),
(-36,-74,o),
(-50,-108,o),
(-50,-141,cs),
(-50,-168,o),
(-41,-190,o),
(-26,-206,cs),
(-11,-221,o),
(11,-230,o),
(36,-230,cs)
);
},
{
closed = 1;
nodes = (
(168,663,o),
(178,673,o),
(179,692,c),
(182,709,o),
(170,721,o),
(153,721,cs),
(134,721,o),
(125,709,o),
(122,692,c),
(121,675,o),
(132,663,o),
(149,663,cs)
);
}
);
width = 192;
}
);
leftKerningGroup = i2;
rightKerningGroup = i;
unicode = 303;
},
{
glyphname = dotlessi;
layers = (
{
layerId = "DCD6D63C-8715-4521-BEFF-523A5C998C9C";
shapes = (
{
closed = 1;
nodes = (
(225,0,l),
(292,535,l),
(89,535,l),
(22,0,l)
);
}
);
width = 314;
},
{
layerId = "222DC4F3-8650-441F-8C70-2115B1B3D57E";
shapes = (
{
closed = 1;
nodes = (
(134,0,l),
(201,525,l),
(98,525,l),
(31,0,l)
);
}
);
width = 233;
},
{
layerId = "731B92CD-F71D-43F6-9B71-33E028774484";
shapes = (
{
closed = 1;
nodes = (
(74,0,l),
(140,525,l),
(118,525,l),
(52,0,l)
);
}
);
width = 192;
}
);
leftKerningGroup = m;
rightKerningGroup = uhorn;
unicode = 305;
},
{
glyphname = kgreenlandic;
layers = (
{
layerId = "DCD6D63C-8715-4521-BEFF-523A5C998C9C";
shapes = (
{
closed = 1;
nodes = (
(682,535,l),
(424,535,l),
(133,267,l),
(222,115,l)
);
},
{
closed = 1;
nodes = (
(225,0,l),
(292,535,l),
(89,535,l),
(22,0,l)
);
},
{
closed = 1;
nodes = (
(616,0,l),
(388,360,l),
(242,244,l),
(395,0,l)
);
}
);
width = 656;
},
{
layerId = "222DC4F3-8650-441F-8C70-2115B1B3D57E";
shapes = (
{
closed = 1;
nodes = (
(580,525,l),
(435,525,l),
(152,276,l),
(149,164,l)
);
},
{
closed = 1;
nodes = (
(134,0,l),
(202,525,l),
(99,525,l),
(31,0,l)
);
},
{
closed = 1;
nodes = (
(517,0,l),
(289,298,l),
(214,231,l),
(387,0,l)
);
}
);
width = 566;
},
{
layerId = "731B92CD-F71D-43F6-9B71-33E028774484";
shapes = (
{
closed = 1;
nodes = (
(481,525,l),
(447,525,l),
(90,211,l),
(89,179,l)
);
},
{
closed = 1;
nodes = (
(74,0,l),
(140,525,l),
(118,525,l),
(52,0,l)
);
},
{
closed = 1;
nodes = (
(449,0,l),
(220,307,l),
(203,291,l),
(421,0,l)
);
}
);
width = 512;
}
);
leftKerningGroup = m;
rightKerningGroup = k;
unicode = 312;
},
{
glyphname = Eng;
layers = (
{
layerId = "DCD6D63C-8715-4521-BEFF-523A5C998C9C";
shapes = (
{
closed = 1;
nodes = (
(418,-219,l),
(502,-219,o),
(569,-205,o),
(618,-173,cs),
(667,-140,o),
(698,-88,o),
(707,-12,cs),
(797,700,l),
(581,700,l),
(565,570,l),
(557,514,o),
(553,479,o),
(550,441,cs),
(547,403,o),
(547,362,o),
(547,298,c),
(563,304,l),
(321,700,l),
(125,700,l),
(36,0,l),
(252,0,l),
(289,263,ls),
(292,284,o),
(294,312,o),
(295,341,cs),
(296,369,o),
(298,398,o),
(298,419,c),
(275,412,l),
(525,-3,l),
(513,70,l),
(502,-2,ls),
(498,-25,o),
(475,-39,o),
(445,-48,cs),
(415,-57,o),
(378,-60,o),
(350,-60,c)
);
}
);
width = 813;
},
{
layerId = "222DC4F3-8650-441F-8C70-2115B1B3D57E";
shapes = (
{
closed = 1;
nodes = (
(423,-197,l),
(479,-197,o),
(527,-180,o),
(563,-150,cs),
(599,-120,o),
(623,-76,o),
(630,-24,cs),
(722,700,l),
(614,700,l),
(585,470,ls),
(576,397,o),
(569,329,o),
(565,270,cs),
(560,211,o),
(559,159,o),
(560,118,c),
(579,127,l),
(227,700,l),
(140,700,l),
(51,0,l),
(159,0,l),
(196,291,l),
(200,316,o),
(202,357,o),
(205,406,cs),
(208,454,o),
(210,510,o),
(211,566,c),
(198,552,l),
(548,-6,l),
(538,76,l),
(528,-5,ls),
(523,-44,o),
(509,-72,o),
(486,-90,cs),
(462,-108,o),
(432,-117,o),
(393,-117,c)
);
}
);
width = 752;
},
{
layerId = "731B92CD-F71D-43F6-9B71-33E028774484";
shapes = (
{
closed = 1;
nodes = (
(431,-194,l),
(471,-194,o),
(504,-183,o),
(529,-160,cs),
(553,-137,o),
(570,-104,o),
(575,-60,cs),
(671,700,l),
(649,700,l),
(591,241,ls),
(582,166,o),
(576,121,o),
(573,91,cs),
(569,61,o),
(567,45,o),
(566,30,c),
(570,30,l),
(181,700,l),
(161,700,l),
(72,0,l),
(94,0,l),
(154,470,l),
(155,482,o),
(161,530,o),
(167,578,cs),
(173,626,o),
(179,674,o),
(179,686,c),
(164,686,l),
(568,-10,l),
(563,19,l),
(553,-56,ls),
(549,-91,o),
(538,-120,o),
(518,-141,c),
(497,-161,o),
(467,-173,o),
(426,-173,c)
);
}
);
width = 720;
}
);
leftKerningGroup = B;
unicode = 330;
},
{
glyphname = eng;
layers = (
{
layerId = "DCD6D63C-8715-4521-BEFF-523A5C998C9C";
shapes = (
{
closed = 1;
nodes = (
(281,-219,l),
(362,-219,o),
(427,-204,o),
(473,-167,cs),
(519,-130,o),
(548,-69,o),
(560,26,cs),
(601,341,ls),
(616,469,o),
(558,546,o),
(434,546,cs),
(378,546,o),
(316,524,o),
(276,484,c),
(277,535,l),
(89,535,l),
(22,0,l),
(225,0,l),
(265,314,l),
(271,352,o),
(300,377,o),
(339,377,cs),
(379,377,o),
(400,355,o),
(393,311,c),
(359,47,ls),
(354,4,o),
(344,-23,o),
(324,-40,c),
(303,-56,o),
(272,-62,o),
(223,-62,c)
);
}
);
width = 636;
},
{
layerId = "222DC4F3-8650-441F-8C70-2115B1B3D57E";
shapes = (
{
closed = 1;
nodes = (
(286,-197,l),
(342,-197,o),
(388,-180,o),
(422,-151,cs),
(456,-122,o),
(477,-79,o),
(484,-24,cs),
(530,340,ls),
(545,469,o),
(490,536,o),
(370,536,cs),
(307,536,o),
(235,509,o),
(195,461,c),
(201,525,l),
(98,525,l),
(31,0,l),
(134,0,l),
(172,294,l),
(185,372,o),
(243,442,o),
(329,442,c),
(401,445,o),
(435,412,o),
(426,329,c),
(384,0,ls),
(379,-41,o),
(363,-71,o),
(340,-90,cs),
(317,-109,o),
(288,-117,o),
(255,-117,c)
);
}
);
width = 583;
},
{
layerId = "731B92CD-F71D-43F6-9B71-33E028774484";
shapes = (
{
closed = 1;
nodes = (
(304,-194,l),
(340,-194,o),
(374,-184,o),
(399,-162,cs),
(423,-140,o),
(441,-107,o),
(448,-60,c),
(497,331,ls),
(514,468,o),
(451,533,o),
(334,533,cs),
(258,533,o),
(170,493,o),
(128,428,c),
(138,525,l),
(118,525,l),
(52,0,l),
(74,0,l),
(122,379,ls),
(133,451,o),
(266,511,o),
(330,511,cs),
(439,511,o),
(490,452,o),
(475,331,cs),
(426,-56,ls),
(421,-93,o),
(409,-122,o),
(388,-142,cs),
(367,-162,o),
(338,-173,o),
(299,-173,c)
);
}
);
width = 570;
}
);
leftKerningGroup = m;
rightKerningGroup = h;
unicode = 331;
},
{
glyphname = OE;
layers = (
{
layerId = "DCD6D63C-8715-4521-BEFF-523A5C998C9C";
shapes = (
{
closed = 1;
nodes = (
(1041,0,l),
(1064,175,l),
(740,175,l),
(752,272,l),
(1020,272,l),
(1040,437,l),
(773,437,l),
(785,525,l),
(1104,525,l),
(1126,700,l),
(465,700,ls),
(332,700,o),
(228,655,o),
(160,587,cs),
(91,518,o),
(55,424,o),
(55,324,cs),
(55,231,o),
(88,150,o),
(149,92,cs),
(209,34,o),
(299,0,o),
(415,0,cs)
);
},
{
closed = 1;
nodes = (
(421,189,ls),
(380,189,o),
(344,202,o),
(318,226,cs),
(292,250,o),
(275,286,o),
(275,333,cs),
(275,380,o),
(289,425,o),
(318,458,cs),
(346,490,o),
(390,512,o),
(447,512,cs),
(567,512,l),
(525,189,l)
);
}
);
width = 1115;
},
{
layerId = "222DC4F3-8650-441F-8C70-2115B1B3D57E";
shapes = (
{
closed = 1;
nodes = (
(945,0,l),
(958,104,l),
(626,104,l),
(652,307,l),
(929,307,l),
(942,411,l),
(665,411,l),
(689,596,l),
(1021,596,l),
(1034,700,l),
(449,700,ls),
(325,700,o),
(228,654,o),
(164,583,cs),
(99,511,o),
(64,415,o),
(64,315,cs),
(64,223,o),
(91,144,o),
(143,89,cs),
(194,33,o),
(271,0,o),
(368,0,cs)
);
},
{
closed = 1;
nodes = (
(377,104,ls),
(312,104,o),
(260,124,o),
(226,161,cs),
(192,197,o),
(173,250,o),
(173,315,cs),
(173,390,o),
(197,460,o),
(242,512,cs),
(287,563,o),
(356,596,o),
(444,596,cs),
(581,596,l),
(518,104,l)
);
}
);
width = 1024;
},
{
layerId = "731B92CD-F71D-43F6-9B71-33E028774484";
shapes = (
{
closed = 1;
nodes = (
(913,0,l),
(916,21,l),
(553,21,l),
(595,352,l),
(905,352,l),
(908,373,l),
(598,373,l),
(636,679,l),
(1005,679,l),
(1008,700,l),
(439,700,ls),
(335,700,o),
(244,654,o),
(180,582,cs),
(116,510,o),
(78,412,o),
(78,311,cs),
(78,218,o),
(114,140,o),
(170,86,cs),
(225,32,o),
(301,0,o),
(381,0,cs)
);
},
{
closed = 1;
nodes = (
(384,21,ls),
(311,21,o),
(239,50,o),
(187,102,cs),
(135,153,o),
(101,226,o),
(101,311,cs),
(101,410,o),
(139,501,o),
(200,569,cs),
(260,636,o),
(346,679,o),
(442,679,cs),
(614,679,l),
(532,21,l)
);
}
);
width = 1017;
}
);
leftKerningGroup = C2;
rightKerningGroup = E;
unicode = 338;
},
{
glyphname = oe;
layers = (
{
layerId = "DCD6D63C-8715-4521-BEFF-523A5C998C9C";
shapes = (
{
closed = 1;
nodes = (
(395,-14,o),
(479,14,o),
(534,77,c),
(497,78,l),
(550,13,o),
(623,-14,o),
(706,-14,cs),
(786,-14,o),
(860,9,o),
(925,61,c),
(845,193,l),
(814,172,o),
(780,161,o),
(731,161,cs),
(657,161,o),
(622,197,o),
(622,271,cs),
(622,332,o),
(650,384,o),
(718,384,cs),
(757,384,o),
(794,366,o),
(794,322,cs),
(794,310,o),
(792,298,o),
(789,285,c),
(839,320,l),
(597,320,l),
(600,225,l),
(961,225,l),
(970,262,o),
(973,284,o),
(973,305,cs),
(975,447,o),
(880,548,o),
(737,548,cs),
(657,548,o),
(580,520,o),
(526,460,c),
(563,458,l),
(510,520,o),
(426,548,o),
(346,548,cs),
(172,548,o),
(29,425,o),
(29,246,cs),
(29,84,o),
(159,-14,o),
(313,-14,cs)
);
},
{
closed = 1;
nodes = (
(267,158,o),
(234,207,o),
(234,258,cs),
(234,320,o),
(272,378,o),
(339,378,cs),
(398,378,o),
(427,330,o),
(427,276,cs),
(427,216,o),
(386,158,o),
(322,158,cs)
);
}
);
width = 995;
},
{
layerId = "222DC4F3-8650-441F-8C70-2115B1B3D57E";
shapes = (
{
closed = 1;
nodes = (
(397,-10,o),
(488,36,o),
(537,120,c),
(504,121,l),
(547,34,o),
(638,-10,o),
(733,-10,cs),
(808,-10,o),
(891,20,o),
(948,73,c),
(900,145,l),
(843,97,o),
(797,85,o),
(745,85,cs),
(636,85,o),
(584,155,o),
(584,258,cs),
(584,360,o),
(648,440,o),
(756,440,cs),
(829,440,o),
(892,405,o),
(892,327,cs),
(892,312,o),
(892,299,o),
(889,284,c),
(934,324,l),
(559,324,l),
(557,240,l),
(986,240,l),
(991,263,o),
(994,285,o),
(994,308,cs),
(996,448,o),
(902,536,o),
(761,536,cs),
(661,536,o),
(570,488,o),
(519,403,c),
(555,403,l),
(511,492,o),
(418,536,o),
(320,536,cs),
(158,536,o),
(36,410,o),
(36,251,cs),
(36,99,o),
(150,-10,o),
(301,-10,cs)
);
},
{
closed = 1;
nodes = (
(206,87,o),
(142,161,o),
(142,254,cs),
(142,356,o),
(209,439,o),
(317,439,cs),
(417,439,o),
(478,371,o),
(478,275,cs),
(478,173,o),
(408,87,o),
(302,87,cs)
);
}
);
width = 1022;
},
{
layerId = "731B92CD-F71D-43F6-9B71-33E028774484";
shapes = (
{
closed = 1;
nodes = (
(425,-7,o),
(531,87,o),
(562,210,c),
(548,212,l),
(558,88,o),
(641,-7,o),
(770,-7,cs),
(846,-7,o),
(909,22,o),
(964,69,c),
(952,84,l),
(901,41,o),
(840,14,o),
(771,14,cs),
(643,14,o),
(568,115,o),
(568,237,cs),
(568,378,o),
(658,512,o),
(810,512,cs),
(918,512,o),
(993,440,o),
(993,331,cs),
(993,314,o),
(990,297,o),
(986,278,c),
(999,289,l),
(566,289,l),
(563,268,l),
(1006,268,l),
(1011,287,o),
(1014,305,o),
(1014,322,cs),
(1016,449,o),
(936,533,o),
(809,533,cs),
(680,533,o),
(584,439,o),
(557,317,c),
(570,317,l),
(560,446,o),
(469,533,o),
(339,533,cs),
(176,533,o),
(53,399,o),
(53,239,cs),
(53,96,o),
(152,-7,o),
(296,-7,cs)
);
},
{
closed = 1;
nodes = (
(164,14,o),
(76,111,o),
(76,240,cs),
(76,385,o),
(189,512,o),
(337,512,cs),
(467,512,o),
(550,415,o),
(550,289,cs),
(550,145,o),
(445,14,o),
(295,14,cs)
);
}
);
width = 1052;
}
);
leftKerningGroup = a2;
rightKerningGroup = e;
unicode = 339;
},
{
glyphname = Uogonek;
layers = (
{
layerId = "DCD6D63C-8715-4521-BEFF-523A5C998C9C";
shapes = (
{
closed = 1;
nodes = (
(459,-230,o),
(505,-203,o),
(540,-143,c),
(473,-85,l),
(462,-100,o),
(451,-107,o),
(440,-107,cs),
(433,-107,o),
(427,-105,o),
(423,-101,cs),
(419,-96,o),
(416,-90,o),
(416,-82,cs),
(416,-63,o),
(425,-48,o),
(443,-30,cs),
(461,-12,o),
(489,9,o),
(529,34,cs),
(566,57,o),
(597,87,o),
(622,124,cs),
(647,160,o),
(664,208,o),
(673,267,c),
(729,700,l),
(521,700,l),
(465,269,ls),
(461,242,o),
(451,218,o),
(433,202,cs),
(415,185,o),
(389,174,o),
(358,174,cs),
(326,174,o),
(301,186,o),
(286,205,cs),
(271,224,o),
(264,249,o),
(268,277,cs),
(322,700,l),
(105,700,l),
(58,289,l),
(46,201,o),
(66,125,o),
(116,70,cs),
(166,15,o),
(245,-17,o),
(350,-18,cs),
(378,-18,o),
(400,-9,o),
(419,0,c),
(371,5,l),
(314,-36,o),
(288,-88,o),
(288,-133,cs),
(288,-193,o),
(340,-230,o),
(404,-230,cs)
);
}
);
width = 724;
},
{
layerId = "222DC4F3-8650-441F-8C70-2115B1B3D57E";
shapes = (
{
closed = 1;
nodes = (
(418,-230,o),
(455,-205,o),
(479,-168,c),
(430,-126,l),
(418,-145,o),
(402,-152,o),
(389,-152,cs),
(380,-152,o),
(371,-148,o),
(364,-141,cs),
(357,-134,o),
(353,-123,o),
(353,-110,cs),
(353,-75,o),
(372,-51,o),
(401,-28,cs),
(429,-5,o),
(468,15,o),
(505,43,cs),
(534,65,o),
(561,94,o),
(584,129,cs),
(607,164,o),
(622,210,o),
(629,269,cs),
(685,700,l),
(580,700,l),
(524,275,l),
(519,219,o),
(495,172,o),
(460,140,cs),
(425,107,o),
(380,89,o),
(329,89,cs),
(278,89,o),
(236,106,o),
(208,139,cs),
(180,171,o),
(166,219,o),
(174,280,cs),
(229,700,l),
(121,700,l),
(67,270,ls),
(55,185,o),
(80,112,o),
(129,61,cs),
(177,10,o),
(249,-18,o),
(332,-15,c),
(359,-15,o),
(374,-9,o),
(389,0,c),
(355,5,l),
(304,-30,o),
(267,-75,o),
(267,-131,cs),
(267,-191,o),
(315,-230,o),
(374,-230,cs)
);
}
);
width = 694;
},
{
layerId = "731B92CD-F71D-43F6-9B71-33E028774484";
shapes = (
{
closed = 1;
nodes = (
(380,-230,o),
(412,-213,o),
(435,-176,c),
(420,-166,l),
(401,-197,o),
(376,-209,o),
(348,-209,cs),
(332,-209,o),
(315,-205,o),
(302,-194,cs),
(289,-182,o),
(279,-165,o),
(279,-137,cs),
(279,-98,o),
(296,-71,o),
(324,-47,cs),
(352,-23,o),
(392,-4,o),
(437,19,cs),
(478,39,o),
(514,69,o),
(545,109,cs),
(575,148,o),
(595,201,o),
(604,268,cs),
(660,700,l),
(638,700,l),
(583,274,ls),
(572,191,o),
(541,125,o),
(494,81,cs),
(446,36,o),
(384,11,o),
(312,11,cs),
(235,11,o),
(178,40,o),
(143,88,cs),
(108,135,o),
(95,202,o),
(104,275,cs),
(158,700,l),
(136,700,l),
(82,271,ls),
(71,191,o),
(87,121,o),
(127,71,cs),
(167,21,o),
(230,-10,o),
(315,-10,cs),
(336,-10,o),
(360,-9,o),
(395,6,c),
(374,6,l),
(306,-25,o),
(257,-75,o),
(257,-139,cs),
(257,-192,o),
(292,-230,o),
(347,-230,cs)
);
}
);
width = 684;
}
);
leftKerningGroup = U2;
rightKerningGroup = U;
unicode = 370;
},
{
glyphname = Schwa;
layers = (
{
layerId = "DCD6D63C-8715-4521-BEFF-523A5C998C9C";
shapes = (
{
closed = 1;
nodes = (
(496,-18,o),
(594,28,o),
(663,100,cs),
(732,172,o),
(771,270,o),
(771,374,cs),
(771,466,o),
(742,552,o),
(683,616,cs),
(623,679,o),
(535,718,o),
(419,718,cs),
(326,718,o),
(231,697,o),
(136,640,c),
(234,487,l),
(282,518,o),
(333,533,o),
(388,533,cs),
(439,533,o),
(480,516,o),
(508,487,cs),
(536,458,o),
(552,414,o),
(552,362,cs),
(552,314,o),
(536,266,o),
(506,229,cs),
(476,192,o),
(434,167,o),
(383,167,cs),
(347,167,o),
(316,178,o),
(293,199,cs),
(270,219,o),
(257,249,o),
(257,286,c),
(258,297,o),
(259,309,o),
(262,321,c),
(223,276,l),
(676,276,l),
(674,401,l),
(53,401,l),
(46,369,o),
(39,337,o),
(39,306,cs),
(38,206,o),
(75,125,o),
(136,69,cs),
(196,13,o),
(280,-18,o),
(376,-18,cs)
);
}
);
width = 806;
},
{
layerId = "222DC4F3-8650-441F-8C70-2115B1B3D57E";
shapes = (
{
closed = 1;
nodes = (
(489,-15,o),
(584,34,o),
(652,109,cs),
(719,184,o),
(759,284,o),
(759,385,cs),
(759,482,o),
(725,565,o),
(667,623,cs),
(609,681,o),
(529,715,o),
(437,715,cs),
(324,715,o),
(238,684,o),
(154,613,c),
(216,538,l),
(280,589,o),
(345,612,o),
(429,612,cs),
(493,612,o),
(547,589,o),
(587,549,cs),
(626,509,o),
(649,452,o),
(649,383,cs),
(649,308,o),
(626,235,o),
(580,180,cs),
(534,124,o),
(468,88,o),
(381,88,cs),
(316,88,o),
(261,111,o),
(222,149,cs),
(182,187,o),
(161,239,o),
(158,300,c),
(159,315,o),
(161,331,o),
(164,346,c),
(112,292,l),
(706,292,l),
(709,396,l),
(57,396,l),
(50,367,o),
(48,339,o),
(48,311,cs),
(48,219,o),
(82,137,o),
(140,79,cs),
(198,21,o),
(281,-15,o),
(378,-15,cs)
);
}
);
width = 800;
},
{
layerId = "731B92CD-F71D-43F6-9B71-33E028774484";
shapes = (
{
closed = 1;
nodes = (
(490,-10,o),
(583,38,o),
(650,111,cs),
(717,184,o),
(754,283,o),
(754,386,cs),
(754,483,o),
(718,564,o),
(659,621,cs),
(599,677,o),
(519,710,o),
(428,710,cs),
(336,710,o),
(242,673,o),
(174,609,c),
(188,594,l),
(252,654,o),
(339,689,o),
(427,689,cs),
(511,689,o),
(588,659,o),
(643,606,cs),
(698,553,o),
(732,478,o),
(732,387,cs),
(732,286,o),
(695,191,o),
(632,123,cs),
(568,54,o),
(480,11,o),
(376,11,cs),
(292,11,o),
(218,43,o),
(166,96,cs),
(114,149,o),
(84,225,o),
(85,313,cs),
(85,326,o),
(86,341,o),
(89,356,c),
(76,344,l),
(739,344,l),
(740,365,l),
(68,365,l),
(63,344,o),
(63,327,o),
(63,312,cs),
(63,217,o),
(97,136,o),
(153,80,cs),
(209,23,o),
(287,-10,o),
(375,-10,cs)
);
}
);
width = 810;
}
);
leftKerningGroup = C2;
rightKerningGroup = D;
unicode = 399;
},
{
glyphname = florin;
layers = (
{
layerId = "DCD6D63C-8715-4521-BEFF-523A5C998C9C";
shapes = (
{
closed = 1;
nodes = (
(211,-15,o),
(298,43,o),
(337,180,cs),
(419,467,ls),
(431,510,o),
(454,527,o),
(481,527,cs),
(500,527,o),
(510,522,o),
(526,511,c),
(635,674,l),
(590,702,o),
(535,719,o),
(472,719,cs),
(328,719,o),
(256,657,o),
(220,530,cs),
(131,231,ls),
(123,202,o),
(108,179,o),
(77,179,cs),
(62,179,o),
(47,184,o),
(28,199,c),
(-71,37,l),
(-28,4,o),
(23,-15,o),
(86,-15,cs)
);
},
{
closed = 1;
nodes = (
(497,280,l),
(517,446,l),
(76,447,l),
(56,280,l)
);
}
);
width = 540;
},
{
layerId = "222DC4F3-8650-441F-8C70-2115B1B3D57E";
shapes = (
{
closed = 1;
nodes = (
(169,-13,o),
(232,41,o),
(260,136,c),
(392,534,ls),
(407,581,o),
(435,619,o),
(482,619,cs),
(511,619,o),
(526,613,o),
(550,594,c),
(609,671,l),
(581,698,o),
(536,714,o),
(489,714,cs),
(389,714,o),
(323,658,o),
(290,553,c),
(160,169,l),
(144,114,o),
(122,84,o),
(67,84,cs),
(43,84,o),
(25,91,o),
(-2,107,c),
(-54,30,l),
(-21,5,o),
(26,-13,o),
(77,-13,cs)
);
},
{
closed = 1;
nodes = (
(480,344,l),
(491,438,l),
(108,439,l),
(97,344,l)
);
}
);
width = 532;
},
{
layerId = "731B92CD-F71D-43F6-9B71-33E028774484";
shapes = (
{
closed = 1;
nodes = (
(137,-7,o),
(182,44,o),
(207,128,cs),
(350,587,ls),
(367,643,o),
(398,688,o),
(458,688,cs),
(487,688,o),
(507,682,o),
(538,659,c),
(551,677,l),
(528,696,o),
(496,710,o),
(461,710,cs),
(392,710,o),
(349,661,o),
(326,580,c),
(186,133,ls),
(162,53,o),
(122,15,o),
(67,15,cs),
(30,15,o),
(-1,25,o),
(-32,48,c),
(-44,29,l),
(-15,6,o),
(20,-7,o),
(64,-7,cs)
);
},
{
closed = 1;
nodes = (
(470,391,l),
(473,413,l),
(104,413,l),
(101,391,l)
);
}
);
width = 483;
}
);
unicode = 402;
},
{
glyphname = Nhookleft;
layers = (
{
layerId = "DCD6D63C-8715-4521-BEFF-523A5C998C9C";
shapes = (
{
closed = 1;
nodes = (
(-24,-219,l),
(156,-219,o),
(249,-152,o),
(270,17,cs),
(286,145,ls),
(294,212,o),
(300,254,o),
(303,299,cs),
(306,343,o),
(307,390,o),
(307,466,c),
(239,490,l),
(539,0,l),
(724,0,l),
(814,700,l),
(598,700,l),
(581,570,ls),
(573,503,o),
(569,462,o),
(566,420,cs),
(563,378,o),
(563,336,o),
(562,269,c),
(610,255,l),
(337,700,l),
(140,700,l),
(58,59,ls),
(47,-21,o),
(10,-60,o),
(-82,-60,c)
);
}
);
width = 828;
},
{
layerId = "222DC4F3-8650-441F-8C70-2115B1B3D57E";
shapes = (
{
closed = 1;
nodes = (
(-40,-199,l),
(83,-200,o),
(154,-129,o),
(167,-25,cs),
(208,291,l),
(212,316,o),
(214,357,o),
(217,406,cs),
(220,454,o),
(222,510,o),
(223,566,c),
(210,552,l),
(552,0,l),
(645,0,l),
(734,700,l),
(626,700,l),
(597,470,ls),
(588,397,o),
(580,329,o),
(576,270,cs),
(572,211,o),
(571,159,o),
(572,118,c),
(589,127,l),
(240,700,l),
(152,700,l),
(62,0,ls),
(51,-80,o),
(3,-117,o),
(-74,-117,c)
);
}
);
width = 764;
},
{
layerId = "731B92CD-F71D-43F6-9B71-33E028774484";
shapes = (
{
closed = 1;
nodes = (
(-50,-194,l),
(30,-194,o),
(82,-147,o),
(93,-60,cs),
(160,470,l),
(161,482,o),
(168,530,o),
(173,578,cs),
(178,626,o),
(184,674,o),
(185,686,c),
(170,686,l),
(569,0,l),
(588,0,l),
(677,700,l),
(655,700,l),
(597,241,ls),
(588,166,o),
(582,122,o),
(579,91,cs),
(575,60,o),
(574,46,o),
(573,31,c),
(576,30,l),
(187,700,l),
(167,700,l),
(71,-56,ls),
(63,-125,o),
(28,-173,o),
(-56,-173,c)
);
}
);
width = 727;
}
);
unicode = 413;
},
